<svg width="16" height="16" viewBox="0 0 16 16" fill="none" xmlns="http://www.w3.org/2000/svg">
<rect width="16" height="16" fill="#051A34"/>
<path fill-rule="evenodd" clip-rule="evenodd" d="M6.5158 8.27438C6.37123 8.1203 6.37123 7.8797 6.5158 7.72562L10.317 3.67438C10.5564 3.41919 10.3763 3 10.0273 3L6.73417 3C6.62482 3 6.52029 3.04518 6.44511 3.12495L2.10906 7.72495C1.96365 7.87921 1.96365 8.12078 2.10906 8.27505L6.4451 12.8751C6.52029 12.9548 6.62482 13 6.73417 13L10.0273 13C10.3763 13 10.5564 12.5808 10.317 12.3256L6.5158 8.27438ZM11.3612 8.27437C11.2167 8.12029 11.2167 7.87969 11.3612 7.7256L13.8792 5.04199C14.1182 4.78727 13.9393 4.36879 13.5909 4.36761L10.3024 4.35648C10.1926 4.35611 10.0875 4.40133 10.012 4.48143L6.95458 7.72495C6.80917 7.87922 6.80917 8.12079 6.95459 8.27506L10.0131 11.5196C10.0883 11.5994 10.1928 11.6446 10.3021 11.6446L13.6011 11.6446C13.9501 11.6446 14.1302 11.2254 13.8908 10.9702L11.3612 8.27437Z" fill="#F63E56"/>
</svg>
