<svg width="80" height="80" viewBox="0 0 80 80" fill="none" xmlns="http://www.w3.org/2000/svg">
    <path d="M67.3069 16.8149V43.3687C67.3069 50.247 63.8748 56.6068 58.1252 60.3776L40.4321 72.0001" stroke="#BBD7F7" stroke-width="2" stroke-linecap="round" stroke-linejoin="round"/>
    <path d="M61.7125 43.3686V16.8148C51.2116 16.8148 42.0723 14.1975 37.3563 8C32.6437 14.2011 23.5044 16.8148 13 16.8148V43.3686C13 48.3386 15.5009 52.9735 19.6561 55.7002L37.3527 67.3227L55.0529 55.7002C59.2081 52.9735 61.709 48.3386 61.709 43.3686H61.7125Z" stroke="#BBD7F7" stroke-width="2" stroke-linecap="round" stroke-linejoin="round"/>
    <path d="M23.8113 29.4532L37.1869 36.85L50.5591 29.4532L37.1869 22.0529L23.8113 29.4532Z" stroke="#BBD7F7" stroke-width="2" stroke-linecap="round" stroke-linejoin="round"/>
    <path d="M50.5591 29.4532V44.2504L37.187 51.6508V36.8501L50.5591 29.4532Z" stroke="#BBD7F7" stroke-width="2" stroke-linecap="round" stroke-linejoin="round"/>
    <path d="M23.8113 29.4532L37.1869 36.8501V51.6508L23.8113 44.2504V29.4532Z" stroke="#BBD7F7" stroke-width="2" stroke-linecap="round" stroke-linejoin="round"/>
    <path d="M37.1869 22.0529L23.8113 29.4532V44.2504L37.1869 51.6507L50.5591 44.2504V29.4532L37.1869 22.0529Z" stroke="white" stroke-width="2" stroke-linecap="round" stroke-linejoin="round"/>
    <path d="M37.1869 22.0529L23.8113 29.4532V44.2504L37.1869 51.6507L50.5591 44.2504V29.4532L37.1869 22.0529Z" stroke="#BBD7F7" stroke-width="2" stroke-linecap="round" stroke-linejoin="round"/>
</svg>
