<svg width="80" height="80" fill="none" xmlns="http://www.w3.org/2000/svg">
    <path d="m44.92 70 6.37-24.03 12.2 2.5a6.8 6.8 0 0 1 5.42 6.65V70M34.99 70l-6.37-24.03-12.2 2.5A6.8 6.8 0 0 0 11 55.12V70M54.99 64.04h5.26M39.43 36.52 28.5 44.5a.89.89 0 0 1-1.37-1l4.22-12.87a.89.89 0 0 0-.32-1l-10.99-7.93a.89.89 0 0 1 .52-1.61l13.56.03c.38 0 .73-.25.84-.62l4.16-12.9a.89.89 0 0 1 1.69 0l4.16 12.9c.12.37.46.62.84.62l13.56-.03a.89.89 0 0 1 .52 1.6l-10.99 7.94a.88.88 0 0 0-.32 1l4.22 12.88a.89.89 0 0 1-1.37.99l-10.94-8a.89.89 0 0 0-1.05 0ZM39.95 53.81V70M39.95 42.66v6.25" stroke="#BBD7F7" stroke-width="2" stroke-linecap="round" stroke-linejoin="round"/>
</svg>
