<svg xmlns="http://www.w3.org/2000/svg" fill="none" viewBox="0 0 315 110">
  <path stroke="#BBD7F7" stroke-linecap="round" stroke-linejoin="round" stroke-width="1.5" d="M261.13 92.98h13.7a2.41 2.41 0 0 0 2.42-2.4V42.14c0-4.84-4-8.75-8.88-8.75h-32.51a2.46 2.46 0 0 0-2.42 2.46v36.81"/>
  <path stroke="#BBD7F7" stroke-linecap="round" stroke-linejoin="round" stroke-width="1.5" d="M243.6 100.25c6.97 0 12.6-5.6 12.6-12.5 0-6.91-5.63-12.51-12.6-12.51-6.96 0-12.6 5.6-12.6 12.5 0 6.91 5.64 12.51 12.6 12.51Z"/>
  <path stroke="#BBD7F7" stroke-linecap="round" stroke-linejoin="round" stroke-width="1.5" d="M243.6 93.52a5.8 5.8 0 0 0 5.83-5.77 5.8 5.8 0 0 0-5.83-5.78 5.8 5.8 0 0 0-5.82 5.78 5.8 5.8 0 0 0 5.82 5.77ZM182.19 93.52a5.8 5.8 0 0 0 5.82-5.77 5.8 5.8 0 0 0-5.82-5.78 5.8 5.8 0 0 0-5.83 5.78 5.8 5.8 0 0 0 5.83 5.77Z"/>
  <path stroke="#BBD7F7" stroke-linecap="round" stroke-linejoin="round" stroke-width="1.5" d="M182.19 100.25c6.96 0 12.6-5.6 12.6-12.5 0-6.91-5.64-12.51-12.6-12.51s-12.6 5.6-12.6 12.5c0 6.91 5.64 12.51 12.6 12.51ZM252.07 42.14v12.7c0 3.09 2.54 5.6 5.64 5.6h19.53v-18.3h-25.18 0ZM254.38 67.18H259M261.1 82.4h16.14M259.01 50.2v10.25M74.3 100.25c6.95 0 12.6-5.6 12.6-12.5 0-6.91-5.65-12.51-12.6-12.51-6.97 0-12.61 5.6-12.61 12.5 0 6.91 5.64 12.51 12.6 12.51Z"/>
  <path stroke="#BBD7F7" stroke-linecap="round" stroke-linejoin="round" stroke-width="1.5" d="M80.11 87.75a5.8 5.8 0 0 1-5.82 5.77 5.8 5.8 0 0 1-5.82-5.77 5.8 5.8 0 0 1 5.82-5.78 5.8 5.8 0 0 1 5.82 5.78ZM105.47 100.25c6.96 0 12.6-5.6 12.6-12.5 0-6.91-5.64-12.51-12.6-12.51s-12.6 5.6-12.6 12.5c0 6.91 5.64 12.51 12.6 12.51Z"/>
  <path stroke="#BBD7F7" stroke-linecap="round" stroke-linejoin="round" stroke-width="1.5" d="M105.47 93.52a5.8 5.8 0 0 0 5.83-5.77 5.8 5.8 0 0 0-5.83-5.78 5.8 5.8 0 0 0-5.82 5.78 5.8 5.8 0 0 0 5.82 5.77ZM43.47 100.25c6.96 0 12.6-5.6 12.6-12.5 0-6.91-5.64-12.51-12.6-12.51s-12.6 5.6-12.6 12.5c0 6.91 5.64 12.51 12.6 12.51Z"/>
  <path stroke="#BBD7F7" stroke-linecap="round" stroke-linejoin="round" stroke-width="1.5" d="M43.47 93.52a5.8 5.8 0 0 0 5.83-5.77 5.8 5.8 0 0 0-5.83-5.78 5.8 5.8 0 0 0-5.82 5.78 5.8 5.8 0 0 0 5.82 5.77ZM220.62 79.77h-15.45c-2.59 0-4.7 2.09-4.7 4.66v6.62c0 2.58 2.11 4.66 4.7 4.66h15.45c2.6 0 4.7-2.08 4.7-4.66v-6.62c0-2.57-2.1-4.66-4.7-4.66ZM236.11 33.4V22.46s16.05-.3 24.98 10.9M116.92 73.6h53.82M193.64 73.6h29.33V10H12v63.6h20.02M12 63.18h210.97M129.3 82.24h29.05M129.3 93.25h29.05M21.55 73.6v14.15M134.2 73.6v8.64M153.46 73.6v8.64"/>
  <path fill="#fff" d="M32.83 24.13v-6.84h-.03l-2.16 1.47v-1.57l2.19-1.52h1.75v8.46h-1.75Zm6.8.14c-1.92 0-3.17-1-3.29-2.46v-.08h1.68l.02.06c.07.6.67 1.06 1.58 1.06s1.5-.49 1.5-1.18v-.01c0-.8-.6-1.25-1.63-1.25h-.96v-1.26h.94c.89 0 1.46-.47 1.46-1.16v-.01c0-.69-.49-1.1-1.32-1.1-.82 0-1.39.43-1.46 1.09v.05h-1.63v-.07c.13-1.46 1.32-2.43 3.1-2.43 1.81 0 2.99.9 2.99 2.23 0 1.06-.78 1.75-1.77 1.95v.04c1.26.11 2.08.84 2.08 1.99v.01c0 1.51-1.32 2.53-3.3 2.53Zm5.17-.04a.94.94 0 0 1-.95-.95c0-.54.41-.95.95-.95.52 0 .95.41.95.95 0 .52-.43.95-.95.95Zm5.28.04c-2.04 0-3.53-1.43-3.53-4.3v-.01c0-2.77 1.34-4.44 3.54-4.44 1.64 0 2.87.95 3.12 2.25l.01.06h-1.74l-.02-.05c-.21-.5-.68-.86-1.37-.86-1.24 0-1.78 1.18-1.84 2.68l-.01.32h.03c.34-.79 1.17-1.36 2.31-1.36a2.64 2.64 0 0 1 2.75 2.74v.01c0 1.73-1.37 2.96-3.25 2.96Zm-1.57-2.92c0 .85.68 1.52 1.54 1.52s1.56-.66 1.56-1.5c0-.88-.66-1.5-1.54-1.5s-1.56.61-1.56 1.47v.01Zm10 2.78h-1.62v-6.29h2.22l1.64 4.1h.04l1.63-4.1h2.2v6.29H63v-4.2h-.04l-1.63 3.84h-1.18l-1.62-3.84h-.04v4.2Z"/>
  <path fill="#BBD7F7" d="M167.86 57.27c-1.91 0-3.17-1-3.28-2.46l-.01-.08h1.69l.01.06c.08.6.67 1.06 1.59 1.06.9 0 1.5-.49 1.5-1.18v-.01c0-.8-.61-1.25-1.63-1.25h-.97v-1.26h.95c.88 0 1.45-.47 1.45-1.16v-.01c0-.69-.48-1.1-1.31-1.1-.83 0-1.4.43-1.46 1.09v.05h-1.63v-.07c.12-1.46 1.31-2.43 3.09-2.43 1.82 0 2.99.9 2.99 2.23 0 1.06-.77 1.75-1.76 1.95v.04c1.25.11 2.07.84 2.07 1.99v.01c0 1.51-1.31 2.53-3.29 2.53Zm5.17-.04a.94.94 0 0 1-.95-.95c0-.54.42-.95.95-.95s.95.41.95.95c0 .52-.42.95-.95.95Zm5.21.04c-2.14 0-3.45-1.68-3.45-4.37v-.01c0-2.69 1.3-4.37 3.45-4.37 2.14 0 3.45 1.68 3.45 4.37v.01c0 2.7-1.3 4.37-3.45 4.37Zm0-1.42c1.05 0 1.66-1.1 1.66-2.95v-.01c0-1.86-.6-2.95-1.66-2.95-1.05 0-1.66 1.1-1.66 2.95v.01c0 1.86.6 2.95 1.66 2.95Zm8.54 1.28h-1.6v-6.29h2.21l1.64 4.1h.04l1.63-4.1h2.2v6.29h-1.61v-4.2h-.04l-1.63 3.84h-1.18l-1.62-3.85h-.04v4.2Z"/>
  <path fill="#fff" d="m221.12 28.63-5-2.89v5.77l5-2.88Zm-206.5 0 5 2.88v-5.77l-5 2.89Zm202-.5H19.12v1h197.5v-1Z"/>
  <path fill="#BBD7F7" d="m155.12 60.13 2.89-5h-5.78l2.89 5Zm0-47-2.89 5h5.78l-2.89-5Zm.5 42.5v-38h-1v38h1Z"/>
</svg>
