<svg xmlns="http://www.w3.org/2000/svg" fill="none" viewBox="0 0 315 110">
  <path stroke="#BBD7F7" stroke-linecap="round" stroke-linejoin="round" stroke-width="1.5" d="M261.13 90.98h13.7a2.41 2.41 0 0 0 2.42-2.4V40.14c0-4.84-4-8.75-8.88-8.75h-32.51a2.46 2.46 0 0 0-2.42 2.46v36.81"/>
  <path stroke="#BBD7F7" stroke-linecap="round" stroke-linejoin="round" stroke-width="1.5" d="M243.6 98.25c6.97 0 12.6-5.6 12.6-12.5 0-6.91-5.63-12.51-12.6-12.51-6.96 0-12.6 5.6-12.6 12.5 0 6.91 5.64 12.51 12.6 12.51Z"/>
  <path stroke="#BBD7F7" stroke-linecap="round" stroke-linejoin="round" stroke-width="1.5" d="M243.6 91.52a5.8 5.8 0 0 0 5.83-5.77 5.8 5.8 0 0 0-5.83-5.78 5.8 5.8 0 0 0-5.82 5.78 5.8 5.8 0 0 0 5.82 5.77ZM182.19 91.52a5.8 5.8 0 0 0 5.82-5.77 5.8 5.8 0 0 0-5.82-5.78 5.8 5.8 0 0 0-5.83 5.78 5.8 5.8 0 0 0 5.83 5.77Z"/>
  <path stroke="#BBD7F7" stroke-linecap="round" stroke-linejoin="round" stroke-width="1.5" d="M182.19 98.25c6.96 0 12.6-5.6 12.6-12.5 0-6.91-5.64-12.51-12.6-12.51s-12.6 5.6-12.6 12.5c0 6.91 5.64 12.51 12.6 12.51ZM252.07 40.14v12.7c0 3.09 2.54 5.6 5.64 5.6h19.53v-18.3h-25.18 0ZM254.38 65.18H259M261.1 80.4h16.14M259.01 48.2v10.25M74.3 98.25c6.95 0 12.6-5.6 12.6-12.5 0-6.91-5.65-12.51-12.6-12.51-6.97 0-12.61 5.6-12.61 12.5 0 6.91 5.64 12.51 12.6 12.51Z"/>
  <path stroke="#BBD7F7" stroke-linecap="round" stroke-linejoin="round" stroke-width="1.5" d="M80.11 85.75a5.8 5.8 0 0 1-5.82 5.77 5.8 5.8 0 0 1-5.82-5.77 5.8 5.8 0 0 1 5.82-5.78 5.8 5.8 0 0 1 5.82 5.78ZM105.47 98.25c6.96 0 12.6-5.6 12.6-12.5 0-6.91-5.64-12.51-12.6-12.51s-12.6 5.6-12.6 12.5c0 6.91 5.64 12.51 12.6 12.51Z"/>
  <path stroke="#BBD7F7" stroke-linecap="round" stroke-linejoin="round" stroke-width="1.5" d="M105.47 91.52a5.8 5.8 0 0 0 5.83-5.77 5.8 5.8 0 0 0-5.83-5.78 5.8 5.8 0 0 0-5.82 5.78 5.8 5.8 0 0 0 5.82 5.77ZM43.47 98.25c6.96 0 12.6-5.6 12.6-12.5 0-6.91-5.64-12.51-12.6-12.51s-12.6 5.6-12.6 12.5c0 6.91 5.64 12.51 12.6 12.51Z"/>
  <path stroke="#BBD7F7" stroke-linecap="round" stroke-linejoin="round" stroke-width="1.5" d="M43.47 91.52a5.8 5.8 0 0 0 5.83-5.77 5.8 5.8 0 0 0-5.83-5.78 5.8 5.8 0 0 0-5.82 5.78 5.8 5.8 0 0 0 5.82 5.77ZM220.62 77.77h-15.45c-2.59 0-4.7 2.09-4.7 4.66v6.62c0 2.58 2.11 4.66 4.7 4.66h15.45c2.6 0 4.7-2.08 4.7-4.66v-6.62c0-2.57-2.1-4.66-4.7-4.66ZM236.11 31.4V20.46s16.05-.3 24.98 10.9M116.92 71.6h53.82M193.64 71.6h21.33V12H12v59.6h20.02M12 61.18h202.97"/>
  <path fill="#BBD7F7" d="m215 17 12 2v43l-12 2V17Z"/>
  <path stroke="#BBD7F7" stroke-linecap="round" stroke-linejoin="round" stroke-width="1.5" d="M129.3 80.24h29.05M129.3 91.25h29.05M21.55 71.6v14.15M134.2 71.6v8.64M153.46 71.6v8.64"/>
  <path fill="#fff" d="M32.83 26.13v-6.84h-.03l-2.16 1.47v-1.57l2.19-1.52h1.75v8.46h-1.75Zm6.8.14c-1.92 0-3.17-1-3.29-2.46v-.08h1.68l.02.06c.07.6.67 1.06 1.58 1.06s1.5-.49 1.5-1.18v-.01c0-.8-.6-1.25-1.63-1.25h-.96v-1.26h.94c.89 0 1.46-.47 1.46-1.16v-.01c0-.69-.49-1.1-1.32-1.1-.82 0-1.39.43-1.46 1.09v.05h-1.63v-.07c.13-1.46 1.32-2.43 3.1-2.43 1.81 0 2.99.9 2.99 2.23 0 1.06-.78 1.75-1.77 1.95v.04c1.26.11 2.08.84 2.08 1.99v.01c0 1.51-1.32 2.53-3.3 2.53Zm5.17-.04a.94.94 0 0 1-.95-.95c0-.54.41-.95.95-.95.52 0 .95.41.95.95 0 .52-.43.95-.95.95Zm2.04-.1V24.9l2.99-2.8c1.09-1.01 1.32-1.43 1.32-2.01v-.01c0-.7-.53-1.19-1.28-1.19-.87 0-1.46.57-1.48 1.33v.05h-1.65v-.04c0-1.6 1.33-2.72 3.11-2.72 1.8 0 3.02 1.02 3.02 2.47 0 1.03-.49 1.7-1.94 3.04l-1.77 1.62v.07h3.83v1.4h-6.15Zm11.25 0h-1.61v-6.29h2.22l1.64 4.1h.04l1.63-4.1h2.2v6.29H62.6v-4.2h-.04l-1.63 3.84h-1.18l-1.62-3.84h-.04v4.2Z"/>
  <path fill="#BBD7F7" d="M164.72 55.13V53.9l2.99-2.8c1.08-1.01 1.31-1.43 1.31-2.01v-.01c0-.7-.53-1.19-1.28-1.19-.87 0-1.45.57-1.48 1.33v.05h-1.64v-.04c0-1.6 1.32-2.72 3.1-2.72 1.8 0 3.03 1.02 3.03 2.47 0 1.03-.49 1.7-1.95 3.04l-1.77 1.62v.07h3.83v1.4h-6.14Zm8.09.1a.94.94 0 0 1-.95-.95c0-.54.41-.95.95-.95.53 0 .95.41.95.95 0 .52-.42.95-.95.95Zm5.28.04c-2.04 0-3.53-1.43-3.53-4.3v-.01c0-2.77 1.34-4.44 3.54-4.44 1.64 0 2.87.95 3.12 2.25l.01.06h-1.74l-.02-.05c-.21-.5-.68-.86-1.37-.86-1.24 0-1.78 1.18-1.84 2.68l-.01.32h.03c.34-.79 1.17-1.36 2.31-1.36a2.64 2.64 0 0 1 2.76 2.74v.01c0 1.73-1.38 2.96-3.26 2.96Zm-1.57-2.92c0 .85.68 1.52 1.54 1.52.87 0 1.56-.66 1.56-1.5 0-.88-.66-1.5-1.54-1.5s-1.56.61-1.56 1.47v.01Zm10 2.78h-1.62v-6.29h2.22l1.64 4.1h.04l1.63-4.1h2.2v6.29h-1.61v-4.2h-.04l-1.63 3.84h-1.18l-1.61-3.85h-.05v4.2Z"/>
  <path fill="#fff" d="m213.12 30.63-5-2.89v5.77l5-2.88Zm-198.5 0 5 2.88v-5.77l-5 2.89Zm194-.5H19.12v1h189.5v-1Z"/>
  <path fill="#BBD7F7" d="m155.12 58.13 2.89-5h-5.78l2.89 5Zm0-43-2.89 5h5.78l-2.89-5Zm.5 38.5v-34h-1v34h1Z"/>
</svg>
