<svg xmlns="http://www.w3.org/2000/svg" fill="none" viewBox="0 0 315 110">
  <path stroke="#BBD7F7" stroke-linecap="round" stroke-linejoin="round" stroke-width="1.5" d="M199.75 90.32a12.38 12.38 0 0 0 6.64-16.23 12.45 12.45 0 0 0-16.27-6.63 12.38 12.38 0 0 0-6.65 16.24 12.45 12.45 0 0 0 16.28 6.62Z"/>
  <path stroke="#BBD7F7" stroke-linecap="round" stroke-linejoin="round" stroke-width="1.5" d="M194.93 84.6a5.74 5.74 0 1 0 .02-11.46 5.74 5.74 0 0 0-.02 11.47ZM169.35 90.32A12.38 12.38 0 0 0 176 74.09a12.44 12.44 0 0 0-16.28-6.62 12.38 12.38 0 0 0-6.64 16.23 12.45 12.45 0 0 0 16.28 6.62Z"/>
  <path stroke="#BBD7F7" stroke-linecap="round" stroke-linejoin="round" stroke-width="1.5" d="M164.53 84.6a5.73 5.73 0 1 0 .02-11.46 5.73 5.73 0 0 0-.02 11.47ZM48.85 85.02A8.14 8.14 0 0 0 33 81.29a8.14 8.14 0 0 0 15.85 3.73Z"/>
  <path stroke="#BBD7F7" stroke-linecap="round" stroke-linejoin="round" stroke-width="1.5" d="M41.92 83.16a1 1 0 1 1-2 0 1 1 0 0 1 2 0ZM69.52 88.9a8.1 8.1 0 0 0 0-11.48 8.16 8.16 0 0 0-11.52 0 8.1 8.1 0 0 0 0 11.48 8.16 8.16 0 0 0 11.52 0ZM94.52 85a8.14 8.14 0 0 0-15.85-3.7A8.14 8.14 0 0 0 94.52 85ZM115.2 88.9a8.1 8.1 0 0 0 0-11.48 8.16 8.16 0 0 0-11.52 0 8.1 8.1 0 0 0 0 11.48 8.16 8.16 0 0 0 11.52 0ZM122.28 75.58h11.5l13.4-22.25h60.18v7.58H151.2l-13.4 22.25h-13.91"/>
  <path stroke="#BBD7F7" stroke-linecap="round" stroke-linejoin="round" stroke-width="1.5" d="M64.77 83.16a1 1 0 1 1-2 0 1 1 0 0 1 2 0ZM87.6 83.16a1 1 0 1 1-2 0 1 1 0 0 1 2 0ZM110.44 83.16a1 1 0 1 1-2 0 1 1 0 0 1 2 0ZM26.29 75.58h-6.81c-6.52 0-7.48 7.58-7.48 7.58h13.49"/>
  <path stroke="#BBD7F7" stroke-linecap="round" stroke-linejoin="round" stroke-width="1.5" d="M19.48 75.58 15.2 41.87H12v41.29M49.38 32.15S51.92 21.07 53.54 15h20.51M104.03 55.65v-5.78l-4-3.25v-4.1c0-3.12-2.16-5.66-5.67-6.4l-18.78-3.97-4.07 4.72h-9l-4.07-4.72h-9.05l-6.8 6.79v11.55M68.05 63.92h7.57l4.44 3.9M99 71.36a5.03 5.03 0 1 1-.01-10.07 5.03 5.03 0 0 1 0 10.07ZM59.47 62.56a6.98 6.98 0 1 1-13.96-.02 6.98 6.98 0 0 1 13.96.02ZM58.32 15v17.15M71.16 15l4.42 17.15M77.95 55.78H66.83"/>
  <path stroke="#BBD7F7" stroke-linecap="round" stroke-linejoin="round" stroke-width="1.5" d="m66.37 69.69.34-.68a15.6 15.6 0 0 0-14.23-22.04 15.6 15.6 0 0 0-13.92 22.68M110.41 69.48A11.83 11.83 0 0 0 99 54.53a11.83 11.83 0 0 0-11.41 14.95"/>
</svg>
