<svg xmlns="http://www.w3.org/2000/svg" fill="none" viewBox="0 0 315 110">
  <path stroke="#BBD7F7" stroke-linecap="round" stroke-linejoin="round" stroke-width="1.5" d="M287.45 88.82h13.22c1.34 0 2.44-1.1 2.44-2.45v-49.3a8.99 8.99 0 0 0-8.97-8.95H268.7a2.45 2.45 0 0 0-2.44 2.44v33.88"/>
  <path stroke="#BBD7F7" stroke-linecap="round" stroke-linejoin="round" stroke-width="1.5" d="M273.98 95.26a12.72 12.72 0 1 0-9.75-23.52 12.72 12.72 0 1 0 9.75 23.52Z"/>
  <path stroke="#BBD7F7" stroke-linecap="round" stroke-linejoin="round" stroke-width="1.5" d="M269.1 89.37a5.88 5.88 0 1 0 0-11.77 5.88 5.88 0 0 0 0 11.77ZM198.18 89.37a5.88 5.88 0 1 0 0-11.76 5.88 5.88 0 0 0 0 11.76Z"/>
  <path stroke="#BBD7F7" stroke-linecap="round" stroke-linejoin="round" stroke-width="1.5" d="M210.77 85.53a12.73 12.73 0 1 0-25.14-4.05 12.73 12.73 0 0 0 25.14 4.05ZM167.02 89.37a5.88 5.88 0 1 0 0-11.77 5.88 5.88 0 0 0 0 11.77Z"/>
  <path stroke="#BBD7F7" stroke-linecap="round" stroke-linejoin="round" stroke-width="1.5" d="M179.43 86.39a12.74 12.74 0 0 0-24.81-5.8 12.74 12.74 0 0 0 24.81 5.8ZM81.4 89.37a5.88 5.88 0 1 0 0-11.77 5.88 5.88 0 0 0 0 11.77Z"/>
  <path stroke="#BBD7F7" stroke-linecap="round" stroke-linejoin="round" stroke-width="1.5" d="M93.67 86.93a12.74 12.74 0 0 0-24.54-6.88 12.74 12.74 0 0 0 24.54 6.88ZM50.25 89.37a5.88 5.88 0 1 0 0-11.76 5.88 5.88 0 0 0 0 11.76Z"/>
  <path stroke="#BBD7F7" stroke-linecap="round" stroke-linejoin="round" stroke-width="1.5" d="M62.83 85.52a12.73 12.73 0 1 0-25.14-4.04 12.73 12.73 0 0 0 25.14 4.04ZM277.66 37.08V50c0 3.14 2.57 5.7 5.7 5.7h19.75V37.08h-25.46.01ZM279.99 62.56h4.7M288.95 78.06h14.16M284.68 45.28V55.7M245.03 76.28h-21.76a4.74 4.74 0 0 0-4.75 4.75v3.04a4.74 4.74 0 0 0 4.75 4.75h21.75a4.75 4.75 0 0 0 4.75-4.75v-3.04a4.75 4.75 0 0 0-4.75-4.75ZM105.67 75.87l9.16 8.13H141M209.5 68.89h48.78V10H132.52v58.89h23.18M92.72 68.89h27.04V10H11.89v58.89h27.04"/>
  <path fill="#fff" d="m118 29.61-5-2.89v5.78l5-2.89Zm-103.5 0 5 2.89v-5.78l-5 2.9Zm99-.5H19v1h94.5v-1ZM27.04 24.11l3.64-7.01v-.04h-4.3v-1.4h6.04v1.42L28.9 24.1h-1.85Zm6.16.1a.94.94 0 0 1-.95-.95c0-.53.42-.95.95-.95s.95.42.95.95-.42.95-.95.95Zm5.08.05c-1.92 0-3.17-1.01-3.3-2.47v-.08h1.69l.01.07c.08.6.68 1.05 1.59 1.05.9 0 1.5-.48 1.5-1.17v-.02c0-.8-.61-1.25-1.63-1.25h-.97v-1.26h.95c.88 0 1.46-.47 1.46-1.15v-.02c0-.68-.49-1.1-1.32-1.1-.83 0-1.4.44-1.46 1.1V18h-1.63v-.08c.12-1.46 1.31-2.42 3.09-2.42 1.82 0 3 .89 3 2.22v.01c0 1.06-.78 1.74-1.77 1.95v.03c1.25.12 2.07.85 2.07 2 0 1.52-1.31 2.54-3.28 2.54Zm4.85-.15 3.64-7.01v-.04h-4.3v-1.4h6.04v1.42l-3.53 7.03h-1.85Zm10.43 0h-1.6v-6.28h2.21l1.64 4.1h.04l1.63-4.1h2.2v6.28h-1.61v-4.2h-.04l-1.63 3.85h-1.18L53.6 19.9h-.04v4.2Z"/>
  <path fill="#BBD7F7" d="M82.6 54.11V52.9l2.99-2.8c1.09-1.02 1.31-1.43 1.31-2.02v-.01c0-.7-.53-1.18-1.28-1.18-.87 0-1.45.56-1.48 1.33v.05H82.5v-.05c0-1.6 1.32-2.71 3.1-2.71 1.8 0 3.03 1.02 3.03 2.46v.01c0 1.03-.49 1.7-1.95 3.04l-1.77 1.61v.07h3.83v1.41H82.6Zm8.09.1a.94.94 0 0 1-.95-.95c0-.53.42-.95.95-.95s.95.42.95.95-.42.95-.95.95Zm5.2-8.7c2.05 0 3.54 1.43 3.54 4.3 0 2.78-1.35 4.45-3.55 4.45-1.63 0-2.86-.95-3.12-2.26v-.05h1.74l.02.05c.2.5.68.85 1.37.85 1.23 0 1.77-1.18 1.84-2.67v-.32h-.03c-.33.78-1.16 1.36-2.3 1.36a2.64 2.64 0 0 1-2.76-2.75c0-1.74 1.38-2.96 3.26-2.96Zm.01 4.4c.89 0 1.57-.62 1.57-1.48a1.5 1.5 0 0 0-1.55-1.51c-.86 0-1.56.65-1.56 1.48v.02c0 .87.67 1.49 1.54 1.49Zm8.61 4.2h-1.61v-6.28h2.22l1.64 4.1h.04l1.63-4.1h2.2v6.28h-1.61v-4.2h-.04l-1.63 3.85h-1.18l-1.62-3.85h-.04v4.2ZM75 57.11l2.89-5H72.1l2.89 5Zm0-43-2.89 5h5.78l-2.89-5Zm.5 38.5v-34h-1v34h1Z"/>
  <path fill="#fff" d="m256.5 29.61-5-2.89v5.78l5-2.89Zm-121.5 0 5 2.89v-5.78l-5 2.9Zm117-.5H139.5v1H252v-1ZM150.4 24.26c-2.02 0-3.41-1-3.41-2.46v-.01c0-1.1.81-1.9 1.95-2.13v-.03c-.98-.24-1.64-.95-1.64-1.85v-.02c0-1.3 1.27-2.25 3.1-2.25 1.82 0 3.1.95 3.1 2.26 0 .9-.67 1.62-1.65 1.86v.03c1.14.23 1.95 1.03 1.95 2.13v.01c0 1.46-1.39 2.46-3.4 2.46Zm0-5.16c.8 0 1.34-.48 1.34-1.16v-.01c0-.67-.55-1.14-1.34-1.14-.8 0-1.36.47-1.36 1.14v.01c0 .68.56 1.16 1.36 1.16Zm0 3.87c.92 0 1.57-.54 1.57-1.29 0-.76-.64-1.3-1.57-1.3-.94 0-1.58.54-1.58 1.3 0 .75.65 1.29 1.58 1.29Zm5.25 1.24a.94.94 0 0 1-.95-.95c0-.53.41-.95.95-.95.52 0 .95.42.95.95s-.43.95-.95.95Zm3.69-.1v-6.83h-.04l-2.15 1.46v-1.57l2.18-1.51h1.76v8.45h-1.75Zm6.8.15c-1.92 0-3.17-1.01-3.3-2.47v-.08h1.69l.01.07c.08.6.68 1.05 1.59 1.05.9 0 1.5-.48 1.5-1.17v-.02c0-.8-.61-1.25-1.63-1.25h-.97v-1.26h.95c.88 0 1.46-.47 1.46-1.15v-.02c0-.68-.5-1.1-1.32-1.1-.83 0-1.4.44-1.46 1.1V18h-1.63v-.08c.12-1.46 1.31-2.42 3.09-2.42 1.82 0 3 .89 3 2.22v.01c0 1.06-.78 1.74-1.77 1.95v.03c1.25.12 2.07.85 2.07 2 0 1.52-1.31 2.54-3.28 2.54Zm8.42-.15h-1.62v-6.28h2.22l1.64 4.1h.04l1.63-4.1h2.2v6.28h-1.6v-4.2h-.05l-1.62 3.85h-1.19l-1.61-3.85h-.04v4.2Z"/>
  <path fill="#BBD7F7" d="M226.24 54.26c-1.91 0-3.17-1.01-3.28-2.47v-.08h1.68l.01.07c.08.6.67 1.05 1.59 1.05.9 0 1.5-.48 1.5-1.17v-.02c0-.8-.61-1.25-1.63-1.25h-.97v-1.26h.95c.88 0 1.45-.47 1.45-1.15v-.02c0-.68-.48-1.1-1.31-1.1-.83 0-1.4.44-1.46 1.1V48h-1.63v-.08c.12-1.46 1.31-2.42 3.09-2.42 1.82 0 3 .89 3 2.22v.01c0 1.06-.78 1.74-1.77 1.95v.03c1.25.12 2.07.85 2.07 2 0 1.52-1.31 2.54-3.29 2.54Zm8.42-.15h-1.6v-6.28h2.21l1.64 4.1h.04l1.63-4.1h2.2v6.28h-1.61v-4.2h-.04l-1.62 3.85h-1.19l-1.61-3.85h-.05v4.2ZM215.5 57.11l2.89-5h-5.78l2.89 5Zm0-43-2.89 5h5.78l-2.89-5Zm.5 38.5v-34h-1v34h1Z"/>
  <path stroke="#BBD7F7" stroke-linecap="round" stroke-linejoin="round" stroke-width="1.5" d="M11.9 59.82h107.86M132.52 59.82h125.76M21.34 68.89v14.6"/>
</svg>
