<svg xmlns="http://www.w3.org/2000/svg" fill="none" viewBox="0 0 315 110">
  <path stroke="#BBD7F7" stroke-linecap="round" stroke-linejoin="round" stroke-width="1.5" d="M260.9 90.75h13.68a2.4 2.4 0 0 0 2.42-2.4v-48.3a8.8 8.8 0 0 0-8.86-8.71h-32.5a2.46 2.46 0 0 0-2.4 2.45v36.7"/>
  <path stroke="#BBD7F7" stroke-linecap="round" stroke-linejoin="round" stroke-width="1.5" d="M243.39 98c6.95 0 12.6-5.58 12.6-12.47 0-6.89-5.65-12.47-12.6-12.47-6.95 0-12.6 5.58-12.6 12.47 0 6.89 5.65 12.47 12.6 12.47Z"/>
  <path stroke="#BBD7F7" stroke-linecap="round" stroke-linejoin="round" stroke-width="1.5" d="M243.39 91.3a5.79 5.79 0 0 0 5.82-5.77c0-3.18-2.6-5.76-5.82-5.76a5.79 5.79 0 0 0-5.82 5.76c0 3.18 2.6 5.76 5.82 5.76ZM182.03 91.3a5.79 5.79 0 0 0 5.82-5.77c0-3.18-2.6-5.76-5.82-5.76a5.79 5.79 0 0 0-5.82 5.76c0 3.18 2.6 5.76 5.82 5.76Z"/>
  <path stroke="#BBD7F7" stroke-linecap="round" stroke-linejoin="round" stroke-width="1.5" d="M182.03 98c6.95 0 12.6-5.58 12.6-12.47 0-6.89-5.65-12.47-12.6-12.47-6.95 0-12.6 5.58-12.6 12.47 0 6.89 5.65 12.47 12.6 12.47ZM251.85 40.05v12.68a5.63 5.63 0 0 0 5.63 5.58H277V40.05h-25.15 0ZM254.15 65.02h4.64M260.86 80.2H277M258.79 48.09V58.3M74.23 98c6.96 0 12.6-5.58 12.6-12.47 0-6.89-5.64-12.47-12.6-12.47-6.95 0-12.59 5.58-12.59 12.47 0 6.89 5.64 12.47 12.6 12.47Z"/>
  <path stroke="#BBD7F7" stroke-linecap="round" stroke-linejoin="round" stroke-width="1.5" d="M80.05 85.53c0 3.18-2.6 5.76-5.82 5.76a5.79 5.79 0 0 1-5.81-5.76c0-3.18 2.6-5.76 5.81-5.76a5.79 5.79 0 0 1 5.82 5.76ZM105.39 98c6.95 0 12.59-5.58 12.59-12.47 0-6.89-5.64-12.47-12.6-12.47-6.95 0-12.58 5.58-12.58 12.47 0 6.89 5.63 12.47 12.59 12.47Z"/>
  <path stroke="#BBD7F7" stroke-linecap="round" stroke-linejoin="round" stroke-width="1.5" d="M105.39 91.3a5.79 5.79 0 0 0 5.81-5.77c0-3.18-2.6-5.76-5.81-5.76a5.79 5.79 0 0 0-5.82 5.76c0 3.18 2.6 5.76 5.82 5.76ZM43.45 98c6.95 0 12.59-5.58 12.59-12.47 0-6.89-5.64-12.47-12.6-12.47-6.95 0-12.59 5.58-12.59 12.47 0 6.89 5.64 12.47 12.6 12.47Z"/>
  <path stroke="#BBD7F7" stroke-linecap="round" stroke-linejoin="round" stroke-width="1.5" d="M43.45 91.3a5.79 5.79 0 0 0 5.81-5.77c0-3.18-2.6-5.76-5.81-5.76a5.79 5.79 0 0 0-5.82 5.76c0 3.18 2.6 5.76 5.82 5.76ZM220.43 77.58h-15.44c-2.59 0-4.69 2.08-4.69 4.64v6.6c0 2.57 2.1 4.66 4.7 4.66h15.43c2.59 0 4.69-2.09 4.69-4.65v-6.6c0-2.57-2.1-4.65-4.7-4.65ZM235.9 31.34v-10.9s16.03-.3 24.96 10.87M116.83 71.43h53.76M193.47 71.43h29.3V12H12v59.43h20M12 61.04h210.78M129.2 80.04h29.02M129.2 91.02h29.02M21.54 71.43v14.1M134.09 71.43v8.61M153.33 71.43v8.61"/>
  <path fill="#fff" d="M32.82 26.12v-6.83h-.04l-2.16 1.46v-1.57l2.19-1.52h1.76v8.46h-1.75Zm6.8.15c-1.92 0-3.18-1.01-3.3-2.47v-.08H38v.07c.08.6.68 1.05 1.6 1.05.9 0 1.49-.48 1.49-1.18 0-.82-.6-1.26-1.62-1.26h-.97v-1.26h.94c.89 0 1.46-.47 1.46-1.15v-.02c0-.68-.48-1.1-1.32-1.1-.82 0-1.38.44-1.45 1.1l-.01.04h-1.62v-.07c.12-1.46 1.3-2.42 3.08-2.42 1.83 0 3 .89 3 2.22v.01c0 1.06-.77 1.74-1.77 1.95v.03c1.26.12 2.08.85 2.08 2 0 1.52-1.31 2.54-3.29 2.54Zm5.16-.05a.94.94 0 0 1-.95-.95c0-.53.42-.95.95-.95s.95.42.95.95-.42.95-.95.95Zm5.28.05c-2.04 0-3.53-1.44-3.53-4.3v-.02c0-2.77 1.34-4.43 3.55-4.43 1.63 0 2.86.94 3.11 2.25l.02.06h-1.75l-.02-.06c-.2-.5-.68-.85-1.37-.85-1.24 0-1.77 1.18-1.84 2.67l-.01.32h.03c.34-.78 1.17-1.36 2.31-1.36a2.64 2.64 0 0 1 2.76 2.75c0 1.74-1.38 2.97-3.26 2.97Zm-1.57-2.92c0 .85.68 1.51 1.55 1.51.86 0 1.55-.66 1.55-1.49v-.01c0-.88-.66-1.5-1.54-1.5s-1.56.62-1.56 1.48Zm10 2.77h-1.62v-6.28h2.22l1.64 4.1h.04l1.63-4.1h2.2v6.28H63v-4.2h-.05l-1.62 3.85h-1.19l-1.61-3.85h-.04v4.2Z"/>
  <path fill="#BBD7F7" d="M164.58 54.9v-1.2l2.98-2.8c1.1-1.02 1.32-1.43 1.32-2.02v-.01c0-.7-.53-1.19-1.28-1.19-.87 0-1.45.57-1.48 1.33v.06h-1.64v-.05c0-1.6 1.32-2.71 3.1-2.71 1.8 0 3.03 1.02 3.03 2.46v.01c0 1.03-.5 1.7-1.95 3.04l-1.77 1.61v.07h3.83v1.4h-6.14Zm8.09.1a.94.94 0 0 1-.95-.94c0-.53.41-.95.95-.95.53 0 .95.42.95.95s-.42.95-.95.95Zm5.28.06c-2.04 0-3.53-1.44-3.53-4.3v-.02c0-2.77 1.34-4.43 3.55-4.43 1.63 0 2.86.94 3.11 2.25l.01.06h-1.74l-.02-.06c-.21-.5-.68-.85-1.37-.85-1.24 0-1.78 1.18-1.84 2.67l-.01.32h.03c.34-.78 1.17-1.36 2.31-1.36a2.64 2.64 0 0 1 2.76 2.75c0 1.74-1.38 2.97-3.26 2.97Zm-1.57-2.92c0 .85.68 1.51 1.54 1.51.87 0 1.56-.66 1.56-1.49v-.01c0-.88-.66-1.5-1.54-1.5s-1.56.61-1.56 1.48Zm10 2.77h-1.62v-6.28h2.22l1.64 4.1h.04l1.63-4.1h2.2v6.28h-1.61v-4.2h-.04l-1.63 3.85h-1.18l-1.62-3.85h-.04v4.2Z"/>
  <path fill="#fff" d="m220.93 30.57-5-2.89v5.78l5-2.89Zm-206.31 0 5 2.89v-5.78l-5 2.9Zm201.8-.5H19.13v1h197.3v-1Z"/>
  <path fill="#BBD7F7" d="m154.99 58 2.88-5h-5.77l2.89 5Zm0-42.88-2.89 5h5.77l-2.88-5Zm.5 38.37V19.62h-1v33.87h1Z"/>
</svg>
