<svg xmlns="http://www.w3.org/2000/svg" fill="none" viewBox="0 0 24 24">
  <mask id="a" width="24" height="24" x="0" y="0" maskUnits="userSpaceOnUse" style="mask-type:alpha">
    <path fill="#D9D9D9" d="M0 0h24v24H0z"/>
  </mask>
  <g mask="url(#a)">
    <path fill="#fff" d="m7.82 13 4.9 4.9c.2.2.3.43.3.7a1 1 0 0 1-.32.7c-.2.18-.43.28-.7.29a.92.92 0 0 1-.7-.29l-6.6-6.6a.88.88 0 0 1-.21-.32 1.1 1.1 0 0 1 0-.75.88.88 0 0 1 .21-.33l6.6-6.6a.93.93 0 0 1 .69-.27.97.97 0 0 1 1.01.99c0 .27-.1.5-.3.7L7.82 11H19c.28 0 .52.1.71.29.2.19.29.43.29.71 0 .28-.1.52-.29.71-.19.2-.43.29-.71.29H7.82Z"/>
  </g>
</svg>
