<svg xmlns="http://www.w3.org/2000/svg" fill="none" viewBox="0 0 80 80">
  <path stroke="#BBD7F7" stroke-linecap="round" stroke-linejoin="round" stroke-width="2" d="M63.4 48.23v12.74L41.35 72 17.9 60.97V48.36M17.9 36.17l23.44 9.65 22.07-9.65M41.34 45.82V72"/>
  <path stroke="#BBD7F7" stroke-linecap="round" stroke-linejoin="round" stroke-width="2" d="m41.34 45.82-6.9 10.33L11 45.13l6.9-8.96M63.4 36.17l6.21 8.96-20.68 10.33-7.59-9.64M21.7 25.39l-10.4 3.46 6.6 7.32M26.17 33.41l-8.27 2.76M63.4 36.17l-8.27-2.76M59.39 25.32 70 28.85l-6.6 7.32M55.35 12.93V29.1l-14.37 6.36-15.27-6.36V12.93"/>
  <path stroke="#BBD7F7" stroke-linecap="round" stroke-linejoin="round" stroke-width="2" d="m25.71 12.93 15.27 6.29 14.37-6.29M40.98 19.22v16.23M55.35 12.93 40.53 8l-14.82 4.93"/>
</svg>
