<svg xmlns="http://www.w3.org/2000/svg" fill="none" viewBox="0 0 80 80">
  <path stroke="#BBD7F7" stroke-miterlimit="10" stroke-width="2" d="M57.27 13.64h8.83c2.8 0 5.1 2.3 5.1 5.1V66.1c0 2.8-2.3 5.1-5.1 5.1H13.9c-2.8 0-5.1-2.3-5.1-5.1V18.74c0-2.8 2.3-5.1 5.1-5.1h8.83M30.46 13.64h19.09M12.69 27.68H67.2"/>
  <path stroke="#BBD7F7" stroke-miterlimit="10" stroke-width="2" d="M53.4 45.26v-8.1h8.1M35.95 45.26v-8.1h8.1M18.5 45.26v-8.1h8.1M35.95 61.72v-8.1h8.1M53.4 61.72v-8.1h8.1M18.5 61.72v-8.1h8.1"/>
  <path stroke="#BBD7F7" stroke-linecap="round" stroke-miterlimit="10" stroke-width="2" d="M53.4 18.48V8.8M26.6 8.8v9.68"/>
</svg>
