<svg xmlns="http://www.w3.org/2000/svg" fill="none" viewBox="0 0 874 511">
  <path fill="#213858" d="m690.34 434.64.25.97.93.17-1.13.46-1.42 1.42-.15.84.34 1.18.64.63-.1.77-.49.13.05.46-.7.52-.38 1.39-1.43 1.12-.15.8-.63.55.44.87-.6.49-1.47 4.87.2.42-1.72 3.02.1 1.01-.64.28-1.57 2.26-.88.35.2.59-.4.42-2 1-1.97 3.62.04 3.24-.78.49.3 1-1.43-.66-.35.42-.39-.14-.4-1.05.45-.83-1.08-2.16-.79-.73-3.29-1.5-1.52-1.56-.15-1.11-1.13-2.37-1.87-1.18.8-.6-.26-.59.6-.76-.15-.46.44-.97.44-.07-.1-1.12-.49-.1.44-.31-.14-1.22.53-.67v-1.14l1.38-.28-.34-.35.5-.14.63-1.25 1.33-1.08-.6-.1 1.48-1.12.05-.66.54-.56.3.07 2.45-3.3 2.66-1.67.2-1.08 1.91-2.12 2.31-.8 2.56-.42.88-1.14 2.06-.46 1.82 1.4 2.85.59ZM868.7 137.29l-8.7 2.85-15.97 4.73-6.04 2.72-14.14-.42-5.16-2.47-.98-6.1-4.28-4.8-1.47-4.38-2.85.52-9.63-6.54-6.69-.97-5.35-3.27-4.67-.35-2.16 1.01-6.14-1.08-4.52-6.68 1.52-3.27-3.59-1.46-.78-2.54 1.04-1.67-1.82-3.1-1.72-2.5-2.76-2.05-.29-2.26-.93-5.26-2.6-3.72-2.66-6.78-7.12-9.81-7.23-5.7-3.78-1.5-7.08.03-9.82-3.52-2.31-1.52-5.95-.77-5.75.35-2.94.97-2.76-.17-8.05.73-3.15-.03-5.26 1.53-6.43.73-3.1.8-4.22 2.82-1.08 7.23 3.43 2.65-5.35 11.47-10.07 12.63-1.48 1.6-3.04 12.87-5.26 1.77-13.07 5.77-2.36 1.67-5.35-1.91-2.95-.03-4.67-1.4-3.54-1.88-8.4 16.25-4.18 4 .05 3.9-4.52 1.35.94 3.72 5.15 3.9 4.62-3.03 7.81-.35 4.37 1.36 3.79 2.57 2.6-2.26 4.08-3.55 5.9.35 3.24.04 4.22 2.92 4.97 1.56 2.85 4.04 6.87 7.58-.44 4.42-5.25-.18-6.1-2.71-7.51.56-3.98.87-1.92 1.35-9.63 4.11-8.65.49-3 1.18-2.55 2.02-6.29 7.02-5.1 2.61-5.56.6-2.75-.18-7.27 1.67-1.57 1.74-4.77 3.02-3.68 1.5-2.36 1.46-2.36-.66-4.86-.14-5.4-1.05-4.72-2.67-7.52-.18-2.11 1.6-2.6 3.4-.6 1.92-1.86 3.41 4.08 4.42 2.6.59 1.42 3.65-2.75.49-4.81 3.13-5.4 1.77-4.92 3.97-1.13 1.73-4.13 2.82-2.6 1.22-4.57.18-4.08 2.08-3.98.66-4.32-.45-2.65.63-3.69-.63-4.13-.07-4.66.66-6.59-.66-2.65 1.43-8.35 1.32-12.58 4.1-7.67 3-4.62 1.25-5.84-.25.1-2.99-9.73 1.05-7.72-1.36-4.96-1.6-3.39-1.5-4.67-.06-5.01-1.08-3.54-3.48-12.92-2.33-9 .17-4.12-.2-7.13 1.04-17.83-.9-3.3-.63-6.97-.73c-1.32-.14-2.95-.52-4.22-.52-1.41 0-2.57.92-4.32.9l-3.69-.42-4.42.35-.6-2.3-2.4-1.73-1.18-1.6-2.55-1.94-.2-1.88-3.14-5.32-1.57-2.9-2.95-.75 1.13-3.45h-7.07l-3.34-.83-1.72-1.43-5.4-3.02-6.88-3.24-3-1.08-6.3-.76-9.92-.42-5.1-.31-12.68-1.88-4.81-2.54-1.87-1.98.59-2.78 2.26-2.75 1.67-6.86 1.18-4.87-4.72-4.41-3.93-7.24-1.72-2.53-11.05-5.92-11.45-1.32-6.14-5.18-5.25-1.08-7.87-8.21-4.07-1.05-7.81 9.36-5.36 1.64-2.85-.21-3.98 1.18-1.77 4.34-.98 2.2.83 6.3 1.53 2.15-1.87 2.75-.69 1.94-8.1 2.79-2.56-.56-1.43-1.43-3.63-.06-3.1.13-3.39.07-13.56-3.2-1.32 2.96-.7 2.02-1.17 1.84-.98 3.4-3 4.91-.34 2.93-1.23 7.4 3.04 1.6-.53 1.85-1.53 1.56-3.34-1.63-9-1.71-10.5 3.2-12 1.67-.29 3.03 5.31 2.75-.83 1.8.98 4.67 1.52 4.45 3.24 5.22.44 4.31-2.65 3.48-4.76.94-.69 5.5-5.2 5.56-2.51 3.1-7.47.83-12.53 6.92-5.65 1.88-4.71 1.08-7.17-.87-3.74 2.78-16.36 4.56-3.2-.7-2.84 1.57-3.34-.1-2.8.06-3.84 3.2-8.74 6.27.4 1.74-1.38 1.7L0 264.05l.2 2.5 5.55 8.25.79-1.7 3.43.1 6.05 6.05 3 5.36 1.71 5.67-6.53 1.11-3.24 1.5 11.5 1.98 2.15.6 3.79 1.8L39 308.51l2.46-.6 20.4 7.07 1.32 3.26 1.42 2.5 5.5 3.31 4.58 5.43-2.5 2.96v3.27l1.56 2.05 5.21 3.55 3.2.14.54 7.13-6.73 2.88-2.95 4.1.83 4.56 4.28 2.1 6.38 5.7 9.1 4.34 5.35 1.12 3.24 1.94 8.2 1.36L114 374l8.06 4 4.27.98 6.04 3.55 18.28 5.66 3.2 5.5 3.87 1.43 7.18-.08 52.37 9.15-.59 4.74 4.57-2.47 4.86-4.94 14.1.18 4.37-.11 7.96-.49 10.52 3.76 7.22-.7 6.64-5.5 7.32-4.1 6.58-2.08 9.04-5.84L309 390l5.3-2.23 26.39 9.98 3.29-1.5 2.66 1.57 11.3 10.37 1.17 7.4.2 2.16-4.28 9.12-2.45 2.95-6.69 3.07-1.91 4.8-1.97 2.36 2.6 5.05-1.52 3.58 3.4-1.85 3.58-1 6.73.07 3.34.48.64 9.47 6.58.62-.3 4.18.94 2.74-1.62 1.67 10.32 4.04 11.94 3.55 8.06 4.59 4.91-.98 7.62-12.83 16.5-2.37 3.34-.8 2.36 1.88 2.22 1.18 1.91-3.34 3.59 1.32 5.16-1.74 1.96-1.04 16.36-.49 8.65 4.28 6.83 8.6 22.16.55 8.74 3.65 6.58 3.86-.68 1.74 11.05 6.16 2.8-9.67 3.69-1.7 3.04-.8 2.22.48 9.62-3.27 9.73-.56 13.37-7.23 1.62-1.88 1.37-1.46 21.08-.52 4.08.28 8.9-.9 21.07-11.6 30.27-23.37-2.9-.76 4.67-4.04 11.93-14.23 4.13-3.34 9.78-12.87 2.5-2.71-1.52-2.37 3.83-3.16 2.06-1.05-6.38-.9-7.28-4.04-6.98.76 4.28-3.4a49.25 49.25 0 0 0 5.65-2.02c.59-.24 1.47-1.05 2.16-1.12l5.7-1.28-.99-2.12-1.67-1.74-7.02-4-2.21-2.2 2.9-1.17 4.67 1.77 4.27-.04-1.08-2.08-1.77-1.36-4.42-2.64-.64-1.77-6.74-2.61.15-3.1-3.3-6.96-4.9-7.75-.9-2.47-3.82-1.57-5.31-1.67-6.73-3.62 2.8-2.99.5-1.98 2.3-1.7 6.44-4 .54-1.95 13.86-8.8 2.16-1.18 8.5-2.58 5.9.53-3.34-8-17.15-4.6-6.39 3.2-3 1.75-13.85 3.02-2.65-1.74 5.36-3.9-4.38-3.96-7.51-1.99-6.3-.87c-1.27-.55-4.12-1.7-5.99-4l10.17-6.88 5.9-1.47 4.82-1.45 2.5-3.55 3.88-3.8c0-1.18.15-1.04 1.62-1.45 1.13-.32 3.88-.98 4.32-1.78.93-.17 2.21-.34 3.05-.73l9.63-7.5 5.01-3.28 5.45 1.11 2.5-.07 1.09-1.56 2.01 2.44-4.12 22.4 16.35-6.65 22.6-7.02 9-5.43 21.37-12.03 23.43.73 2.22-3.44-3.05-2.48-.2-2.18 3.44-.8 6.2-.08 3.04-.45 11.54-8.77 6.93.07 3.83 1.4-.4-2.34 4.77-1.28 3.94-2.02 1.9-8.04.9-6.74-2.7-8.63 5.35-4.28 8.3-3.48 1.82 4-1.03 3.06 2.9 1.77 3.49.88 1.96-1.92 3.93-4.7 1.62-3.09 8.26-10.12 2.7-7.8 2.36-2.67.1-2.47 2.26-7.45 4.47-1.8.83-8.7-2.3-5.5h-.01Zm-407.5 315.19-.4-.35-.77.14-.3.56-.64.07-.83.63-.74.03.69-.04.83-.62.69-.1.3-.53.78-.17.39.35 1.08.1.05.04-1.13-.11Zm-4.52 2.05-.92.73-.01-.03.88-.73.94-.42-.89.45Zm73.4 35.1-.44-.94-.64.63-1.03.14-.1.6.6.13.04 1.08-.34-.8-3.1-.94-.83.14v.31l-.54.18-1.67-.39-.5.67-1.47.52-.64.03-.49-.49-1.33.53-.4-.42-.19.52-.05-.35-1.42-.41-1.33.1-1.08.52-.2 1.08-.34.07-.55-.35-.58.18-.64-.42-.64.14-.34-.38-.64.17-.05.42-.54.07-.84.73.4.56 1.17-.42.1.49-.54.04-.83.76-2.5.73-3.8 2.23h-.73l-.79.9-.1.9h.5l.25.43-.99.7.7 1.73-.5 1.05 1.03 1.14-.14 2.44 3.92 1.07.4.5 1.67-.08 1.03.8 2.01-.2 2.02.24.54.35-.2.66.44-.35.84.14.05.52.78-.73.79-.07.2.39.4-.14.24-.35-.35-.6.7-1 .58-.07.2.24 1.57-.42.93.45.74-.07.68-1.53 1.43-.98 1.23-.55 1.87.1.68-1.14.99-.25-.3-1.6.34-1 .5-.1.1-.91-.35-.28h.5l.68-1.54.69-.27-.1-.67 1.18-.38 1.08-1.25-.54-.8 1.23.04-.89.17.59.8 1.72-1.25.74-.1-1.33-3.8-2.26-.06-.88-.67v-.01Z"/>
  <path fill="#828282" d="M672.75 17.61v13.54l-3.43-2.65V14.97l3.43 2.64Z"/>
  <path fill="#ADADAD" d="M768.12 48.47V62l-1.03 1.67V50.14l1.03-1.67Z"/>
  <path fill="#A8A8A8" d="M771.46 54.14v13.53l-1.52 3.27V57.41l1.52-3.27Z"/>
  <path fill="gray" d="M603.09 84.33v13.53l-.05-3.9V80.45l.05 3.9Z"/>
  <path fill="#9F9F9F" d="M637.82 88.4v13.53l-5.9-.35V88.06l5.9.34Z"/>
  <path fill="#A2A2A2" d="M641.07 88.44v13.53l-3.25-.04V88.4l3.25.04Z"/>
  <path fill="gray" d="M599.5 89.41v13.53l-.93-3.72V85.69l.93 3.72Z"/>
  <path fill="#A5A5A5" d="M617.09 89.94v13.52l-7.81.35V90.28l7.8-.34Z"/>
  <path fill="#909090" d="M621.46 91.3v13.52l-4.37-1.36V89.94l4.37 1.35Z"/>
  <path fill="#838383" d="M645.3 91.36v13.53l-4.23-2.92V88.44l4.22 2.92Z"/>
  <path fill="#B5B5B5" d="M631.93 88.06v13.52l-4.08 3.55V91.61l4.08-3.55Z"/>
  <path fill="#909090" d="M650.25 92.93v13.52l-4.96-1.56V91.36l4.96 1.57Z"/>
  <path fill="#828282" d="M604.66 93.31v13.53l-5.16-3.9V89.4l5.16 3.9Z"/>
  <path fill="#B6B6B6" d="M609.28 90.28v13.53l-4.62 3.03V93.3l4.62-3.03Z"/>
  <path fill="#B5B5B5" d="M627.85 91.6v13.53l-2.6 2.26V93.87l2.6-2.26Z"/>
  <path fill="#848484" d="M625.24 93.87v13.52l-3.78-2.57V91.29l3.78 2.58Z"/>
  <path fill="gray" d="M170.73 95.7v13.53l-.83-6.3V89.42l.83 6.3Z"/>
  <path fill="#989898" d="M871 88.13v13.52l-.84 8.7V96.82l.84-8.7Z"/>
  <path fill="gray" d="M653.1 96.96v13.53l-2.85-4.04V92.93l2.85 4.03ZM172.25 97.86v13.53l-1.52-2.16V95.72l1.52 2.15Z"/>
  <path fill="#B3B3B3" d="M870.16 96.82v13.53l-4.47 1.81V98.63l4.47-1.8Z"/>
  <path fill="gray" d="M659.98 104.55v13.52l-6.88-7.58V96.96l6.88 7.59Z"/>
  <path fill="#A1A1A1" d="M865.7 98.63v13.53l-2.26 7.44v-13.53l2.25-7.44Z"/>
  <path fill="#959595" d="M863.44 106.07v13.53l-.1 2.47v-13.53l.1-2.47Z"/>
  <path fill="#B2B2B2" d="M863.34 108.54v13.53l-2.36 2.68v-13.53l2.36-2.68Z"/>
  <path fill="#9F9F9F" d="M248.85 107.85v13.53l-1.18 4.87v-13.53l1.18-4.87Z"/>
  <path fill="#A3A3A3" d="M860.98 111.22v13.53l-2.7 7.8v-13.53l2.7-7.8Z"/>
  <path fill="#9F9F9F" d="M247.67 112.72v13.53L246 133.1v-13.53l1.67-6.85Z"/>
  <path fill="#B2B2B2" d="M246 119.57v13.53l-2.26 2.75v-13.53l2.26-2.75Z"/>
  <path fill="#9D9D9D" d="M243.74 122.32v13.53l-.6 2.78V125.1l.6-2.78Z"/>
  <path fill="#888" d="M128.23 127.36v13.53l-3.05-1.6v-13.53l3.05 1.6Z"/>
  <path fill="#B1B1B1" d="M858.27 119.02v13.52l-8.25 10.13v-13.53l8.25-10.12Z"/>
  <path fill="#AAA" d="M850.02 129.14v13.53l-1.62 3.1v-13.54l1.62-3.1Z"/>
  <path fill="#B4B4B4" d="M835.33 129.14v13.53l-8.3 3.48v-13.53l8.3-3.48Z"/>
  <path fill="gray" d="M837.15 133.14v13.53l-1.82-4v-13.53l1.82 4Z"/>
  <path fill="#B6B6B6" d="M827.03 132.62v13.53l-5.36 4.27V136.9l5.36-4.28Z"/>
  <path fill="#B2B2B2" d="M848.4 132.23v13.53l-3.93 4.7v-13.53l3.93-4.7Z"/>
  <path fill="#858585" d="M839.02 137.97v13.53l-2.9-1.77V136.2l2.9 1.77Z"/>
  <path fill="#888" d="M96.35 138.08v13.53l-5.31-2.75v-13.53l5.3 2.75Z"/>
  <path fill="#B4B4B4" d="M844.47 136.93v13.53l-1.97 1.91v-13.53l1.97-1.91Z"/>
  <path fill="#949494" d="M842.5 138.84v13.53l-3.48-.87v-13.53l3.49.87Z"/>
  <path fill="gray" d="M96.5 144.55v13.53l-.99-4.67V139.9l.98 4.66Z"/>
  <path fill="#A3A3A3" d="M311.24 142.6v13.53l-1.12 3.44v-13.53l1.12-3.44Z"/>
  <path fill="gray" d="M543.64 146.15v13.53l-4.08-4.42v-13.53l4.08 4.42Z"/>
  <path fill="#959595" d="M546.24 146.74v13.53l-2.6-.6v-13.52l2.6.59Z"/>
  <path fill="gray" d="M98.02 149v13.53l-1.53-4.45v-13.53l1.53 4.45ZM547.67 150.4v13.52l-1.43-3.65v-13.53l1.43 3.65Z"/>
  <path fill="#999" d="M824.37 145.52v13.53l-.88 6.75v-13.53l.88-6.75Z"/>
  <path fill="gray" d="M101.26 154.22v13.53l-3.24-5.22V149l3.24 5.22ZM101.7 158.53v13.53l-.44-4.31v-13.53l.44 4.31Z"/>
  <path fill="#9F9F9F" d="M823.49 152.27v13.53l-1.91 8.03v-13.52l1.9-8.04Z"/>
  <path fill="#B5B5B5" d="M821.58 160.3v13.53l-3.94 2.02v-13.53l3.94-2.01Z"/>
  <path fill="#B0B0B0" d="M817.64 162.32v13.53l-4.76 1.29V163.6l4.76-1.29Z"/>
  <path fill="#A2A2A2" d="M809.44 164.55v13.53l-6.93-.07v-13.53l6.93.07Z"/>
  <path fill="#8E8E8E" d="M813.27 165.94v13.53l-3.83-1.4v-13.52l3.83 1.4Z"/>
  <path fill="#B6B6B6" d="M802.51 164.48v13.53l-11.54 8.76v-13.53l11.54-8.76Z"/>
  <path fill="#AAA" d="M790.97 173.24v13.53l-3.05.45V173.7l3.05-.46Z"/>
  <path fill="#A3A3A3" d="M787.92 173.7v13.52l-6.2.07v-13.52l6.2-.07Z"/>
  <path fill="#AEAEAE" d="M781.73 173.77v13.52l-3.44.8v-13.52l3.44-.8Z"/>
  <path fill="#959595" d="M441.64 175.78v13.53l-.1 3v-13.53l.1-3Z"/>
  <path fill="#AEAEAE" d="M781.53 179.23v13.53l-2.21 3.44v-13.53l2.21-3.44Z"/>
  <path fill="#A0A0A0" d="M779.32 182.67v13.53l-23.44-.73v-13.53l23.44.73Z"/>
  <path fill="#AFAFAF" d="M688.67 188.24v13.52l-1.07 1.57V189.8l1.07-1.56Z"/>
  <path fill="#969696" d="M685.09 189.87v13.53l-5.46-1.11v-13.53l5.46 1.11Z"/>
  <path fill="#A4A4A4" d="M687.6 189.8v13.53l-2.51.07v-13.53l2.5-.07Z"/>
  <path fill="gray" d="M690.69 190.67v13.53l-2.02-2.44v-13.52l2.02 2.43Z"/>
  <path fill="#B6B6B6" d="M679.63 188.76v13.53l-5 3.27v-13.53l5-3.27ZM755.88 181.94v13.53l-21.37 12.04v-13.53l21.38-12.04Z"/>
  <path fill="#B6B6B6" d="M734.51 193.98v13.53l-8.99 5.42V199.4l9-5.42ZM674.62 192.03v13.53l-9.63 7.51v-13.53l9.63-7.51Z"/>
  <mask id="a" width="4" height="15" x="661" y="199" maskUnits="userSpaceOnUse" style="mask-type:luminance">
    <path fill="#fff" d="M664.99 199.54v13.53c-.83.39-2.11.56-3.05.73v-13.53c.94-.17 2.22-.34 3.05-.73Z"/>
  </mask>
  <g mask="url(#a)">
    <path fill="#A3A3A3" d="M664.99 199.54v13.53a5 5 0 0 1-.75.27V199.8c.27-.08.53-.16.75-.27Z"/>
    <path fill="#9E9E9E" d="M664.24 199.81v13.53c-.74.2-1.61.33-2.3.46v-13.53c.69-.12 1.56-.25 2.3-.46Z"/>
  </g>
  <mask id="b" width="6" height="18" x="656" y="200" maskUnits="userSpaceOnUse" style="mask-type:luminance">
    <path fill="#fff" d="M661.94 200.28v13.52c-.44.8-3.19 1.46-4.32 1.77-1.47.42-1.62.28-1.62 1.46v-13.52c0-1.19.15-1.05 1.62-1.46 1.13-.32 3.88-.98 4.32-1.78Z"/>
  </mask>
  <g mask="url(#b)">
    <path fill="#A3A3A3" d="M661.94 200.28v13.52a.74.74 0 0 1-.1.13v-13.52a1 1 0 0 0 .1-.13Z"/>
    <path fill="#A8A8A8" d="M661.85 200.4v13.53c-.15.18-.41.35-.73.5v-13.52c.32-.16.58-.32.73-.5Z"/>
    <path fill="#A3A3A3" d="M661.12 200.9v13.53c-.65.32-1.56.6-2.34.83v-13.53c.78-.22 1.69-.5 2.34-.82Z"/>
    <path fill="#9E9E9E" d="M658.78 201.73v13.53l-1.14.31v-13.53l1.14-.3Z"/>
    <path fill="#A3A3A3" d="M657.64 202.04v13.53h-.02l-.02.01v-13.53h.04Z"/>
    <path fill="#9E9E9E" d="M657.6 202.06v13.52l-.8.22v-13.53c.21-.06.48-.12.8-.22Z"/>
    <path fill="#A3A3A3" d="M656.8 202.27v13.53c-.17.05-.31.1-.42.15v-13.53c.11-.05.25-.1.43-.15Z"/>
    <path fill="#A8A8A8" d="M656.38 202.42v13.53a.66.66 0 0 0-.2.14v-13.53c.05-.05.11-.1.2-.14Z"/>
    <path fill="#A3A3A3" d="M656.18 202.56v13.53a.49.49 0 0 0-.08.13v-13.53a.49.49 0 0 1 .08-.13Z"/>
    <path fill="#9E9E9E" d="M656.1 202.69v13.53a.72.72 0 0 0-.05.15v-13.53a.8.8 0 0 1 .05-.15Z"/>
    <path fill="#999" d="M656.05 202.84v13.53a2.7 2.7 0 0 0-.05.45v-13.53c0-.19.02-.33.05-.45Z"/>
  </g>
  <path fill="gray" d="M3.88 206.33v13.52l-.4-1.73v-13.53l.4 1.74Z"/>
  <path fill="#B1B1B1" d="M725.52 199.4v13.53l-22.6 7.03v-13.53l22.6-7.03Z"/>
  <path fill="#B4B4B4" d="M656 203.51v13.53l-3.88 3.79V207.3l3.88-3.79Z"/>
  <path fill="#AFAFAF" d="M652.12 207.3v13.53l-2.5 3.54v-13.52l2.5-3.55Z"/>
  <path fill="gray" d="M.2 211.9v13.52l-.2-2.5v-13.53l.2 2.5Z"/>
  <path fill="#B1B1B1" d="M649.62 210.85v13.53l-4.82 1.46V212.3l4.82-1.46Z"/>
  <path fill="#B4B4B4" d="M702.92 206.43v13.53l-16.36 6.64v-13.53l16.36-6.64Z"/>
  <path fill="#AFAFAF" d="M644.8 212.31v13.53l-5.9 1.46v-13.53l5.9-1.46Z"/>
  <path fill="#A1A1A1" d="M9.97 218.54v13.52l-3.44-.1v-13.53l3.44.1Z"/>
  <path fill="#A8A8A8" d="M6.53 218.43v13.53l-.78 1.7v-13.52l.78-1.7Z"/>
  <path fill="gray" d="M5.75 220.14v13.53L.2 225.42v-13.53l5.55 8.25Z"/>
  <path fill="#B6B6B6" d="M638.9 213.77v13.53l-10.17 6.89v-13.53l10.17-6.89Z"/>
  <path fill="gray" d="M16.02 224.59v13.53l-6.05-6.06v-13.52l6.05 6.05Z"/>
  <path fill="gray" d="M19.01 229.94v13.53l-3-5.35v-13.53l3 5.35Z"/>
  <path fill="#B6B6B6" d="M652.9 231.48V245l-5.35 3.9v-13.53l5.36-3.9Z"/>
  <path fill="gray" d="M20.73 235.62v13.52l-1.72-5.67v-13.53l1.72 5.68Z"/>
  <path fill="#989898" d="M22.45 240.2v13.54l-11.5-1.99v-13.53l11.5 1.99Z"/>
  <path fill="#929292" d="M24.61 240.8v13.53l-2.16-.6v-13.52l2.16.59Z"/>
  <path fill="#9D9D9D" d="M693.93 241.74v13.53l-5.9-.53v-13.53l5.9.53Z"/>
  <path fill="#898989" d="M28.4 242.61v13.53l-3.79-1.81V240.8l3.79 1.81Z"/>
  <path fill="#B1B1B1" d="M688.03 241.21v13.53l-8.5 2.58v-13.53l8.5-2.58Z"/>
  <path fill="#B6B6B6" d="M679.54 243.79v13.53l-2.16 1.18v-13.53l2.16-1.18ZM677.38 244.97v13.53l-13.86 8.8v-13.53l13.86-8.8Z"/>
  <path fill="gray" d="M39.01 253.84v13.53L28.4 256.14V242.6L39 253.84Z"/>
  <path fill="#AEAEAE" d="M41.47 253.25v13.53l-2.46.6v-13.54l2.46-.59Z"/>
  <path fill="#A0A0A0" d="M663.52 253.77v13.53l-.54 1.95v-13.53l.54-1.95Z"/>
  <path fill="#B6B6B6" d="M662.98 255.72v13.53l-6.44 4v-13.53l6.44-4Z"/>
  <path fill="#8F8F8F" d="M61.86 260.31v13.53l-20.4-7.06v-13.53l20.4 7.06Z"/>
  <path fill="#B6B6B6" d="M656.54 259.72v13.53l-2.3 1.7v-13.52l2.3-1.7Z"/>
  <path fill="#9F9F9F" d="M654.23 261.43v13.52l-.49 1.99V263.4l.5-1.99Z"/>
  <path fill="gray" d="M63.18 263.58v13.53l-1.32-3.27v-13.53l1.32 3.27Z"/>
  <path fill="gray" d="M64.6 266.09v13.53l-1.42-2.5v-13.54l1.43 2.51Z"/>
  <path fill="#B3B3B3" d="M653.74 263.4v13.54l-2.8 2.99V266.4l2.8-3Z"/>
  <path fill="#858585" d="M70.1 269.4v13.52l-5.5-3.3v-13.53l5.5 3.3Z"/>
  <path fill="gray" d="M74.68 274.82v13.53l-4.57-5.43v-13.53l4.57 5.43Z"/>
  <path fill="gray" d="M73.75 283.1v13.53l-1.58-2.06v-13.52l1.58 2.05Z"/>
  <path fill="#838383" d="M78.95 286.65v13.53l-5.2-3.55V283.1l5.2 3.55Z"/>
  <path fill="#A0A0A0" d="M82.15 286.78v13.53l-3.2-.13v-13.53l3.2.13Z"/>
  <path fill="#959595" d="M675.9 290.44v13.53l-.15 3.1v-13.53l.15-3.1Z"/>
  <path fill="gray" d="M82.69 293.92v13.53l-.54-7.14v-13.53l.54 7.14Z"/>
  <path fill="#B4B4B4" d="M681.45 302.26v13.53l-2.9 1.18v-13.52l2.9-1.19Z"/>
  <path fill="#8D8D8D" d="M686.12 304.04v13.53l-4.67-1.78v-13.53l4.67 1.78Z"/>
  <path fill="#A3A3A3" d="M690.4 304v13.53l-4.28.04v-13.53l4.27-.04Z"/>
  <path fill="gray" d="M73.84 305.46V319l-.83-4.55V300.9l.83 4.55Z"/>
  <path fill="#898989" d="M78.12 307.55v13.53l-4.28-2.09v-13.53l4.28 2.1Z"/>
  <path fill="#818181" d="M84.5 313.26v13.53l-6.38-5.71v-13.53l6.39 5.7Z"/>
  <path fill="#AEAEAE" d="M690.44 313.5v13.53l-5.7 1.28V314.8l5.7-1.3Z"/>
  <path fill="#898989" d="M93.6 317.6v13.53l-9.1-4.34v-13.53l9.1 4.35Z"/>
  <mask id="c" width="9" height="18" x="676" y="314" maskUnits="userSpaceOnUse" style="mask-type:luminance">
    <path fill="#fff" d="M684.74 314.79v13.52c-.69.07-1.57.88-2.16 1.12a48.77 48.77 0 0 1-5.65 2.02v-13.53a49.32 49.32 0 0 0 5.65-2.02c.6-.24 1.47-1.04 2.16-1.11Z"/>
  </mask>
  <g mask="url(#c)">
    <path fill="#999" d="M684.74 314.79v13.52l-.06.01V314.8l.06-.01Z"/>
    <path fill="#9E9E9E" d="M684.68 314.8v13.52c-.05 0-.1.02-.15.04v-13.53l.15-.03Z"/>
    <path fill="#A3A3A3" d="M684.53 314.83v13.53c-.13.03-.26.09-.4.15V315c.14-.07.27-.13.4-.16Z"/>
    <path fill="#A8A8A8" d="M684.13 314.99v13.53c-.5.25-1.02.65-1.42.85v-13.52c.4-.2.92-.61 1.42-.86Z"/>
    <path fill="#A3A3A3" d="M682.7 315.85v13.52l-.12.06a48.77 48.77 0 0 1-5.65 2.02v-13.53a49.32 49.32 0 0 0 5.65-2.02l.13-.05Z"/>
  </g>
  <path fill="#969696" d="M98.95 318.72v13.53l-5.36-1.12v-13.52l5.36 1.11Z"/>
  <path fill="#858585" d="M102.2 320.67v13.52l-3.25-1.94v-13.53l3.24 1.95Z"/>
  <path fill="#B6B6B6" d="M676.93 317.92v13.53l-4.28 3.4v-13.52l4.28-3.41Z"/>
  <path fill="#989898" d="M110.4 322.02v13.53l-8.2-1.36v-13.52l8.2 1.35Z"/>
  <path fill="#B6B6B6" d="M113.98 319.34v13.53l-3.58 2.68v-13.53l3.58-2.68Z"/>
  <path fill="#888" d="M122.04 323.34v13.53l-8.06-4v-13.53l8.06 4Z"/>
  <path fill="#959595" d="M126.32 324.32v13.53l-4.28-.98v-13.53l4.28.98Z"/>
  <path fill="#B5B5B5" d="M693.3 325.5v13.53l-2.07 1.04v-13.52l2.06-1.05Z"/>
  <path fill="#868686" d="M132.36 327.87v13.52l-6.04-3.54v-13.53l6.04 3.55Z"/>
  <path fill="#B5B5B5" d="M691.23 326.55v13.52l-3.83 3.17V329.7l3.83-3.16Z"/>
  <path fill="#909090" d="M150.64 333.54v13.53l-18.28-5.68v-13.52l18.28 5.67Z"/>
  <path fill="#B3B3B3" d="M688.92 332.08v13.52l-2.5 2.72v-13.53l2.5-2.71Z"/>
  <path fill="#B4B4B4" d="M314.29 333.12v13.53l-5.3 2.22v-13.52l5.3-2.23Z"/>
  <path fill="#8E8E8E" d="M308.99 335.35v13.52l-9.14-3.37v-13.53l9.14 3.38Z"/>
  <path fill="#B6B6B6" d="M299.85 331.97v13.53l-9.04 5.84v-13.52l9.04-5.85Z"/>
  <path fill="gray" d="M153.83 339.03v13.53l-3.2-5.5v-13.52l3.2 5.5Z"/>
  <path fill="#B1B1B1" d="M290.8 337.82v13.52l-6.57 2.09V339.9l6.58-2.08Z"/>
  <path fill="#A3A3A3" d="M164.89 340.39v13.53l-7.18.07v-13.53l7.18-.07Z"/>
  <path fill="#8E8E8E" d="M157.71 340.46v13.53l-3.88-1.43v-13.53l3.88 1.43Z"/>
  <path fill="#B4B4B4" d="M343.97 341.6v13.54l-3.3 1.5V343.1l3.3-1.5Z"/>
  <path fill="#8D8D8D" d="M340.68 343.1v13.53l-26.39-9.98v-13.53l26.38 9.98Z"/>
  <path fill="#868686" d="M346.62 343.17v13.53l-2.66-1.56V341.6l2.66 1.56Z"/>
  <path fill="#B6B6B6" d="M284.22 339.9v13.53l-7.32 4.1v-13.52l7.32-4.1Z"/>
  <path fill="#A6A6A6" d="M252.53 346.44v13.53l-7.96.49v-13.53l7.96-.49Z"/>
  <path fill="#A4A4A4" d="M244.57 346.93v13.53l-4.37.1v-13.53l4.37-.1Z"/>
  <path fill="#A2A2A2" d="M240.2 347.03v13.53l-14.1-.17v-13.53l14.1.17Z"/>
  <path fill="#B0B0B0" d="M686.41 334.8v13.52l-9.78 12.87v-13.53l9.78-12.87Z"/>
  <path fill="#B5B5B5" d="M276.9 344v13.54l-6.63 5.5V349.5l6.63-5.5Z"/>
  <path fill="#989898" d="M217.26 349.54v13.53l-52.37-9.15v-13.53l52.37 9.15Z"/>
  <path fill="#8E8E8E" d="M263.05 350.2v13.53l-10.52-3.76v-13.53l10.52 3.76Z"/>
  <path fill="#A8A8A8" d="M270.27 349.5v13.53l-7.22.7V350.2l7.22-.7Z"/>
  <path fill="#B6B6B6" d="M676.63 347.66v13.53l-4.12 3.34V351l4.12-3.34Z"/>
  <path fill="#B4B4B4" d="M226.1 346.86v13.53l-4.86 4.94V351.8l4.86-4.94Z"/>
  <path fill="gray" d="M357.92 353.54v13.53l-11.3-10.37v-13.52l11.3 10.36Z"/>
  <path fill="#B6B6B6" d="M221.24 351.8v13.53l-4.57 2.47v-13.53l4.57-2.47Z"/>
  <path fill="gray" d="M359.1 360.95v13.53l-1.18-7.41v-13.53l1.18 7.4ZM359.3 363.1v13.53l-.2-2.15v-13.53l.2 2.16Z"/>
  <path fill="#B2B2B2" d="M672.5 351v13.53l-11.93 14.23v-13.53L672.5 351Z"/>
  <path fill="#B5B5B5" d="M660.57 365.23v13.52l-4.67 4.04v-13.53l4.67-4.03Z"/>
  <path fill="#B3B3B3" d="M691.52 381.12v13.53l-1.13.45v-13.52l1.13-.46Z"/>
  <path fill="#B4B4B4" d="M690.39 381.58v13.52l-1.42 1.43V383l1.42-1.42Z"/>
  <path fill="#9C9C9C" d="M688.97 383v13.53l-.15.83v-13.52l.15-.84Z"/>
  <path fill="#999" d="M689.8 385.65v13.52l-.1.77V386.4l.1-.76Z"/>
  <path fill="#B0B0B0" d="M689.7 386.41v13.53l-.49.14v-13.53l.5-.14Z"/>
  <path fill="#B6B6B6" d="M689.26 387v13.53l-.69.52v-13.53l.7-.52Z"/>
  <path fill="#A0A0A0" d="M688.57 387.52v13.53l-.39 1.4V388.9l.4-1.39Z"/>
  <path fill="#B6B6B6" d="M688.18 388.91v13.53l-1.42 1.12v-13.53l1.42-1.12Z"/>
  <path fill="gray" d="M344.6 390.45v13.52l-2.6-5.04V385.4l2.6 5.05Z"/>
  <path fill="#9C9C9C" d="M686.76 390.03v13.53l-.15.8v-13.53l.15-.8Z"/>
  <path fill="#A2A2A2" d="M356.8 391.25v13.52l-6.74-.06v-13.53l6.73.07Z"/>
  <path fill="#989898" d="M668.87 391.35v13.53l-.59-.1v-13.53l.6.1Z"/>
  <path fill="#B5B5B5" d="M686.61 390.83v13.52l-.64.56v-13.53l.64-.55Z"/>
  <path fill="#9A9A9A" d="M360.13 391.73v13.53l-3.34-.49v-13.52l3.34.48Z"/>
  <path fill="#B0B0B0" d="M350.06 391.18v13.52l-3.59 1.01V392.2l3.6-1.01Z"/>
  <path fill="#B5B5B5" d="M686.41 392.25v13.53l-.58.5v-13.54l.58-.49Z"/>
  <path fill="#B6B6B6" d="M658.8 370.02v13.54l-30.26 23.37V393.4l30.26-23.38ZM346.47 392.19v13.52l-3.39 1.85v-13.53l3.4-1.84Z"/>
  <path fill="gray" d="M666.76 394.17v13.53l-.35-.35v-13.53l.35.35ZM665 397.47V411l-.15-1.22v-13.52l.14 1.21Z"/>
  <path fill="#A1A1A1" d="M685.83 392.74v13.53l-1.48 4.87v-13.53l1.48-4.87Z"/>
  <path fill="#AEAEAE" d="M460.8 397.44v13.53l-.78.17v-13.53l.78-.17Z"/>
  <path fill="#818181" d="M461.2 397.79v13.52l-.4-.34v-13.53l.4.35Z"/>
  <path fill="#969696" d="M665.04 397.89v13.53l-.5-.1v-13.53l.5.1Z"/>
  <path fill="#9D9D9D" d="M462.27 397.89v13.53l-1.08-.1v-13.53l1.08.1Z"/>
  <path fill="#838383" d="M462.33 397.93v13.52l-.06-.03v-13.53l.06.04Z"/>
  <path fill="#ABABAB" d="M460.02 397.61v13.53l-.3.52v-13.53l.3-.52Z"/>
  <path fill="#ABABAB" d="M459.72 398.13v13.53l-.69.1v-13.52l.7-.1Z"/>
  <path fill="#B6B6B6" d="M459.03 398.24v13.53l-.83.62v-13.53l.83-.62Z"/>
  <path fill="#A5A5A5" d="M458.2 398.86v13.53l-.69.04V398.9l.69-.04Z"/>
  <path fill="gray" d="M665.14 399v13.53l-.1-1.11v-13.53l.1 1.11Z"/>
  <path fill="#B4B4B4" d="M457.56 399.42v13.53l-.93.42v-13.53l.93-.42Z"/>
  <path fill="gray" d="M664.4 400.5v13.53l-.15-.45v-13.53l.15.45Z"/>
  <path fill="#B5B5B5" d="M456.63 399.84v13.53l-.89.73v-13.53l.89-.73Z"/>
  <path fill="#ABABAB" d="M684.55 398.03v13.53l-1.72 3.02v-13.52l1.72-3.03Z"/>
  <path fill="gray" d="M360.77 401.2v13.52l-.64-9.46v-13.53l.64 9.46Z"/>
  <path fill="#9D9D9D" d="M367.36 401.82v13.53l-6.59-.63V401.2l6.59.63Z"/>
  <path fill="gray" d="M664.06 401.85v13.53l-.25-.59v-13.53l.25.6Z"/>
  <path fill="#B4B4B4" d="M682.93 402.06v13.53l-.65.28v-13.53l.65-.27Z"/>
  <path fill="#858585" d="M665.14 403.63v13.53l-1.87-1.18v-13.53l1.87 1.18Z"/>
  <path fill="#A4A4A4" d="M462.62 403.39v13.52l-16.36.5v-13.54l16.36-.48Z"/>
  <path fill="#AFAFAF" d="M682.28 402.34v13.53l-1.57 2.26v-13.52l1.57-2.27Z"/>
  <path fill="#B5B5B5" d="M446.26 403.87v13.53l-1.97 1.04v-13.52l1.97-1.05Z"/>
  <path fill="#B3B3B3" d="M680.71 404.6v13.53l-.88.35v-13.53l.88-.34Z"/>
  <path fill="#B6B6B6" d="M628.54 393.4v13.53l-21.08 11.58V405l21.08-11.59Z"/>
  <path fill="#9E9E9E" d="M598.57 405.89v13.53l-4.08-.28v-13.53l4.08.28Z"/>
  <path fill="#A8A8A8" d="M607.46 404.99v13.52l-8.9.91V405.9l8.9-.9Z"/>
  <path fill="#B3B3B3" d="M680.03 405.54v13.53l-.4.42v-13.53l.4-.42Z"/>
  <path fill="gray" d="M666.27 406v13.52l-1.13-2.36v-13.53l1.13 2.36Z"/>
  <path fill="#A4A4A4" d="M594.49 405.61v13.53l-21.08.53v-13.54l21.08-.52Z"/>
  <path fill="#AEAEAE" d="M429.06 405.61v13.53l-3.34.8v-13.53l3.34-.8Z"/>
  <path fill="#B2B2B2" d="M444.3 404.92v13.52l-5.17 1.74v-13.53l5.17-1.73Z"/>
  <path fill="#8E8E8E" d="M439.13 406.65v13.53l-3.58-1.32v-13.52l3.58 1.31Z"/>
  <path fill="#B5B5B5" d="M679.63 405.96v13.53l-2.01 1v-13.52l2.01-1Z"/>
  <path fill="gray" d="M666.41 407.1v13.54l-.14-1.12V406l.14 1.12Z"/>
  <path fill="#828282" d="M431.42 407.49v13.53l-2.36-1.88v-13.53l2.36 1.88Z"/>
  <path fill="#B3B3B3" d="M573.41 406.13v13.54l-1.37 1.45V407.6l1.37-1.47Z"/>
  <path fill="#898989" d="M471.27 407.67v13.52l-8.65-4.28V403.4l8.65 4.28Z"/>
  <path fill="#ACACAC" d="M435.55 405.34v13.52l-1.92 3.34v-13.52l1.92-3.34Z"/>
  <path fill="gray" d="M667.94 408.68v13.52l-1.53-1.56V407.1l1.53 1.56Z"/>
  <path fill="#878787" d="M433.63 408.68v13.52l-2.21-1.18v-13.53l2.21 1.19Z"/>
  <path fill="gray" d="M367.99 408.75v13.52l-.93-2.75V406l.93 2.75Z"/>
  <path fill="#AAA" d="M425.72 406.41v13.53l-16.5 2.37v-13.53l16.5-2.37Z"/>
  <path fill="#B2B2B2" d="M572.04 407.6v13.52L570.4 423v-13.53l1.63-1.87Z"/>
  <path fill="#8A8A8A" d="M671.23 410.17v13.53l-3.29-1.5v-13.52l3.3 1.49Z"/>
  <path fill="#ABABAB" d="M677.62 406.97v13.53l-1.97 3.62v-13.53l1.97-3.62Z"/>
  <path fill="gray" d="M672.02 410.9v13.53l-.79-.73v-13.53l.79.73ZM673.1 413.06v13.52l-1.08-2.15V410.9l1.08 2.16Z"/>
  <path fill="#B6B6B6" d="M675.7 413.82v13.53l-.79.49V414.3l.8-.49Z"/>
  <path fill="#8D8D8D" d="M376.7 414.45v13.53l-10.33-4.04v-13.53l10.32 4.04Z"/>
  <path fill="gray" d="M673.05 414.93v13.53l-.4-1.04v-13.53l.4 1.04Z"/>
  <path fill="#B1B1B1" d="M673.79 414.66v13.52l-.35.42v-13.53l.35-.41Z"/>
  <path fill="#8E8E8E" d="M673.44 415.07v13.53l-.4-.14v-13.53l.4.14Z"/>
  <path fill="#8A8A8A" d="M675.21 415.32v13.53l-1.42-.67v-13.52l1.42.66Z"/>
  <path fill="gray" d="M478.1 416.26v13.52l-6.83-8.59v-13.52l6.83 8.59Z"/>
  <path fill="#B6B6B6" d="M570.41 409.47V423l-13.36 7.24V416.7l13.37-7.24Z"/>
  <path fill="#A1A1A1" d="M500.25 416.81v13.53l-22.15-.56v-13.52l22.15.55Z"/>
  <path fill="#A6A6A6" d="M557.05 416.71v13.53l-9.73.56v-13.54l9.73-.55Z"/>
  <path fill="#919191" d="M388.63 418v13.52l-11.94-3.54v-13.53l11.94 3.55Z"/>
  <path fill="#8B8B8B" d="M509 420.47v13.52l-8.75-3.65v-13.53l8.75 3.66Z"/>
  <path fill="#B2B2B2" d="M547.32 417.26v13.54l-9.63 3.26v-13.52l9.63-3.28Z"/>
  <path fill="#959595" d="M537.7 420.54v13.52l-2.22-.48v-13.53l2.21.49Z"/>
  <path fill="#AFAFAF" d="M535.48 420.05v13.53l-3.05.8v-13.53l3.05-.8Z"/>
  <path fill="#ACACAC" d="M409.21 408.78v13.53l-7.6 12.83v-13.52l7.6-12.84Z"/>
  <path fill="#B5B5B5" d="M532.43 420.85v13.53l-3.68 1.7v-13.53l3.68-1.7Z"/>
  <path fill="#ADADAD" d="M401.6 421.62v13.52l-4.91.98v-13.53l4.91-.97Z"/>
  <path fill="#868686" d="M396.69 422.59v13.53l-8.06-4.6V418l8.06 4.59ZM515.58 424.32v13.53L509 434v-13.52l6.58 3.85Z"/>
  <path fill="#878787" d="M525.95 432.22v13.53l-11.05-6.15v-13.54l11.05 6.16Z"/>
  <path fill="#A1A1A1" d="M528.75 422.55v13.53l-2.8 9.67v-13.53l2.8-9.67Z"/>
  <path fill="#949494" d="M528.45 435.53v13.53l-.59-.14v-13.53l.6.14Z"/>
  <path fill="gray" d="M528.5 436.6v13.53l-.04-1.07v-13.53l.05 1.08ZM508.17 438.6v13.52l-.4-.56v-13.53l.4.56Z"/>
  <path fill="#B2B2B2" d="M509.34 438.17v13.53l-1.17.42v-13.53l1.17-.42Z"/>
  <path fill="gray" d="M509.44 438.66v13.52l-.1-.48v-13.53l.1.49Z"/>
  <path fill="#AAA" d="M534.55 439.5v13.52l-.74.1V439.6l.74-.1Z"/>
  <path fill="#A1A1A1" d="M532.39 439.88v13.52l-1.23-.03v-13.53l1.23.04Z"/>
  <path fill="#B6B6B6" d="M533.81 439.6v13.53l-1.72 1.25v-13.53l1.72-1.25Z"/>
  <path fill="gray" d="M532.1 440.85v13.53l-.6-.8v-13.53l.6.8Z"/>
  <path fill="#B2B2B2" d="M531.7 440.64v13.53l-1.08 1.25V441.9l1.08-1.26Z"/>
  <path fill="#B1B1B1" d="M530.62 441.9v13.52l-1.18.38v-13.52l1.18-.38Z"/>
  <path fill="#B3B3B3" d="M529.54 442.94v13.52l-.69.28v-13.53l.69-.27Z"/>
  <path fill="#A2A2A2" d="M500.65 444.23h-.5v13.52h.5v-13.52Z"/>
  <path fill="gray" d="M500.9 444.64v13.53l-.25-.42v-13.52l.24.41Z"/>
  <path fill="#A7A7A7" d="M528.85 443.21v13.53l-.69 1.53v-13.52l.69-1.54Z"/>
  <path fill="#A2A2A2" d="M528.16 444.75h-.5v13.52h.5v-13.52Z"/>
  <path fill="#989898" d="M528.01 445.02v13.54l-.1.9v-13.53l.1-.9Z"/>
  <path fill="#ADADAD" d="M527.92 445.93v13.53l-.5.1v-13.53l.5-.1Z"/>
  <path fill="#A3A3A3" d="M527.42 446.03v13.53l-.34 1.01v-13.53l.34-1Z"/>
  <path fill="gray" d="M500.6 447.08v13.52l-.7-1.74v-13.52l.7 1.74Z"/>
  <path fill="#AFAFAF" d="M527.37 448.64v13.53l-.98.24V448.9l.98-.25Z"/>
  <path fill="gray" d="M501.14 449.27v13.52l-1.03-1.14v-13.53l1.03 1.15Z"/>
  <path fill="#ACACAC" d="M526.4 448.89v13.52l-.7 1.15v-13.52l.7-1.15Z"/>
  <path fill="#9F9F9F" d="M525.7 450.04v13.52l-1.86-.1v-13.53l1.86.1Z"/>
  <path fill="#B4B4B4" d="M523.84 449.93v13.52l-1.23.56V450.5l1.23-.56Z"/>
  <path fill="#B6B6B6" d="M522.6 450.49V464l-1.42.98v-13.53l1.43-.97Z"/>
  <path fill="#929292" d="M504.92 452.78v13.53l-3.93-1.08V451.7l3.93 1.08Z"/>
  <path fill="#A9A9A9" d="M517.06 452.78v13.53l-.6.07v-13.53l.6-.07Z"/>
  <path fill="#A7A7A7" d="M521.18 451.46v13.53l-.68 1.53v-13.53l.68-1.53Z"/>
  <path fill="gray" d="M517.25 453.03v13.52l-.2-.24v-13.53l.2.25Z"/>
  <path fill="#AFAFAF" d="M518.83 452.6v13.54l-1.58.41v-13.52l1.58-.42Z"/>
  <path fill="#898989" d="M519.76 453.06v13.53l-.93-.45V452.6l.93.45Z"/>
  <path fill="#A8A8A8" d="M520.5 452.99v13.53l-.74.07v-13.53l.74-.07Z"/>
  <path fill="gray" d="M505.31 453.27v13.53l-.39-.49v-13.53l.4.49Z"/>
  <path fill="#A5A5A5" d="M506.99 453.2v13.53l-1.68.07v-13.53l1.68-.07Z"/>
  <path fill="#AFAFAF" d="M516.47 452.85v13.53l-.69 1v-13.52l.69-1Z"/>
  <path fill="#A8A8A8" d="M510.03 453.8v13.52l-2.01.2V454l2.01-.2Z"/>
  <path fill="#828282" d="M508.02 454v13.53l-1.03-.8V453.2l1.03.8Z"/>
  <path fill="#9B9B9B" d="M512.05 454.03v13.53l-2.02-.24v-13.53l2.02.24Z"/>
  <path fill="#848484" d="M512.59 454.38v13.53l-.54-.35v-13.53l.54.35Z"/>
  <path fill="#A7A7A7" d="M515.29 454.56v13.52l-.79.07v-13.52l.79-.07Z"/>
  <path fill="#AFAFAF" d="M516.13 454.45v13.53l-.25.35V454.8l.25-.35Z"/>
  <path fill="#989898" d="M513.66 454.83v13.53l-.83-.14V454.7l.83.13Z"/>
  <path fill="gray" d="M515.48 454.94v13.53l-.2-.39v-13.52l.2.38Z"/>
  <path fill="#B2B2B2" d="M515.88 454.8v13.53l-.4.14v-13.53l.4-.14Z"/>
  <path fill="#B6B6B6" d="M512.83 454.7v13.52l-.44.35v-13.53l.44-.34Z"/>
  <path fill="gray" d="M513.72 455.36v13.52l-.06-.52v-13.53l.06.53Z"/>
  <path fill="#B5B5B5" d="M514.5 454.63v13.52l-.78.73v-13.52l.78-.74Z"/>
  <g fill="#7487AF" style="mix-blend-mode:multiply">
    <path d="m672.75 17.61-3.43-2.64V28.5l3.43 2.65V17.6ZM768.12 48.47l-1.03 1.67v13.53l1.03-1.67V48.47ZM771.46 54.14l-1.52 3.27v13.53l1.52-3.27V54.14ZM604.66 106.84l4.62-3.03 7.8-.35 4.38 1.36 3.78 2.57 2.6-2.26 4.09-3.55 5.9.35 3.24.04 4.22 2.92 4.96 1.56 2.85 4.04 6.88 7.58v-13.52l-6.88-7.59-2.85-4.03-4.96-1.57-4.22-2.92-3.25-.04-5.9-.34-4.07 3.55-2.6 2.26-3.79-2.58-4.37-1.35-7.81.34-4.62 3.03-1.57-1.19v-7.79l-.05-3.9V92.1l-3.54-2.68-.93-3.72v13.53l.93 3.72 5.16 3.9ZM870.16 96.82l-4.47 1.81-2.25 7.44-.1 2.47-2.36 2.68-2.7 7.8-8.26 10.12-1.62 3.1-3.93 4.69-1.97 1.91-3.48-.87-1.87-1.14v-3.7l-1.82-4-8.3 3.49-5.36 4.27v13.53l2.3-1.83-.48 3.68-1.91 8.04-3.94 2.01-4.76 1.3v2.18l-3.44-1.25-6.93-.07-11.54 8.76-3.05.46-6.2.07-3.43.8v8.07l-22.4-.7-21.38 12.04-8.99 5.42-22.6 7.03-16.36 6.64v13.53l16.36-6.64 22.6-7.03 9-5.42 21.37-12.04 23.43.73 2.21-3.44v-5.42l.2-.05 6.2-.06 3.04-.46 11.54-8.76 6.93.07 3.83 1.39v-2.44l4.37-1.18 3.94-2.02 1.9-8.03.9-6.75v-10.79l2.65-2.11 8.3-3.48.79 1.73v5.33l2.9 1.77 3.49.87 1.96-1.91 3.93-4.7 1.62-3.1 8.25-10.12 2.7-7.79 2.37-2.68.1-2.47 2.25-7.44 4.47-1.81.84-8.7V88.13l-.84 8.7ZM172.25 111.4V97.85l-1.52-2.15-.83-6.3v13.53l.83 6.3 1.52 2.15ZM246 133.1l1.67-6.85 1.18-4.87v-13.53l-1.18 4.87-1.67 6.85-2.26 2.75-.6 2.78v13.53l.6-2.78 2.26-2.75ZM128.23 127.36l-3.05-1.6v13.53l3.05 1.6v-13.53ZM95.51 153.41l.98 4.67 1.53 4.45 3.24 5.22.44 4.31v-13.53l-.44-4.31-3.24-5.22-1.53-4.45-.14-.7v-5.77l-5.31-2.75v13.53l4.47 2.31v2.24ZM311.24 142.6l-1.12 3.44v13.53l1.12-3.44V142.6ZM546.24 160.27l1.43 3.65v-13.53l-1.43-3.65-2.6-.6-4.08-4.4v13.52l4.08 4.42 2.6.59ZM441.64 175.78l-.1 3v13.53l.1-3v-13.53ZM664.26 199.8a4.7 4.7 0 0 1-.34.1l-.08.01-.28.06-.11.03-.3.05-.07.01-.36.07-.23.04-.19.04-.35.06c-.02.04-.06.08-.1.12v.02a1.18 1.18 0 0 1-.14.13l-.15.11-.03.02-.18.11-.02.01c-.07.04-.13.08-.2.1l-.01.01-.24.11-.03.02a7.6 7.6 0 0 1-.24.1c-.02 0-.03 0-.04.02l-.25.1h-.05l-.26.1-.04.02-.27.09h-.02l-.29.1h-.01l-.28.08-.04.01-.26.08-.04.01-.29.08-.03.01-.27.08h-.05l-.04.02-.15.04-.05.02-.23.06h-.02l-.26.07-.04.01-.21.06-.16.04-.07.02-.08.02-.03.01-.05.01-.1.03-.04.02-.12.04h-.01a2.63 2.63 0 0 1-.09.05.44.44 0 0 0-.08.05l-.02.01a.48.48 0 0 0-.08.07l-.01.02a.46.46 0 0 0-.06.1l-.01.01v.02a1 1 0 0 0-.06.25l-.01.03-.02.11V203.51l-3.88 3.8-2.5 3.54-4.82 1.46-5.9 1.46-10.17 6.89v13.53l10.17-6.89 5.9-1.46 4.81-1.46 2.5-3.55 3.89-3.8v-.4l.02-.11v-.04l.02-.11c.01-.06.03-.1.05-.14l.01-.03a.74.74 0 0 1 .06-.1l.01-.02a.52.52 0 0 1 .08-.07l.03-.02.08-.05.09-.04.13-.05h.04l.1-.04.05-.01.1-.03.08-.02.15-.04.2-.05.05-.02.24-.07h.02l.03-.01.23-.07.05-.01.15-.04.04-.01.04-.01.28-.08h.03l.29-.09h.02l.02-.01.27-.08h.03l.28-.1h.01l.29-.08.01-.01.28-.1h.04l.26-.1.05-.01.25-.1.04-.01a3.65 3.65 0 0 0 .5-.23h.01l.2-.1.03-.02.18-.11.03-.02a2.25 2.25 0 0 0 .28-.24l.02-.02a.78.78 0 0 0 .09-.12l.34-.06.26-.05.17-.03.37-.07h.05l.31-.07.1-.02.3-.06.08-.02.32-.08h.02l.25-.09.13-.04.35-.14 9.63-7.51 5.01-3.27 5.46 1.1 2.5-.06 1.08-1.57 2.02 2.44v-13.53l-2.02-2.44-1.08 1.57-2.5.07-5.46-1.11-5.01 3.27-9.63 7.51a5 5 0 0 1-.35.14l-.13.04-.25.08-.02.01ZM647.55 248.9l5.36-3.9v-13.52l-5.36 3.9v13.52ZM679.54 243.79l-2.16 1.18-13.86 8.8-.54 1.95-6.44 4-2.3 1.7-.5 1.99-2.8 2.99v13.53l2.8-3 .5-1.98 2.3-1.7 6.44-4 .54-1.95 13.86-8.8 2.16-1.18 8.5-2.57 5.89.52v-13.53l-5.9-.53-8.5 2.58ZM73.74 296.63l5.21 3.55 3.2.13.54 7.14v-13.53l-.54-7.14-3.2-.13-4.27-2.92v-8.91l-4.57-5.43-5.5-3.3-1.43-2.5-1.32-3.28-20.4-7.06-2.45.6L28.4 242.6l-3.79-1.81-2.16-.6-1.72-.29v-4.3l-1.72-5.67-3-5.35-6.04-6.05-3.44-.1-.78 1.7-1.87-2.77v-11.04l-.4-1.74v12.19L.2 211.89l-.2-2.5v13.53l.2 2.5 5.55 8.25.78-1.71 3.44.1 6.05 6.06.6 1.08-5.67-.98v13.53l11.5 1.99 2.16.59 3.79 1.8L39 267.38l2.46-.59 20.39 7.06 1.32 3.27 1.43 2.5 5.5 3.3 2.06 2.46v9.2l1.57 2.06ZM675.75 293.54v13.52l.15-3.1v-13.52l-.15 3.1ZM672.65 334.85l4.28-3.4a49.32 49.32 0 0 0 5.78-2.08l.13-.07.05-.03.1-.07.05-.02.16-.1.2-.13.12-.08c.02 0 .04-.02.06-.04l.14-.08.03-.02.17-.1c.02 0 .03-.02.05-.03l.12-.06.05-.03a8.4 8.4 0 0 1 .36-.14l.05-.02.09-.02.1-.01 5.7-1.3V313.5l-.06.01v-9.5l-4.27.03-4.67-1.77-2.9 1.18v13.53l2.9-1.18.72.27a92.67 92.67 0 0 1-2.1.83l-.64.23c-.82.29-1.65.55-2.5.8l-4.28 3.4v13.53h.01Z"/>
    <path d="M687.4 329.71v4.01l-.99 1.07-9.78 12.87-4.12 3.34-11.94 14.23-4.67 4.03v3l-27.36 21.14L607.46 405l-8.9.9-4.07-.28-21.08.52-1.37 1.47-1.63 1.87-13.36 7.24-9.73.56-9.63 3.27-2.21-.5-3.05.8-3.68 1.71-2.8 9.67-10.37-5.77v-2.13l-6.58-3.85-8.75-3.66-22.15-.55-6.83-8.6-8.65-4.27h-.3v-5.46l-.05-.04-1.08-.1-.4-.35-.77.17-.3.52-.69.1-.83.63-.69.04v.54l-.88.4-.89.73v3.02l-9.48.28-1.97 1.05-5.16 1.73-3.58-1.31-1.92 3.34-2.21-1.19-2.36-1.88-3.34.8-16.5 2.37-7.62 12.84-4.91.97-8.06-4.6-11.94-3.54-8.7-3.4v-2.3l-.63-1.88v-5.05l-6.59-.63-.64-9.46-3.34-.48-6.73-.07-3.59 1-1.86 1.02v-2.75l-2.6-5.05v13.53l1.07 2.09v6.54l3.4-1.85 3.58-1 6.73.06 3.34.5.64 9.45 5.6.54v8.68l10.32 4.04 11.94 3.54 8.06 4.6 4.91-.98 7.61-12.83 16.51-2.37 3.34-.8 2.36 1.88 2.21 1.18 1.92-3.34 3.58 1.32 5.16-1.74 1.97-1.04 16.36-.49 8.65 4.28 6.83 8.6 22.15.55L509 434l5.9 3.46v2.15l11.05 6.15 1.91-6.61v5.6h-.2v1.24l-.24.05-.34 1.01v1.67l-.69.18-.69 1.15-1.86-.11-1.23.56-1.43.97-.68 1.53-.74.07-.93-.45-1.58.42-.2-.25-.58.07-.69 1.01v.98l-.3.1-.2-.38-.78.06-.78.74-.06-.53-.83-.13-.24.19v-.5l-.54-.36-2.02-.24-2.01.2-1.03-.79-1.68.07-.39-.49-3.78-1.04v-2.47l-.25-.28v-4.35l-.24-.41h-.5v1.73l-.24-.62v13.53l.2.5v2.28l.88.98v2.6l3.93 1.08.4.49 1.67-.07 1.03.8 2.01-.21 2.02.24.34.22v.79l.44-.35.83.14.06.52.78-.73.79-.07.2.39.39-.14.25-.35v-1.1l.34-.5.59-.07.2.24 1.57-.41.93.45.74-.07.68-1.53 1.43-.98 1.23-.56 1.86.11.7-1.15.97-.24v-2.47l.05-.14.5-.1.1-.9v-.29h.14l.69-1.53.68-.28v-.69l1.09-.35 1.08-1.25v-.32l.4.53 1.7-1.25.75-.1V439.5l-.74.1-1.42 1.04v-.76l-1.23-.04v1.43l-.54.63-1.18.38v.7l-.6.23-.33.77v-7.06l.24-.84 3.68-1.7 3.05-.8 2.21.48 9.63-3.26 9.73-.56 13.36-7.24 1.63-1.88 1.37-1.45 21.08-.53 4.08.28 8.89-.9 21.08-11.6 30.26-23.36v-3.28l1.77-1.52 11.94-14.23 4.12-3.34 9.78-12.87 2.5-2.72v-3.62l2.32-1.9 2.06-1.05V325.5l-2.06 1.05-3.83 3.16ZM346.62 356.7l11.3 10.37 1.18 7.4.2 2.16v-13.52l-.2-2.16-1.18-7.41-11.3-10.37-2.66-1.56-3.28 1.5-26.39-10-5.3 2.24-9.14-3.38-9.04 5.85-6.59 2.08-7.32 4.1-6.63 5.5-7.22.7-10.52-3.76-7.96.49-4.37.1-14.1-.17-4.86 4.94-3.98 2.15v-4.4l-52.37-9.16-7.18.07-3.88-1.43-3.2-5.5-18.27-5.66-6.04-3.55-4.28-.98-8.06-4-3.58 2.68-8.2-1.35-3.25-1.95-5.36-1.12-9.08-4.34-6.4-5.7-4.27-2.1-.83-4.55v13.53l.83 4.55 4.28 2.09 6.39 5.7 9.08 4.35 5.36 1.12 3.24 1.94 8.2 1.36 3.6-2.68 8.05 4 4.28.98 6.04 3.54 18.27 5.68 3.2 5.5 3.88 1.42 7.18-.07 51.78 9.04v4.84l4.57-2.47 4.86-4.94 14.1.17 4.37-.1 7.96-.5 10.52 3.77 7.22-.7 6.63-5.5 7.32-4.1 6.59-2.09 9.04-5.84 9.14 3.37 5.3-2.22 26.38 9.98 3.3-1.5 2.65 1.57ZM688.97 383l-.15.84v3.5l-.25.18-.39 1.4-1.42 1.11-.15.8-.64.56v1.23l-.14.12-1.48 4.87v.76l-1.52 2.69v1.05l-.54.23-1.58 2.27-.88.34v.8l-.2.21-2.01 1-1.97 3.63v3.26l-.74.46v.87l-1.12-.52-.35.41-.34-.12v-1.9l-1.08-2.15-.79-.73-3.29-1.5-1.18-1.21v-13.3l-.35-.34v13.29l-.14-1.12-1.13-2.36V399l-.1-1.11h-.05v-.42l-.14-1.21v1.59l-.3-.06v5.47l-.15-.1v-2.66l-.15-.45v3.02l-.19-.12v-1.1l-.25-.59v1.53l-.54-.34v13.53l1.87 1.18 1.13 2.36.14 1.12 1.53 1.56 3.3 1.5.78.73.63 1.27v1.72l.4 1.04.4.14.34-.42 1.42.67v-1.2l.5-.3v-3.32l1.9-3.53 2.02-1.01.4-.42v-.67l.68-.27 1.58-2.26.64-.28v-1.18l1.62-2.85v-1.07l1.28-4.22.58-.49v-1.25l.2-.18.15-.8 1.42-1.1.4-1.4.68-.52v-.47l.45-.12.1-.77v-3.48l.58-.59 1.13-.45v-13.53l-1.13.46-1.42 1.42Z"/>
    <path d="M668.28 391.25v13.52l.6.1v-13.52l-.6-.1ZM509.34 451.7l.1.48v-13.52l-.1-.49-1.17.42-.4-.56v13.53l.4.56 1.17-.42Z"/>
  </g>
  <path fill="#BBD7F7" d="m690.34 379.98.25.97.93.18-1.13.45-1.42 1.43-.15.83.34 1.19.64.62-.1.77-.49.13.05.46-.7.52-.38 1.4-1.43 1.1-.15.8-.63.56.44.87-.6.5-1.47 4.86.2.42-1.72 3.02.1 1.01-.64.28-1.57 2.26-.88.35.2.6-.4.4-2 1.02-1.97 3.62.04 3.23-.78.49.3 1-1.43-.65-.35.41-.39-.14-.4-1.04.45-.84-1.08-2.15-.79-.74-3.29-1.5-1.52-1.56-.15-1.11-1.13-2.37-1.87-1.18.8-.6-.26-.59.6-.76-.15-.45.44-.98.44-.07-.1-1.12-.49-.1.44-.31-.14-1.22.53-.66v-1.15l1.38-.28-.34-.35.5-.13.63-1.26 1.33-1.08-.6-.1 1.48-1.11.05-.67.54-.55.3.07 2.45-3.3 2.66-1.68.2-1.07 1.91-2.13 2.31-.8 2.56-.41.88-1.15 2.06-.46 1.82 1.4 2.85.59ZM868.7 82.63l-8.7 2.85-15.97 4.73-6.04 2.72-14.14-.42-5.16-2.47-.98-6.09-4.28-4.8-1.47-4.38-2.85.52-9.63-6.54-6.69-.98-5.35-3.27-4.67-.34-2.16 1-6.14-1.07-4.52-6.68 1.52-3.28-3.59-1.46-.78-2.54 1.04-1.67-1.82-3.1-1.72-2.5-2.76-2.05-.29-2.26-.93-5.26-2.6-3.72-2.66-6.79-7.12-9.8-7.23-5.7-3.78-1.5-7.08.03-9.82-3.52L718 .76 712.06 0l-5.75.35-2.94.97-2.76-.17-8.05.73-3.15-.03-5.26 1.53-6.43.73-3.1.8-4.22 2.82-1.08 7.23 3.43 2.64-5.35 11.48-10.07 12.63-1.48 1.6-3.04 12.87-5.26 1.77-13.07 5.77-2.36 1.67-5.35-1.91-2.95-.04-4.67-1.39-3.54-1.88-8.4 16.25-4.18 4 .05 3.9-4.52 1.35.94 3.72 5.15 3.9 4.62-3.03 7.81-.35 4.37 1.36 3.79 2.57 2.6-2.26 4.08-3.55 5.9.35 3.24.03 4.22 2.93 4.97 1.56 2.85 4.04 6.87 7.58-.44 4.42-5.25-.18-6.1-2.71-7.51.56-3.98.87-1.92 1.35-9.63 4.1-8.65.5-3 1.18-2.55 2.02-6.29 7.02-5.1 2.6-5.56.6-2.75-.17-7.27 1.67-1.57 1.74-4.77 3.02-3.68 1.5-2.36 1.46-2.36-.66-4.86-.14-5.4-1.05-4.72-2.68-7.52-.17-2.11 1.6-2.6 3.4-.6 1.92-1.86 3.4 4.08 4.43 2.6.59 1.42 3.65-2.75.49-4.81 3.12-5.4 1.78-4.92 3.96-1.13 1.74-4.13 2.82-2.6 1.22-4.57.18-4.08 2.08-3.98.66-4.32-.45-2.65.63-3.69-.63-4.13-.07-4.66.66-6.59-.66-2.65 1.42-8.35 1.33-12.58 4.1-7.67 3-4.62 1.25-5.84-.25.1-2.99-9.73 1.05-7.72-1.36-4.96-1.6-3.39-1.5-4.67-.06-5.01-1.08-3.54-3.48-12.92-2.33-9 .17-4.12-.2-7.13 1.04-17.83-.9-3.3-.63-6.97-.73c-1.32-.14-2.95-.52-4.22-.52-1.41 0-2.57.92-4.32.9l-3.69-.42-4.42.35-.6-2.3-2.4-1.73-1.18-1.6-2.55-1.95-.2-1.87-3.14-5.32-1.57-2.9-2.95-.76 1.13-3.44h-7.07l-3.34-.83-1.72-1.43-5.4-3.03-6.88-3.23-3-1.08-6.3-.76-9.92-.42-5.1-.31-12.68-1.88-4.81-2.54-1.87-1.98.59-2.79 2.26-2.74 1.67-6.86 1.18-4.87-4.72-4.41-3.93-7.24-1.72-2.54-11.05-5.91-11.45-1.32-6.14-5.19-5.25-1.07-7.87-8.21-4.07-1.05-7.81 9.36-5.36 1.64-2.85-.21-3.98 1.18-1.77 4.34-.98 2.2.83 6.29 1.53 2.16-1.87 2.74-.69 1.95-8.1 2.78-2.56-.55-1.43-1.43-3.63-.06-3.1.13-3.39.07-13.56-3.2-1.32 2.96-.7 2.01-1.17 1.85-.98 3.4-3 4.91-.34 2.92-1.23 7.41 3.04 1.6-.53 1.84-1.53 1.57-3.34-1.64-9-1.7-10.5 3.2-12 1.67-.29 3.02 5.31 2.75-.83 1.81.98 4.66 1.52 4.46 3.24 5.22.44 4.3-2.65 3.49-4.76.94-.69 5.5-5.2 5.56-2.51 3.1-7.47.83-12.53 6.92-5.65 1.88-4.71 1.08-7.17-.87-3.74 2.78-16.36 4.56-3.2-.7-2.84 1.56-3.34-.1-2.8.07-3.84 3.2-8.74 6.27.4 1.74-1.38 1.7L0 209.39l.2 2.5 5.55 8.25.79-1.7 3.43.1 6.05 6.05 3 5.36 1.71 5.67-6.53 1.12-3.24 1.5 11.5 1.97 2.15.6 3.79 1.8L39 253.85l2.46-.6 20.4 7.07 1.32 3.27 1.42 2.5 5.5 3.3 4.58 5.43-2.5 2.96v3.27l1.56 2.05 5.21 3.55 3.2.14.54 7.13-6.73 2.89-2.95 4.1.83 4.56 4.28 2.08 6.38 5.7 9.1 4.36 5.35 1.11 3.24 1.95 8.2 1.35 3.6-2.67 8.06 4 4.27.97 6.04 3.55 18.28 5.67 3.2 5.5 3.87 1.42 7.18-.07 52.37 9.15-.59 4.73 4.57-2.47 4.86-4.94 14.1.18 4.37-.11 7.96-.49 10.52 3.76 7.22-.7 6.64-5.5 7.32-4.1 6.58-2.08 9.04-5.84 9.14 3.37 5.3-2.23 26.39 9.98 3.29-1.5 2.66 1.57 11.3 10.37 1.17 7.4.2 2.17-4.28 9.1-2.45 2.97-6.69 3.06-1.91 4.8-1.97 2.36 2.6 5.05-1.52 3.58 3.4-1.84 3.58-1.01 6.73.07 3.34.49.64 9.46 6.58.63-.3 4.17.94 2.75-1.62 1.66 10.32 4.04 11.94 3.55 8.06 4.59 4.91-.97 7.62-12.84 16.5-2.36 3.34-.8 2.36 1.87 2.22 1.18 1.91-3.34 3.59 1.32 5.16-1.73 1.96-1.05 16.36-.49 8.65 4.28 6.83 8.6 22.16.55 8.74 3.65 6.58 3.86-.68 1.74 11.05 6.16 2.8-9.67 3.69-1.7 3.04-.8 2.22.48 9.62-3.26 9.73-.56 13.37-7.24 1.62-1.88 1.37-1.46 21.08-.52 4.08.28 8.9-.9 21.07-11.59 30.27-23.37-2.9-.77 4.67-4.03L672.52 351l4.13-3.35 9.78-12.87 2.5-2.71-1.52-2.37 3.83-3.16 2.06-1.05-6.38-.9-7.28-4.04-6.98.77 4.28-3.41a49.25 49.25 0 0 0 5.65-2.02c.59-.24 1.47-1.04 2.16-1.11l5.7-1.3-.99-2.11-1.67-1.74-7.02-4-2.21-2.2 2.9-1.17 4.67 1.77 4.27-.04-1.08-2.08-1.77-1.36-4.42-2.64-.64-1.77-6.74-2.61.15-3.1-3.3-6.95-4.9-7.76-.9-2.47-3.82-1.57-5.31-1.67-6.73-3.61 2.8-3 .5-1.98 2.3-1.7 6.44-4 .54-1.95 13.86-8.8 2.16-1.18 8.5-2.57 5.9.52-3.34-8-17.15-4.59-6.39 3.2-3 1.74-13.85 3.02-2.65-1.74 5.36-3.9-4.38-3.96-7.51-1.98-6.3-.87c-1.27-.56-4.12-1.7-5.99-4l10.17-6.9 5.9-1.45 4.82-1.46 2.5-3.55 3.88-3.8c0-1.18.15-1.04 1.62-1.45 1.13-.32 3.88-.98 4.32-1.78.93-.17 2.21-.34 3.05-.73l9.63-7.5 5.01-3.28 5.45 1.12 2.5-.07 1.09-1.57 2.01 2.44-4.12 22.4 16.35-6.65 22.6-7.02 9-5.43 21.37-12.03 23.43.73 2.22-3.44-3.05-2.47-.2-2.2 3.44-.8 6.2-.06 3.04-.46 11.54-8.77 6.93.07 3.83 1.4-.4-2.33 4.77-1.3 3.94-2 1.9-8.04.9-6.75-2.7-8.63 5.35-4.28 8.3-3.48 1.82 4-1.03 3.06 2.9 1.78 3.49.87 1.96-1.91 3.93-4.7 1.62-3.1 8.26-10.12 2.7-7.8 2.36-2.67.1-2.47 2.26-7.44 4.47-1.81.83-8.7-2.3-5.5h-.01Zm-407.5 315.2-.4-.35-.77.13-.3.56-.64.07-.83.63-.74.03.69-.03.83-.63.69-.1.3-.52.78-.18.39.35 1.08.1.05.04-1.13-.1Zm-4.52 2.05-.92.72-.01-.03.88-.73.94-.42-.89.45Zm73.4 35.1-.44-.95-.64.63-1.03.14-.1.6.6.13.04 1.08-.34-.8-3.1-.94-.83.14v.32l-.54.17-1.67-.38-.5.66-1.47.52-.64.03-.49-.48-1.33.52-.4-.42-.19.52-.05-.35-1.42-.41-1.33.1-1.08.52-.2 1.08-.34.07-.55-.35-.58.18-.64-.42-.64.14-.34-.38-.64.18-.05.41-.54.07-.84.73.4.56 1.17-.42.1.5-.54.03-.83.76-2.5.73-3.8 2.23h-.73l-.79.9-.1.91h.5l.25.42-.99.7.7 1.73-.5 1.05 1.03 1.15-.14 2.43 3.92 1.08.4.49 1.67-.08 1.03.8 2.01-.2 2.02.24.54.35-.2.66.44-.35.84.14.05.52.78-.73.79-.07.2.39.4-.14.24-.35-.35-.6.7-1 .58-.07.2.24 1.57-.42.93.45.74-.07.68-1.53 1.43-.97 1.23-.56 1.87.1.68-1.14.99-.25-.3-1.6.34-1 .5-.1.1-.91-.35-.28h.5l.68-1.53.69-.28-.1-.66 1.18-.38 1.08-1.26-.54-.8 1.23.04-.89.17.59.8 1.72-1.25.74-.1-1.33-3.8-2.26-.06-.88-.66v-.02Z"/>
  <circle class="path-border" data-trigger-name="kazakhstan-border" cx="176" cy="77.01" r="15" fill="#E0733B" stroke="#fff" stroke-width="2"/>
  <path class="path-border" data-trigger-name="kazakhstan-border" fill="#fff" d="M170.33 70.51c-.92 0-1.66.82-1.66 1.84V83H172V72.35c0-1.02-.75-1.84-1.67-1.84Zm.28 7.84h-.56V75.9h.56v2.45Zm-.28-4.98c-.5 0-.92-.46-.92-1.02 0-.57.41-1.02.92-1.02s.93.45.93 1.02c0 .56-.41 1.02-.93 1.02ZM182.19 70.51H172l.45.39h1.01l2.05 1.73h-2.55v.38h9.23c.81 0 1.48-.56 1.48-1.25 0-.68-.67-1.25-1.48-1.25Zm1.03 1.25c0 .07-.01.14-.03.2l-1.26-1.06h.26c.57 0 1.03.39 1.03.86Zm-4.94-.86 2.06 1.73h-1.17l-2.06-1.73h1.17Zm-3.58 0h1.17l2.05 1.73h-1.16l-2.06-1.73Zm6.88 1.73-2.06-1.73h1.17l1.95 1.64c-.14.06-.29.1-.45.1h-.61Z"/>
  <circle class="path-border" data-trigger-name="mongolia-border" cx="233" cy="91.01" r="15" fill="#BD3A2F" stroke="#fff" stroke-width="2"/>
  <path class="path-border" data-trigger-name="mongolia-border" fill="#fff" d="M227.33 85.51c-.92 0-1.66.82-1.66 1.84V98H229V87.35c0-1.02-.75-1.84-1.67-1.84Zm.28 7.84h-.56V90.9h.56v2.45Zm-.28-4.98c-.5 0-.92-.46-.92-1.02 0-.57.41-1.02.92-1.02s.93.45.93 1.02c0 .56-.41 1.02-.93 1.02ZM239.19 85.51H229l.45.39h1.01l2.05 1.73h-2.55v.38h9.23c.81 0 1.48-.56 1.48-1.25 0-.68-.67-1.25-1.48-1.25Zm1.03 1.25c0 .07-.01.14-.03.2l-1.26-1.06h.26c.57 0 1.03.39 1.03.86Zm-4.94-.86 2.06 1.73h-1.17l-2.06-1.73h1.17Zm-3.58 0h1.17l2.05 1.73h-1.16l-2.06-1.73Zm6.88 1.73-2.06-1.73h1.17l1.95 1.64c-.14.06-.29.1-.45.1h-.61Z"/>
  <circle class="path-border" data-trigger-name="mongolia-border" cx="448" cy="174.01" r="15" fill="#BD3A2F" stroke="#fff" stroke-width="2"/>
  <path class="path-border" data-trigger-name="mongolia-border" fill="#fff" d="M442.33 167.51c-.92 0-1.66.83-1.66 1.84V180H444v-10.66c0-1.01-.75-1.84-1.67-1.84Zm.28 7.84h-.56v-2.45h.56v2.45Zm-.28-4.98c-.5 0-.92-.46-.92-1.02s.41-1.02.92-1.02c.52 0 .93.45.93 1.02 0 .56-.41 1.02-.93 1.02ZM454.19 167.51H444l.45.39h1.01l2.06 1.73h-2.56v.38h9.23c.81 0 1.48-.56 1.48-1.25 0-.68-.67-1.25-1.48-1.25Zm1.03 1.25c0 .07-.01.14-.03.2l-1.26-1.06h.26c.57 0 1.03.38 1.03.86Zm-4.94-.86 2.06 1.73h-1.17l-2.06-1.73h1.17Zm-3.58 0h1.17l2.05 1.73h-1.16l-2.06-1.73Zm6.88 1.73-2.06-1.73h1.17l1.95 1.64c-.14.06-.29.1-.45.1h-.61Z"/>
  <circle class="path-border" data-trigger-name="russia-border" cx="637" cy="59.01" r="15" fill="#2A4B57" stroke="#fff" stroke-width="2"/>
  <path class="path-border" data-trigger-name="russia-border" fill="#fff" d="M631.33 52.51c-.92 0-1.66.82-1.66 1.84V65H633V54.35c0-1.02-.75-1.84-1.67-1.84Zm.28 7.84h-.56V57.9h.56v2.45Zm-.28-4.98c-.5 0-.92-.46-.92-1.02 0-.57.41-1.02.92-1.02s.93.45.93 1.02c0 .56-.41 1.02-.93 1.02ZM643.19 52.51H633l.45.39h1.01l2.05 1.73h-2.55v.38h9.23c.81 0 1.48-.56 1.48-1.25 0-.68-.67-1.25-1.48-1.25Zm1.03 1.25c0 .07-.01.14-.03.2l-1.26-1.06h.26c.57 0 1.03.39 1.03.86Zm-4.94-.86 2.06 1.73h-1.17l-2.06-1.73h1.17Zm-3.58 0h1.17l2.05 1.73h-1.16l-2.06-1.73Zm6.88 1.73-2.06-1.73h1.17l1.95 1.64c-.14.06-.29.1-.45.1h-.61Z"/>
  <circle class="path-border" data-trigger-name="russia-border" cx="770" cy="48.01" r="15" fill="#2A4B57" stroke="#fff" stroke-width="2"/>
  <path class="path-border" data-trigger-name="russia-border" fill="#fff" d="M764.33 41.51c-.92 0-1.66.82-1.66 1.84V54H766V43.35c0-1.02-.75-1.84-1.67-1.84Zm.28 7.84h-.56V46.9h.56v2.45Zm-.28-4.98c-.5 0-.92-.46-.92-1.02 0-.57.41-1.02.92-1.02s.93.45.93 1.02c0 .56-.41 1.02-.93 1.02ZM776.19 41.51H766l.45.39h1.01l2.05 1.73h-2.55v.38h9.23c.81 0 1.48-.56 1.48-1.25 0-.68-.67-1.25-1.48-1.25Zm1.03 1.25c0 .07-.01.14-.03.2l-1.26-1.06h.26c.57 0 1.03.39 1.03.86Zm-4.94-.86 2.06 1.73h-1.17l-2.06-1.73h1.17Zm-3.58 0h1.17l2.05 1.73h-1.16l-2.06-1.73Zm6.88 1.73-2.06-1.73h1.17l1.95 1.64c-.14.06-.29.1-.45.1h-.61Z"/>
  <circle class="path-border" data-trigger-name="russia-border" cx="825" cy="155.01" r="15" fill="#2A4B57" stroke="#fff" stroke-width="2"/>
  <path class="path-border" data-trigger-name="russia-border" fill="#fff" d="M819.33 148.51c-.92 0-1.66.83-1.66 1.84V161H821v-10.66c0-1.01-.75-1.84-1.67-1.84Zm.28 7.84h-.56v-2.45h.56v2.45Zm-.28-4.98c-.5 0-.92-.46-.92-1.02s.41-1.02.92-1.02.93.45.93 1.02c0 .56-.41 1.02-.93 1.02ZM831.19 148.51H821l.45.39h1.01l2.05 1.73h-2.55v.38h9.23c.81 0 1.48-.56 1.48-1.25 0-.68-.67-1.25-1.48-1.25Zm1.03 1.25c0 .07-.01.14-.03.2l-1.26-1.06h.26c.57 0 1.03.38 1.03.86Zm-4.94-.86 2.06 1.73h-1.17l-2.06-1.73h1.17Zm-3.58 0h1.17l2.05 1.73h-1.16l-2.06-1.73Zm6.88 1.73-2.06-1.73h1.17l1.95 1.64c-.14.06-.29.1-.45.1h-.61Z"/>
  <circle class="path-border" data-trigger-name="russia-border" cx="801" cy="170.01" r="15" fill="#2A4B57" stroke="#fff" stroke-width="2"/>
  <path class="path-border" data-trigger-name="russia-border" fill="#fff" d="M795.33 163.51c-.92 0-1.66.83-1.66 1.84V176H797v-10.66c0-1.01-.75-1.84-1.67-1.84Zm.28 7.84h-.56v-2.45h.56v2.45Zm-.28-4.98c-.5 0-.92-.46-.92-1.02s.41-1.02.92-1.02.93.45.93 1.02c0 .56-.41 1.02-.93 1.02ZM807.19 163.51H797l.45.39h1.01l2.05 1.73h-2.55v.38h9.23c.81 0 1.48-.56 1.48-1.25 0-.68-.67-1.25-1.48-1.25Zm1.03 1.25c0 .07-.01.14-.03.2l-1.26-1.06h.26c.57 0 1.03.38 1.03.86Zm-4.94-.86 2.06 1.73h-1.17l-2.06-1.73h1.17Zm-3.58 0h1.17l2.05 1.73h-1.16l-2.06-1.73Zm6.88 1.73-2.06-1.73h1.17l1.95 1.64c-.14.06-.29.1-.45.1h-.61Z"/>
  <circle class="path-border" data-trigger-name="kazakhstan-border" cx="144" cy="99.01" r="15" fill="#E0733B" stroke="#fff" stroke-width="2"/>
  <path class="path-border" data-trigger-name="kazakhstan-border" fill="#fff" d="M138.33 93.51c-.92 0-1.66.82-1.66 1.84V106H140V95.35c0-1.02-.75-1.84-1.67-1.84Zm.28 7.84h-.56V98.9h.56v2.45Zm-.28-4.98c-.5 0-.92-.46-.92-1.02 0-.57.41-1.02.92-1.02s.93.45.93 1.02c0 .56-.41 1.02-.93 1.02ZM150.19 93.51H140l.45.39h1.01l2.05 1.73h-2.55v.38h9.23c.81 0 1.48-.56 1.48-1.25 0-.68-.67-1.25-1.48-1.25Zm1.03 1.25c0 .07-.01.14-.03.2l-1.26-1.06h.26c.57 0 1.03.39 1.03.86Zm-4.94-.86 2.06 1.73h-1.17l-2.06-1.73h1.17Zm-3.58 0h1.17l2.05 1.73h-1.16l-2.06-1.73Zm6.88 1.73-2.06-1.73h1.17l1.95 1.64c-.14.06-.29.1-.45.1h-.61Z"/>
  <circle class="path-border" data-trigger-name="kazakhstan-border" cx="107" cy="127.01" r="15" fill="#E0733B" stroke="#fff" stroke-width="2"/>
  <path class="path-border" data-trigger-name="kazakhstan-border" fill="#fff" d="M101.33 120.51c-.92 0-1.66.82-1.66 1.84V133H103v-10.66c0-1.02-.75-1.84-1.67-1.84Zm.28 7.84h-.56v-2.45h.56v2.45Zm-.28-4.98c-.5 0-.92-.46-.92-1.02s.41-1.02.92-1.02c.52 0 .93.45.93 1.02 0 .56-.42 1.02-.93 1.02ZM113.19 120.51H103l.45.38h1.01l2.06 1.74h-2.56v.38h9.23c.81 0 1.48-.56 1.48-1.25 0-.68-.67-1.25-1.48-1.25Zm1.03 1.25c0 .07-.01.14-.03.2l-1.26-1.06h.26c.57 0 1.03.38 1.03.86Zm-4.94-.87 2.05 1.74h-1.16l-2.06-1.73h1.17Zm-3.58 0h1.17l2.05 1.74h-1.16l-2.06-1.73Zm6.88 1.74-2.06-1.73h1.17l1.95 1.64c-.14.06-.29.1-.45.1h-.61Z"/>
  <circle class="path-border" data-trigger-name="kazakhstan-border" cx="81" cy="170.01" r="15" fill="#E0733B" stroke="#fff" stroke-width="2"/>
  <path class="path-border" data-trigger-name="kazakhstan-border" fill="#fff" d="M74.33 164.51c-.92 0-1.66.83-1.66 1.84V177H76v-10.66c0-1.01-.75-1.84-1.67-1.84Zm.28 7.84h-.56v-2.45h.56v2.45Zm-.28-4.98c-.5 0-.92-.46-.92-1.02s.41-1.02.92-1.02.93.45.93 1.02c0 .56-.42 1.02-.93 1.02ZM86.19 164.51H76l.45.39h1.01l2.05 1.73h-2.55v.38h9.23c.81 0 1.48-.56 1.48-1.25 0-.68-.67-1.25-1.48-1.25Zm1.03 1.25c0 .07-.01.14-.03.2l-1.26-1.06h.26c.57 0 1.03.38 1.03.86Zm-4.94-.86 2.05 1.73h-1.16l-2.06-1.73h1.17Zm-3.58 0h1.17l2.05 1.73h-1.16l-2.06-1.73Zm6.88 1.73-2.06-1.73h1.17l1.95 1.64c-.14.06-.29.1-.45.1h-.61Z"/>
  <circle class="path-border" data-trigger-name="russia-border"  cx="845" cy="139.01" r="15" fill="#2A4B57" stroke="#fff" stroke-width="2"/>
  <path class="path-border" data-trigger-name="russia-border" fill="#fff" d="M839.33 132.51c-.92 0-1.66.83-1.66 1.84V145H841v-10.66c0-1.01-.75-1.84-1.67-1.84Zm.28 7.84h-.56v-2.45h.56v2.45Zm-.28-4.98c-.5 0-.92-.46-.92-1.02s.41-1.02.92-1.02.93.45.93 1.02c0 .56-.41 1.02-.93 1.02ZM851.19 132.51H841l.45.39h1.01l2.05 1.73h-2.55v.38h9.23c.81 0 1.48-.56 1.48-1.25 0-.68-.67-1.25-1.48-1.25Zm1.03 1.25c0 .07-.01.14-.03.2l-1.26-1.06h.26c.57 0 1.03.38 1.03.86Zm-4.94-.86 2.06 1.73h-1.17l-2.06-1.73h1.17Zm-3.58 0h1.17l2.05 1.73h-1.16l-2.06-1.73Zm6.88 1.73-2.06-1.73h1.17l1.95 1.64c-.14.06-.29.1-.45.1h-.61Z"/>
  <circle class="path-border" data-trigger-name="russia-border" cx="858" cy="119.01" r="15" fill="#2A4B57" stroke="#fff" stroke-width="2"/>
  <path class="path-border" data-trigger-name="russia-border" fill="#fff" d="M852.33 112.51c-.92 0-1.66.82-1.66 1.84V125H854v-10.66c0-1.02-.75-1.84-1.67-1.84Zm.28 7.84h-.56v-2.45h.56v2.45Zm-.28-4.98c-.5 0-.92-.46-.92-1.02s.41-1.02.92-1.02.93.45.93 1.02c0 .56-.41 1.02-.93 1.02ZM864.19 112.51H854l.45.38h1.01l2.05 1.74h-2.55v.38h9.23c.81 0 1.48-.56 1.48-1.25 0-.68-.67-1.25-1.48-1.25Zm1.03 1.25c0 .07-.01.14-.03.2l-1.26-1.06h.26c.57 0 1.03.38 1.03.86Zm-4.94-.87 2.06 1.74h-1.17l-2.06-1.73h1.17Zm-3.58 0h1.17l2.05 1.74h-1.16l-2.06-1.73Zm6.88 1.74-2.06-1.73h1.17l1.95 1.64c-.14.06-.29.1-.45.1h-.61Z"/>
</svg>
