<svg xmlns="http://www.w3.org/2000/svg" fill="none" viewBox="0 0 32 32">
  <circle cx="16" cy="16" r="15" fill="#E0733B" stroke="#fff" stroke-width="2"/>
  <path fill="#fff" d="M10.33 9.5c-.92 0-1.66.82-1.66 1.83V22H12V11.33c0-1.01-.75-1.83-1.67-1.83Zm.28 7.84h-.56v-2.45h.56v2.45Zm-.28-4.99c-.5 0-.92-.46-.92-1.02s.41-1.02.92-1.02.93.46.93 1.02-.42 1.02-.93 1.02ZM22.19 9.5H12l.45.38h1.01l2.05 1.74h-2.55V12h9.23c.81 0 1.48-.56 1.48-1.25S23 9.5 22.19 9.5Zm1.03 1.25c0 .07-.01.13-.03.2l-1.26-1.07h.26c.57 0 1.03.4 1.03.87Zm-4.94-.87 2.05 1.74h-1.16L17.1 9.88h1.17Zm-3.58 0h1.17l2.05 1.74h-1.16L14.7 9.88Zm6.88 1.74-2.06-1.74h1.17l1.95 1.65c-.14.06-.29.09-.45.09h-.61Z"/>
</svg>
