<svg xmlns="http://www.w3.org/2000/svg" fill="none" viewBox="0 0 80 80">
  <path fill="#BBD7F7" stroke="#BBD7F7" stroke-width=".7" d="M66.94 41.28H54.79a.53.53 0 0 1-.52-.53V29.92a.53.53 0 1 1 1.05 0v10.3h11.62a.53.53 0 1 1 0 1.06ZM54.8 25.92a.53.53 0 0 1-.53-.53v-5.38a.95.95 0 0 0-.95-.95H18.24a.53.53 0 1 1 0-1.06h35.08a2 2 0 0 1 2 2v5.4c0 .28-.24.52-.53.52ZM22.15 56.7H20.4a2.77 2.77 0 0 1-2.68-2.79V38.86a.53.53 0 1 1 1.06 0v15.05c0 .93.75 1.73 1.61 1.73h1.77a.53.53 0 1 1 0 1.06ZM50.01 56.7H39.8a.53.53 0 1 1 0-1.05H50a.53.53 0 1 1 0 1.05Z"/>
  <path fill="#BBD7F7" stroke="#BBD7F7" stroke-width=".7" d="M69.22 56.7h-1.58a.53.53 0 1 1 0-1.05h1.58c.95 0 1.72-.78 1.72-1.73V41.67c0-1.96-.68-3.87-1.91-5.4l-7.24-8.88a4 4 0 0 0-3.1-1.47h-3.9a.53.53 0 1 1 0-1.06h3.9c1.52 0 2.95.68 3.91 1.87l7.25 8.88A9.63 9.63 0 0 1 72 41.67v12.25a2.79 2.79 0 0 1-2.78 2.78ZM30.97 62.54a6.38 6.38 0 1 1 .01-12.75 6.38 6.38 0 0 1-.01 12.75Zm0-11.68a5.32 5.32 0 1 0 0 10.63 5.32 5.32 0 0 0 0-10.63ZM58.82 62.54a6.38 6.38 0 1 1 .02-12.75 6.38 6.38 0 0 1-.02 12.75Zm0-11.68a5.32 5.32 0 1 0 .01 10.63 5.32 5.32 0 0 0 0-10.63Z"/>
  <path stroke="#BBD7F7" stroke-linecap="round" stroke-linejoin="round" stroke-width="2" d="M8.53 18.53h9.71M10.42 25.2h7.82M12.33 31.88h5.91M14.22 38.56h4.02"/>
</svg>
