<svg xmlns="http://www.w3.org/2000/svg" fill="none" viewBox="0 0 80 80">
  <path fill="#BBD7F7" stroke="#BBD7F7" stroke-width=".6" d="M14.8 41.24H8v1.38h6.8v-1.38ZM72 16H49.37v1.38H72V16Z"/>
  <path fill="#BBD7F7" stroke="#BBD7F7" stroke-width=".6" d="M50.06 17.38h-1.62a.69.69 0 1 1 0-1.38h1.62a.69.69 0 1 1 0 1.38ZM39 63.8h-.23a4.8 4.8 0 0 1-3.47-1.77 4.73 4.73 0 0 1-.87-4.18 4.76 4.76 0 0 1-4.59-1.24 4.75 4.75 0 0 1-1.26-4.53 4.77 4.77 0 0 1-5.78-5.82 4.74 4.74 0 0 1-5.93-4.52 4.74 4.74 0 0 1 1.38-3.44l.02-.02L29.1 27.44a7.13 7.13 0 0 1 5-2.07h.04l6.63.04c.19 0 .36.07.49.2l4.22 4.22a7.51 7.51 0 0 0 8.5 1.48 1.37 1.37 0 0 0 .38-2.22L44.34 19.06a5.73 5.73 0 0 0-4.07-1.68H8.69a.69.69 0 1 1 0-1.38h31.56c1.91 0 3.7.74 5.05 2.09l10.03 10.03a2.77 2.77 0 0 1-.76 4.43 8.9 8.9 0 0 1-10.07-1.74l-4.02-4.02-6.35-.04h-.03c-1.5 0-2.96.6-4.03 1.67L19.25 39.24l-.01.01a3.37 3.37 0 0 0 .08 4.9 3.48 3.48 0 0 0 4.8-.16.69.69 0 1 1 .98.97l-.07.08a3.38 3.38 0 0 0 0 4.81 3.4 3.4 0 0 0 4.81 0 .7.7 0 0 1 .97 0 .69.69 0 0 1-.03 1.01 3.38 3.38 0 0 0 .03 4.78 3.48 3.48 0 0 0 4.81 0l.16-.16a.69.69 0 0 1 .98.97c-1.32 1.31-1.49 3.39-.4 4.72a3.38 3.38 0 0 0 5.04.26l17.16-17.16a10.26 10.26 0 0 1 7.3-3.03h5.44a.69.69 0 1 1 0 1.38h-5.43c-2.4 0-4.64.93-6.33 2.62L42.38 62.4c-.9.9-2.12 1.4-3.38 1.4Z"/>
  <path fill="#BBD7F7" stroke="#BBD7F7" stroke-width=".6" d="M24.54 45.24a.69.69 0 0 1-.49-1.18L30 38.12a.69.69 0 1 1 .98.97l-5.95 5.95a.7.7 0 0 1-.48.2ZM30.33 51.02a.69.69 0 0 1-.49-1.18l5.94-5.94a.69.69 0 1 1 .98.98l-5.94 5.94a.7.7 0 0 1-.49.2ZM36.11 56.81a.69.69 0 0 1-.49-1.18l5.95-5.94a.69.69 0 1 1 .98.98L36.6 56.6a.7.7 0 0 1-.48.2ZM49.1 63.8c-1.27 0-2.48-.5-3.38-1.4l.97-.98a3.42 3.42 0 0 0 5.05-.26c1.09-1.33.91-3.4-.4-4.72l.97-.97a4.95 4.95 0 0 1 .5 6.56 4.81 4.81 0 0 1-3.47 1.76h-.24ZM60.66 52.22c-1.27 0-2.48-.5-3.38-1.4l.98-.97a3.48 3.48 0 0 0 4.81 0 3.38 3.38 0 0 0 0-4.81l.98-.98a4.75 4.75 0 0 1 0 6.76c-.9.9-2.1 1.4-3.38 1.4Z"/>
  <path fill="#BBD7F7" stroke="#BBD7F7" stroke-width=".6" d="M54.88 58a4.78 4.78 0 0 1-3.38-1.4l.97-.97a3.4 3.4 0 0 0 4.81-4.81l.98-.98A4.78 4.78 0 0 1 54.88 58Z"/>
</svg>
