<svg xmlns="http://www.w3.org/2000/svg" fill="none" viewBox="0 0 80 80">
  <path stroke="#BBD7F7" stroke-linecap="round" stroke-miterlimit="10" stroke-width="2" d="M61.97 52.45v7.53a8.2 8.2 0 0 0 1.88 5.23 6.92 6.92 0 0 0 2.73 1.95"/>
  <path stroke="#BBD7F7" stroke-linecap="round" stroke-miterlimit="10" stroke-width="2" d="m42.26 55.18 5.24 3.45a5.6 5.6 0 0 0 5.82 0l9.72-6.94a5.95 5.95 0 0 0 2.78-4.25l2.57-15.42c.35-2.46.27-4.98-.39-7.38-2.19-7.92-9.23-12.77-17.59-12.77-8.35 0-15.4 4.85-17.59 12.77-.66 2.4-.74 4.92-.38 7.38l2.1 15.65a5.94 5.94 0 0 0 2.77 4.24l1.17.8c.17.11.27.3.27.5V60a8.2 8.2 0 0 1-1.86 5.2 6.9 6.9 0 0 1-2.74 1.96l-9.47 3.9"/>
  <path stroke="#BBD7F7" stroke-linecap="round" stroke-miterlimit="10" stroke-width="2" d="M41.3 14.05c-2.4-3.25-6.32-5.13-10.74-5.13-6.05 0-11.16 3.52-12.74 9.25a13.08 13.08 0 0 0-.28 5.35l1.52 11.33a4.3 4.3 0 0 0 2 3.07l.86.57c.12.09.19.22.19.36v4.93c0 1.39-.49 2.71-1.35 3.76a5.02 5.02 0 0 1-1.98 1.42l-6.86 2.83M25.54 40.86l2.9 1.92c1.3.8 2.93.8 4.23 0l.97-.7"/>
</svg>
