<svg xmlns="http://www.w3.org/2000/svg" fill="none" viewBox="0 0 80 80">
  <path stroke="#BBD7F7" stroke-linecap="round" stroke-miterlimit="10" stroke-width="2" d="M47.22 58.38a14.76 14.76 0 1 0 0-29.52 14.76 14.76 0 0 0 0 29.52Z"/>
  <path stroke="#BBD7F7" stroke-linecap="round" stroke-miterlimit="10" stroke-width="2" d="M55.98 43.62a8.77 8.77 0 1 1-8.76-8.77"/>
  <path stroke="#BBD7F7" stroke-linecap="round" stroke-miterlimit="10" stroke-width="2" d="m59.6 23.2-5.98-7.54a1.76 1.76 0 0 0-1.37-.66H42.18c-.53 0-1.04.25-1.37.66l-5.98 7.53c-.24.31-.62.5-1.01.5H12.45A3.45 3.45 0 0 0 9 27.12V60.4c0 2.84 2.3 5.15 5.15 5.15h51.82c2.84 0 5.15-2.31 5.15-5.15V27.13c0-1.9-1.54-3.45-3.45-3.45h-7.06c-.4 0-.77-.18-1.02-.5v.01Z"/>
  <path stroke="#BBD7F7" stroke-linecap="round" stroke-miterlimit="10" stroke-width="2" d="M24.5 34.49a3.8 3.8 0 1 1-3.8-3.8M16.89 19.4h7.6"/>
</svg>
