<svg width="24" height="24" fill="none" xmlns="http://www.w3.org/2000/svg">
  <mask id="a" style="mask-type:alpha" maskUnits="userSpaceOnUse" x="0" y="0" width="24" height="24">
    <path transform="matrix(-1 0 0 1 24 0)" fill="#D9D9D9" d="M0 0h24v24H0z"/>
  </mask>
  <g mask="url(#a)">
    <path d="M7.83 13H19c.28 0 .52-.1.71-.29.2-.19.29-.43.29-.71 0-.28-.1-.52-.29-.71A.97.97 0 0 0 19 11H7.82l4.9-4.9c.2-.2.3-.43.3-.7a1 1 0 0 0-.32-.7c-.2-.18-.43-.28-.7-.29-.27 0-.5.09-.7.29l-6.6 6.6c-.1.1-.17.2-.21.33a1.1 1.1 0 0 0-.07.37c0 .13.03.26.07.38.04.11.11.22.21.32l6.6 6.6c.18.18.41.28.69.28.27 0 .51-.1.71-.28.2-.2.3-.44.3-.71 0-.28-.1-.51-.3-.71L7.83 13z" fill="#BBD7F7"/>
  </g>
</svg>
