<svg xmlns="http://www.w3.org/2000/svg" fill="none" viewBox="0 0 24 24">
  <mask id="a" width="24" height="24" x="0" y="0" maskUnits="userSpaceOnUse" style="mask-type:alpha">
    <path fill="#D9D9D9" d="M0 0h24v24H0z"/>
  </mask>
  <g mask="url(#a)">
    <path fill="#BBD7F7" d="M5 15a.97.97 0 0 1-.71-.29A.97.97 0 0 1 4 14c0-.28.1-.52.29-.71.19-.2.43-.29.71-.29h14c.28 0 .52.1.71.29.2.19.29.43.29.71 0 .28-.1.52-.29.71-.19.2-.43.29-.71.29H5Zm0-4a.97.97 0 0 1-.71-.29A.97.97 0 0 1 4 10c0-.28.1-.52.29-.71.19-.2.43-.29.71-.29h14c.28 0 .52.1.71.29.2.19.29.43.29.71 0 .28-.1.52-.29.71-.19.2-.43.29-.71.29H5Z"/>
  </g>
</svg>
