<svg width="20" height="20" fill="none" xmlns="http://www.w3.org/2000/svg">
    <mask id="a" style="mask-type:alpha" maskUnits="userSpaceOnUse" x="0" y="0" width="20" height="20">
        <path fill="#D9D9D9" d="M0 0h20v20H0z"/>
    </mask>
    <g mask="url(#a)">
        <path d="M7.7 10.69h1.53V8.56h1.54v2.13h1.54V7.02L10 5.48 7.7 7.02v3.67Zm2.3 5.57a21.4 21.4 0 0 0 3.74-4.2c.87-1.34 1.3-2.51 1.3-3.52 0-1.52-.48-2.77-1.45-3.75A4.84 4.84 0 0 0 10 3.33c-1.43 0-2.63.48-3.6 1.46a5.11 5.11 0 0 0-1.44 3.75c0 1 .43 2.18 1.3 3.52a21.4 21.4 0 0 0 3.74 4.2Zm0 1.66a26.68 26.68 0 0 1-4.72-5.07c-1.05-1.56-1.57-3-1.57-4.31 0-1.92.62-3.48 1.87-4.67A6.18 6.18 0 0 1 10 2.08c1.7 0 3.18.6 4.42 1.79a6.17 6.17 0 0 1 1.87 4.67c0 1.3-.52 2.75-1.57 4.31A26.68 26.68 0 0 1 10 17.92Z" fill="#BBD7F7"/>
    </g>
</svg>
