<svg width="20" height="20" viewBox="0 0 20 20" fill="none" xmlns="http://www.w3.org/2000/svg">
    <circle cx="10" cy="10" r="10" fill="#F63E56"/>
    <mask id="a" style="mask-type:alpha" maskUnits="userSpaceOnUse" x="2" y="2" width="17" height="16">
        <path fill="#D9D9D9" d="M2.14 2h16v16h-16z"/>
    </mask>
    <g mask="url(#a)">
        <path d="m9.8 14.02-5.44-3.45a.63.63 0 0 1-.32-.57c0-.24.1-.43.32-.57l5.43-3.45a.61.61 0 0 1 .68-.02c.22.13.34.32.34.59v2.78h5.33c.19 0 .35.07.48.2.12.12.19.28.19.47 0 .19-.07.35-.2.47a.65.65 0 0 1-.47.2h-5.33v2.78c0 .27-.12.46-.34.6a.6.6 0 0 1-.68-.03Z" fill="#fff"/>
    </g>
</svg>
