<svg viewBox="0 0 113 48" fill="none" xmlns="http://www.w3.org/2000/svg">
    <path fill-rule="evenodd" clip-rule="evenodd" d="M0.364714 31.6334C0.610771 31.8763 0.896412 32 1.23038 32H10.5063C10.8359 32 11.1259 31.8763 11.3676 31.6334C11.6136 31.386 11.7323 31.0988 11.7323 30.7631V1.23689C11.7323 0.901147 11.6093 0.609619 11.3676 0.36665C11.1259 0.123682 10.8403 0 10.5063 0H1.23038C0.896412 0 0.606399 0.123682 0.364714 0.36665C0.123028 0.614014 0 0.901147 0 1.23689V30.7631C0 31.0988 0.123028 31.386 0.364714 31.6334ZM61.4106 35.7341C62.1739 35.3789 63.2012 35.2003 64.1992 35.2C65.004 35.2002 66.0206 35.3067 66.6612 35.5194C67.3038 35.7221 67.8534 36.0055 68.3129 36.373C68.7708 36.7406 69.1225 37.1665 69.3677 37.6525C69.6129 38.1282 69.74 38.6314 69.7503 39.1638C69.7503 39.272 69.7134 39.3665 69.6425 39.4489C69.5819 39.5194 69.5051 39.5554 69.4135 39.5554H66.0348C65.924 39.5554 65.8309 39.5383 65.76 39.5022C65.7292 39.4843 65.6998 39.4638 65.6719 39.4404C65.6436 39.4166 65.6168 39.3899 65.5916 39.3596C65.5517 39.3012 65.4896 39.2171 65.4084 39.1106C65.1262 38.6933 64.6416 38.6692 64.1969 38.6658C63.3858 38.6572 62.9161 39.1879 62.8732 39.9985C62.8422 40.9826 62.8422 41.989 62.8732 43.0195C62.8983 44.0414 63.4701 44.5205 64.259 44.5291L64.3171 44.5261L64.3958 44.5225C64.8933 44.4995 65.3937 44.4765 65.6846 43.9967C65.7969 43.8078 65.8531 43.5639 65.8531 43.2685V43.2496H65.1351C65.0243 43.2496 64.9267 43.2015 64.8455 43.1071C64.7643 43.0126 64.7229 42.901 64.7229 42.7705V40.7989C64.7229 40.67 64.7643 40.5567 64.8455 40.4622C64.9267 40.366 65.0228 40.3197 65.1351 40.3197H69.3396C69.4504 40.3197 69.5479 40.3678 69.6292 40.4622C69.7105 40.5567 69.7518 40.6683 69.7518 40.7989V47.3371C69.7518 47.4677 69.7105 47.5793 69.6292 47.6755C69.58 47.7326 69.5254 47.7728 69.4651 47.7956C69.4398 47.8052 69.4135 47.8117 69.3861 47.8151C69.371 47.817 69.3555 47.818 69.3396 47.818H68.8329C68.799 47.818 68.7664 47.8128 68.7354 47.8043L68.731 47.818H67.292C67.1044 47.8163 66.8621 47.7871 66.7542 47.5089L66.6626 47.3096C65.9831 47.7682 65.1824 48.0413 64.1999 47.9949C63.1717 47.9949 62.1316 47.818 61.3782 47.4625C60.6247 47.107 60.0323 46.5677 59.6053 45.8447C59.1769 45.1233 58.9434 44.2097 58.9021 43.1088C58.8932 42.6228 58.8873 42.0955 58.8873 41.527C58.8873 40.9586 58.8917 40.4193 58.9021 39.9092C58.9434 38.8547 59.1784 37.984 59.6068 37.297C60.0456 36.5997 60.6468 36.0776 61.4106 35.7341ZM94.4976 47.4797C95.251 47.8231 96.2645 47.9949 97.2425 47.9949H97.244C98.2131 47.9949 99.2163 47.8231 99.9594 47.4797C100.702 47.1362 101.283 46.6038 101.701 45.8807C102.119 45.1577 102.328 44.2389 102.328 43.126V35.8578C102.328 35.7272 102.286 35.6139 102.205 35.5194C102.122 35.425 102.026 35.3769 101.914 35.3769H98.9178C98.807 35.3769 98.7095 35.425 98.6283 35.5194C98.547 35.6156 98.5056 35.7272 98.5056 35.8578V43.0555C98.4982 43.8679 98.0359 44.4278 97.2277 44.4226C96.5186 44.4158 95.938 44.0036 95.9498 43.0555V35.8578C95.9498 35.7272 95.9099 35.6139 95.8272 35.5194C95.7459 35.425 95.6499 35.3769 95.5376 35.3769H92.5415C92.4292 35.3769 92.3318 35.425 92.2505 35.5194C92.1692 35.6156 92.1279 35.7272 92.1279 35.8578V43.126C92.1279 44.2406 92.3362 45.1577 92.7543 45.8807C93.1724 46.6038 93.753 47.1362 94.4976 47.4797ZM86.1667 47.9949C85.168 47.9949 84.1457 47.818 83.3908 47.4625C82.6462 47.107 82.0553 46.5729 81.618 45.8636C81.1895 45.1405 80.9561 44.2526 80.9147 43.1981C80.9044 42.7121 80.8999 42.1968 80.8999 41.6524C80.8999 41.108 80.9044 40.5807 80.9147 40.0707C80.9561 39.0282 81.1895 38.1454 81.618 37.4224C82.0464 36.6993 82.6373 36.1497 83.3908 35.7702C84.1457 35.3907 85.168 35.2017 86.1667 35.2017C87.1654 35.2017 88.1893 35.3924 88.9427 35.7702C89.6962 36.1497 90.2871 36.6993 90.7155 37.4224C91.1543 38.1454 91.3877 39.0282 91.4187 40.0707C91.4394 40.5807 91.4498 41.1063 91.4498 41.6524C91.4498 42.1986 91.4394 42.7138 91.4187 43.1981C91.3774 44.2526 91.1381 45.1405 90.7007 45.8636C90.2723 46.5746 89.6814 47.107 88.9279 47.4625C88.1848 47.818 87.1654 47.9949 86.1667 47.9949ZM86.1667 44.5308C87.0088 44.536 87.4225 43.9005 87.4447 43.0916C87.4653 42.5815 87.4757 42.0783 87.4757 41.5803C87.4757 41.0822 87.4653 40.591 87.4447 40.105C87.4505 39.1913 86.8109 38.6675 86.1667 38.6658C85.3069 38.6641 84.9213 39.2205 84.8888 40.105C84.8785 40.591 84.874 41.0822 84.874 41.5803C84.874 42.0783 84.88 42.5815 84.8888 43.0916C84.9125 44.0396 85.4133 44.5205 86.1667 44.5308ZM103.183 47.6755C103.266 47.7699 103.362 47.818 103.474 47.818L103.473 47.8163H106.622C106.734 47.8163 106.832 47.7682 106.913 47.6737C106.995 47.5776 107.036 47.4659 107.036 47.3354V43.9417H108.4C109.327 43.9417 110.132 43.8009 110.815 43.5158C111.508 43.2187 112.043 42.7636 112.419 42.147C112.806 41.5185 113 40.7147 113 39.7306C113 38.7465 112.806 37.9342 112.419 37.2953C112.043 36.6444 111.508 36.1635 110.815 35.8561C110.132 35.5366 109.327 35.3769 108.4 35.3769H103.474C103.362 35.3769 103.264 35.425 103.183 35.5194C103.102 35.6156 103.06 35.7272 103.06 35.8578V47.3371C103.06 47.4677 103.102 47.5793 103.183 47.6755ZM108.323 40.6563H106.959V38.6847H108.268C108.754 38.6916 109.017 39.1157 109.026 39.6585C109.021 40.1376 108.826 40.6065 108.323 40.6563ZM70.8229 35.3786C70.7106 35.3786 70.6146 35.4267 70.5333 35.5212C70.4521 35.6156 70.4107 35.729 70.4107 35.8595V47.3388C70.4107 47.4694 70.4521 47.581 70.5333 47.6772C70.6146 47.7716 70.7121 47.8197 70.8229 47.8197H73.819C73.9312 47.8197 74.0273 47.7716 74.1086 47.6772C74.1898 47.581 74.2311 47.4694 74.2311 47.3388V43.9452H75.1516L76.4664 47.3388C76.4854 47.3903 76.5176 47.4476 76.5629 47.5115C76.5915 47.552 76.6254 47.5951 76.6644 47.6411C76.7663 47.7596 76.9199 47.8197 77.1238 47.8197H80.2573C80.3489 47.8197 80.4257 47.7837 80.4863 47.7132C80.5572 47.6308 80.5941 47.5364 80.5941 47.4282C80.5941 47.3698 80.5794 47.3028 80.5484 47.2323L78.6676 43.1809C79.1463 42.8254 79.5393 42.3583 79.8451 41.7778C80.1613 41.1853 80.3193 40.4931 80.3193 39.6997C80.3193 38.3601 79.9072 37.3073 79.0813 36.5362C78.2555 35.7668 77.1091 35.3803 75.642 35.3803H70.8229V35.3786ZM74.2311 38.6847H75.5386C76.0247 38.6916 76.2891 39.1157 76.2965 39.6585C76.2921 40.1376 76.0985 40.6065 75.5933 40.6563H74.2297V38.683L74.2311 38.6847ZM80.1018 0C79.8293 0 79.6009 0.10603 79.4207 0.318066C79.2098 0.49917 79.0999 0.728882 79.0999 1.00718C79.0999 1.18831 79.1439 1.35615 79.2362 1.51077L89.5272 16.1811L79.2362 30.4892C79.2055 30.5509 79.1792 30.6082 79.1567 30.6616C79.1341 30.7153 79.1153 30.7652 79.0999 30.8117V30.9928C79.0999 31.2667 79.1922 31.5097 79.3724 31.7261C79.5833 31.9072 79.8293 32 80.1018 32H90.015C90.6213 32 91.0607 31.8631 91.3332 31.5892C91.6364 31.2844 91.8165 31.0723 91.8781 30.9486L95.8855 25.2369L99.8929 30.9486C99.9544 31.0723 100.135 31.2844 100.438 31.5892C100.71 31.8631 101.15 32 101.756 32H111.665C111.937 32 112.179 31.9072 112.394 31.7261C112.574 31.5141 112.667 31.2711 112.667 30.9928V30.8117C112.636 30.7189 112.592 30.6129 112.53 30.4892L102.239 16.1811L112.53 1.51077C112.623 1.36057 112.667 1.1927 112.667 1.00718C112.667 0.733301 112.561 0.503589 112.346 0.318066C112.166 0.10603 111.937 0 111.665 0H102.253C101.677 0 101.238 0.150195 100.934 0.459424C100.631 0.764209 100.433 0.993921 100.346 1.14412L95.8855 7.34622L91.4254 1.14412C91.3332 0.993921 91.1398 0.764209 90.8366 0.459424C90.5334 0.154614 90.094 0 89.5184 0H80.1062H80.1018ZM22.3964 31.4963C22.7304 31.8321 23.2006 32 23.8071 32H34.1743C34.7808 32 35.251 31.8321 35.585 31.4963C35.9146 31.1606 36.1255 30.8248 36.2178 30.489L45.205 1.32542C45.2211 1.25259 45.2339 1.18472 45.2415 1.12178C45.2463 1.08162 45.2489 1.04346 45.2489 1.00732C45.2489 0.728979 45.1435 0.499243 44.9326 0.318091C44.7524 0.10603 44.5238 0 44.2514 0H35.7959C35.1894 0 34.7192 0.167895 34.3852 0.503662C34.0512 0.839429 33.8403 1.1752 33.748 1.51099L28.9929 18.5161L24.2378 1.51099C24.1455 1.1752 23.9345 0.839429 23.6005 0.503662C23.2665 0.167895 22.7963 0 22.1898 0H13.73C13.4575 0 13.2158 0.10603 13.0049 0.318091C12.8247 0.503662 12.7324 0.733398 12.7324 1.00732C12.7324 1.1001 12.7456 1.20613 12.7764 1.32542L21.7592 30.489C21.8515 30.8292 22.0624 31.1606 22.3964 31.4963Z" fill="#BBD7F7"/>
    <path fill-rule="evenodd" clip-rule="evenodd" d="M56.3027 16.878C55.8404 16.3849 55.8404 15.6151 56.3027 15.122L68.4593 2.15802C69.225 1.34141 68.6491 -1.01851e-06 67.5328 -1.11662e-06L57.0011 -2.04223e-06C56.6514 -2.07296e-06 56.3171 0.144586 56.0766 0.399833L42.2095 15.1198C41.7444 15.6135 41.7444 16.3865 42.2095 16.8802L56.0766 31.6002C56.3171 31.8554 56.6514 32 57.0011 32L67.5328 32C68.6491 32 69.225 30.6586 68.4593 29.842L56.3027 16.878ZM71.799 16.878C71.3366 16.3849 71.3366 15.615 71.799 15.1219L79.8518 6.53436C80.6162 5.71926 80.0439 4.38012 78.9296 4.37635L68.4126 4.34075C68.0614 4.33956 67.7253 4.48424 67.4838 4.74058L57.706 15.1199C57.2409 15.6135 57.2409 16.3865 57.706 16.8802L67.4874 27.2629C67.7279 27.5181 68.0621 27.6627 68.4118 27.6627L78.9623 27.6627C80.0786 27.6627 80.6545 26.3212 79.8887 25.5047L71.799 16.878Z" fill="#F63E56"/>
</svg>
