<svg width="20" height="20" fill="none" xmlns="http://www.w3.org/2000/svg">
    <mask id="a" style="mask-type:alpha" maskUnits="userSpaceOnUse" x="0" y="0" width="20" height="20">
        <path fill="#D9D9D9" d="M0 0h20v20H0z"/>
    </mask>
    <g mask="url(#a)">
        <path d="M3.59 16.25c-.42 0-.78-.15-1.07-.44-.3-.29-.44-.65-.44-1.07V5.26c0-.42.15-.78.44-1.07.3-.3.65-.44 1.07-.44h12.82c.42 0 .78.15 1.07.44.3.29.44.65.44 1.07v9.48c0 .42-.15.78-.44 1.07-.3.3-.65.44-1.07.44H3.59ZM10 10.46 3.33 6.2v8.54c0 .08.03.14.08.19.04.05.1.07.18.07h12.82c.08 0 .14-.02.18-.07.05-.05.08-.11.08-.19V6.2L10 10.46Zm0-1.3L16.54 5H3.46L10 9.17ZM3.33 6.2V5v9.74c0 .08.03.14.08.19.04.05.1.07.18.07h-.26V6.2Z" fill="#BBD7F7"/>
    </g>
</svg>
