<svg width="20" height="20" fill="none" xmlns="http://www.w3.org/2000/svg">
    <mask id="a" style="mask-type:alpha" maskUnits="userSpaceOnUse" x="0" y="0" width="20" height="20">
        <path fill="#D9D9D9" d="M0 0h20v20H0z"/>
    </mask>
    <g mask="url(#a)">
        <path d="M16.2 17.08c-1.57 0-3.15-.36-4.73-1.1A15.07 15.07 0 0 1 7.1 12.9 15.18 15.18 0 0 1 4 8.53a11.2 11.2 0 0 1-1.1-4.73.86.86 0 0 1 .88-.88h2.72c.21 0 .4.07.56.2.16.14.26.31.3.51l.48 2.45c.03.23.03.43-.02.59a.87.87 0 0 1-.25.41L5.65 8.96c.31.56.67 1.1 1.06 1.6a15.87 15.87 0 0 0 2.75 2.73c.52.4 1.08.76 1.67 1.1l1.87-1.9c.13-.13.3-.22.48-.28.18-.05.37-.07.57-.04l2.32.47c.2.06.38.17.51.32.14.16.2.34.2.55v2.7a.86.86 0 0 1-.88.88ZM5.06 7.78l1.49-1.43a.15.15 0 0 0 .05-.09.2.2 0 0 0 0-.1l-.37-1.87a.17.17 0 0 0-.05-.1.16.16 0 0 0-.1-.02H4.28a.1.1 0 0 0-.11.1 10.64 10.64 0 0 0 .88 3.5Zm7.25 7.2a9.82 9.82 0 0 0 3.41.83.1.1 0 0 0 .08-.03.1.1 0 0 0 .03-.08v-1.76a.16.16 0 0 0-.03-.1.17.17 0 0 0-.1-.06l-1.74-.35a.13.13 0 0 0-.09 0 .2.2 0 0 0-.08.04l-1.48 1.5Z" fill="#BBD7F7"/>
    </g>
</svg>
