<svg width="21" height="17" fill="none" xmlns="http://www.w3.org/2000/svg">
    <path fill-rule="evenodd" clip-rule="evenodd" d="M7.9 8.03a.67.67 0 0 0 0 .94l6.65 6.88c.42.44.1 1.15-.5 1.15H8.28a.7.7 0 0 1-.5-.21L.19 8.97a.67.67 0 0 1 0-.94L7.78.21a.7.7 0 0 1 .5-.21h5.77c.6 0 .92.71.5 1.15L7.9 8.03Zm8.48 0a.67.67 0 0 0 0 .94l4.4 4.56c.43.43.11 1.14-.5 1.15l-5.75.01a.7.7 0 0 1-.5-.2L8.66 8.96a.67.67 0 0 1 0-.94l5.35-5.51a.7.7 0 0 1 .5-.22h5.78c.61 0 .93.72.5 1.15l-4.42 4.58Z" fill="#F63E56"/>
</svg>
