<svg xmlns="http://www.w3.org/2000/svg" fill="none" viewBox="0 0 32 32">
    <circle cx="16" cy="16" r="16" fill="#08C"/>
    <path fill="#fff" d="M8.1 15.7c4.3-1.86 7.16-3.1 8.6-3.7 4.08-1.7 4.93-1.99 5.49-2a1 1 0 0 1 .57.17c.15.12.19.29.2.4.03.12.05.38.03.58-.22 2.33-1.18 7.98-1.67 10.6-.2 1.1-.61 1.47-1 1.5-.86.08-1.5-.56-2.34-1.1-1.3-.86-2.03-1.38-3.29-2.21-1.45-.96-.5-1.49.32-2.35.22-.23 3.99-3.65 4.06-3.97.01-.03.02-.18-.07-.26-.08-.07-.21-.05-.3-.03-.13.03-2.2 1.4-6.22 4.11-.58.4-1.12.6-1.6.6-.52-.02-1.53-.3-2.28-.55-.93-.3-1.66-.46-1.6-.97.04-.26.4-.53 1.1-.81Z"/>
</svg>
