<svg xmlns="http://www.w3.org/2000/svg" fill="none" viewBox="0 0 24 24">
  <g clip-path="url(#a)">
    <path fill="#00C70A" d="M20.4 0H3.6A3.6 3.6 0 0 0 0 3.6v16.8A3.6 3.6 0 0 0 3.6 24h16.8a3.6 3.6 0 0 0 3.6-3.6V3.6A3.6 3.6 0 0 0 20.4 0Z"/>
    <path fill="#fff" d="M18.84 17.3a4.12 4.12 0 0 0 1.79-3.28c0-2.4-2.35-4.32-5.2-4.32-2.87 0-5.16 1.93-5.16 4.32 0 2.39 2.3 4.3 5.15 4.3.61 0 1.17-.09 1.69-.23.19-.04.37 0 .42.05l1.17.66c.14.1.28 0 .24-.2l-.28-1.02c0-.14.09-.24.18-.28ZM13.7 13.3a.7.7 0 1 1-.36-1.35.7.7 0 0 1 .36 1.35Zm3.47 0a.7.7 0 1 1-.36-1.35.7.7 0 0 1 .36 1.35Z"/>
    <path fill="#fff" d="M9.6 4.92c-3.41 0-6.18 2.35-6.18 5.2 0 1.55.8 2.96 2.11 3.9.14.09.24.23.19.46l-.33 1.13c-.05.23.14.33.28.28l1.4-.8c.15-.09.34-.14.52-.09 1.22.38 2.25.28 2.4.28-1.13-3.94 2.76-6.19 5.76-6-.47-2.44-3.05-4.36-6.14-4.36ZM7.56 9.28a.84.84 0 1 1-.4-1.64.84.84 0 0 1 .4 1.64Zm4.17 0a.84.84 0 1 1-.4-1.64.84.84 0 0 1 .4 1.64Z"/>
  </g>
  <defs>
    <clipPath id="a">
      <path fill="#fff" d="M0 0h24v24H0z"/>
    </clipPath>
  </defs>
</svg>
