<svg width="25" height="24" viewBox="0 0 25 24" fill="none" xmlns="http://www.w3.org/2000/svg">
    <mask id="mask0_24_256" style="mask-type:alpha" maskUnits="userSpaceOnUse" x="0" y="0" width="25" height="24">
        <rect x="0.5" width="24" height="24" fill="#D9D9D9"/>
    </mask>
    <g mask="url(#mask0_24_256)">
        <path d="M11.3537 13.898L9.9845 11.8538C9.90117 11.7461 9.80375 11.6603 9.69225 11.5963C9.58075 11.5321 9.4545 11.5 9.3135 11.5H4.37875C4.04158 10.9513 3.81083 10.4385 3.6865 9.9615C3.56217 9.48467 3.5 8.9975 3.5 8.5C3.5 7.22817 3.93208 6.16025 4.79625 5.29625C5.66025 4.43208 6.72817 4 8 4C8.8795 4 9.7045 4.225 10.475 4.675C11.2455 5.125 11.9205 5.7795 12.5 6.6385C13.0795 5.7795 13.7545 5.125 14.525 4.675C15.2955 4.225 16.1205 4 17 4C18.2718 4 19.3398 4.43208 20.2038 5.29625C21.0679 6.16025 21.5 7.22817 21.5 8.5C21.5 8.9975 21.4378 9.48467 21.3135 9.9615C21.1892 10.4385 20.9584 10.9513 20.6213 11.5H15.748L13.9078 8.7385C13.8589 8.66533 13.7938 8.6105 13.7125 8.574C13.6312 8.5375 13.5437 8.51925 13.45 8.51925C13.3487 8.51925 13.2605 8.54967 13.1855 8.6105C13.1105 8.6715 13.0589 8.75067 13.0308 8.848L11.3537 13.898ZM12.5 20.0038L11.7423 19.3193C10.0308 17.7654 8.63592 16.4494 7.55775 15.3713C6.47958 14.2929 5.63658 13.3358 5.02875 12.5H9.2135L11.073 15.2808C11.1218 15.3666 11.1902 15.4246 11.278 15.4548C11.3657 15.4849 11.4563 15.5 11.55 15.5C11.6513 15.5 11.7363 15.4696 11.8048 15.4088C11.8734 15.3478 11.9282 15.2686 11.9692 15.1713L13.6462 10.1345L14.9827 12.1463C15.0661 12.2539 15.1635 12.3398 15.275 12.4038C15.3865 12.4679 15.5128 12.5 15.6538 12.5H19.9713C19.3634 13.3358 18.5204 14.2929 17.4423 15.3713C16.3641 16.4494 14.9693 17.7654 13.2578 19.3193L12.5 20.0038Z" fill="#BBD7F7"/>
    </g>
</svg>
