<svg width="25" height="24" viewBox="0 0 25 24" fill="none" xmlns="http://www.w3.org/2000/svg">
    <mask id="a" style="mask-type:alpha" maskUnits="userSpaceOnUse" x="0" y="0" width="25" height="24">
        <path fill="#D9D9D9" d="M.5 0h24v24H.5z"/>
    </mask>
    <g mask="url(#a)">
        <path d="M7.23 19H5.12c-.45 0-.83-.16-1.15-.47-.31-.32-.47-.7-.47-1.15V6.62c0-.45.16-.83.47-1.15.32-.31.7-.47 1.15-.47H19.5v1H5.12a.6.6 0 0 0-.45.17.6.6 0 0 0-.17.45v10.76c0 .18.06.33.17.45a.6.6 0 0 0 .45.17h2.11v1Zm4.15-1.88c.42 0 .78-.15 1.07-.44.29-.3.43-.65.43-1.06 0-.42-.14-.78-.43-1.07-.3-.29-.65-.43-1.07-.43-.41 0-.77.14-1.06.43-.29.3-.44.65-.44 1.07 0 .41.15.77.44 1.06.3.29.65.44 1.06.44ZM10 19v-1.45a2.44 2.44 0 0 1-1-1.93c0-.4.1-.77.27-1.1.18-.34.43-.62.73-.84v-1.45h2.77v1.45a2.43 2.43 0 0 1 1 1.94 2.43 2.43 0 0 1-1 1.94V19H10Zm10.7 0h-4.35a.78.78 0 0 1-.58-.23.78.78 0 0 1-.23-.58V9.81c0-.23.08-.42.23-.58a.78.78 0 0 1 .58-.23h4.34c.23 0 .42.08.58.23.15.16.23.35.23.58v8.38c0 .23-.08.42-.23.58a.78.78 0 0 1-.58.23Z" fill="#BBD7F7"/>
    </g>
</svg>
