<svg width="25" height="24" viewBox="0 0 25 24" fill="none" xmlns="http://www.w3.org/2000/svg">
    <mask id="a" style="mask-type:alpha" maskUnits="userSpaceOnUse" x="0" y="0" width="25" height="24">
        <path fill="#D9D9D9" d="M.5 0h24v24H.5z"/>
    </mask>
    <g mask="url(#a)">
        <path d="M5.73 18v1.5c0 .14-.05.26-.14.36-.1.1-.22.14-.36.14H5a.48.48 0 0 1-.36-.14.48.48 0 0 1-.14-.36v-7.35L6.48 6.5a.65.65 0 0 1 .29-.37c.14-.09.29-.13.46-.13h10.62c.15 0 .29.05.4.14.13.09.22.21.27.36l1.98 5.65v7.35c0 .14-.05.26-.14.36-.1.1-.22.14-.36.14h-.23a.48.48 0 0 1-.36-.14.48.48 0 0 1-.14-.36V18H5.73Zm.19-6.85h13.16L17.61 7H7.4l-1.47 4.15Zm2 4.54c.32 0 .58-.1.8-.32.21-.22.32-.49.32-.8 0-.3-.11-.57-.33-.79a1.09 1.09 0 0 0-.8-.32c-.3 0-.57.11-.78.33-.21.22-.32.48-.32.8 0 .3.1.57.32.78.22.21.49.32.8.32Zm9.16 0c.31 0 .58-.1.79-.32.21-.22.32-.49.32-.8 0-.3-.1-.57-.32-.79a1.09 1.09 0 0 0-.8-.32c-.3 0-.57.11-.79.33-.21.22-.32.48-.32.8 0 .3.11.57.33.78.22.21.48.32.8.32Z" fill="#BBD7F7"/>
    </g>
</svg>
