<svg width="24" height="24" viewBox="0 0 24 24" fill="none" xmlns="http://www.w3.org/2000/svg">
    <mask id="a" style="mask-type:alpha" maskUnits="userSpaceOnUse" x="0" y="0" width="24" height="24">
        <path fill="#D9D9D9" d="M0 0h24v24H0z"/>
    </mask>
    <g mask="url(#a)">
        <path d="M12 20.77c-.2 0-.4-.04-.6-.12-.2-.08-.37-.2-.54-.35L3.7 13.14a1.82 1.82 0 0 1-.35-.54 1.52 1.52 0 0 1 0-1.2c.08-.2.2-.38.35-.54l7.16-7.16A1.52 1.52 0 0 1 12 3.23a1.62 1.62 0 0 1 1.14.47l7.16 7.16a1.54 1.54 0 0 1 .47 1.14 1.52 1.52 0 0 1-.48 1.14l-7.15 7.16a1.62 1.62 0 0 1-1.14.47Zm-.5-7.6h1V7.94h-1v5.23Zm.5 2.23a.6.6 0 0 0 .44-.17.6.6 0 0 0 .18-.44.6.6 0 0 0-.18-.44.6.6 0 0 0-.44-.18.6.6 0 0 0-.44.18.6.6 0 0 0-.18.44c0 .17.06.32.18.44a.6.6 0 0 0 .44.17Z" fill="#BBD7F7"/>
    </g>
</svg>
