<svg width="24" height="24" viewBox="0 0 24 24" fill="none" xmlns="http://www.w3.org/2000/svg">
    <mask id="a" style="mask-type:alpha" maskUnits="userSpaceOnUse" x="0" y="0" width="24" height="24">
        <path fill="#D9D9D9" d="M0 0h24v24H0z"/>
    </mask>
    <g mask="url(#a)">
        <path d="M4.76 19.46v-1.61H7.8l-2.6-8.47a2.56 2.56 0 0 1-1.04-.9 2.4 2.4 0 0 1-.39-1.36c0-.7.25-1.29.73-1.77a2.41 2.41 0 0 1 1.77-.73c.61 0 1.14.18 1.58.56.44.37.73.85.88 1.44h3.66v-1.5a.48.48 0 0 1 .5-.5.46.46 0 0 1 .45.36v.27l1.82-1.68c.14-.14.29-.22.46-.25.17-.03.33 0 .5.09l3.78 1.76c.12.06.22.15.28.26.06.12.06.24 0 .35a.42.42 0 0 1-.26.24.48.48 0 0 1-.35-.04l-3.8-1.76-2.38 2.2v1.4l2.39 2.15 3.79-1.77a.48.48 0 0 1 .35-.03c.12.03.2.1.26.23.07.12.07.24 0 .35a.65.65 0 0 1-.28.26l-3.78 1.77a.75.75 0 0 1-.5.1.84.84 0 0 1-.46-.26l-1.82-1.64v.27a.47.47 0 0 1-.16.26.44.44 0 0 1-.3.1.48.48 0 0 1-.35-.14.48.48 0 0 1-.14-.35v-1.5H8.72a2.66 2.66 0 0 1-.63 1.2l4.84 9.03h3.83v1.61h-12Zm1.5-10.84c.41 0 .77-.15 1.06-.45.3-.29.44-.64.44-1.05 0-.42-.14-.77-.44-1.06-.3-.3-.65-.44-1.06-.44-.4 0-.76.14-1.06.44-.29.3-.44.64-.44 1.06 0 .4.15.76.44 1.05.3.3.65.45 1.06.45Z" fill="#BBD7F7"/>
    </g>
</svg>
