<svg width="24" height="24" viewBox="0 0 24 24" fill="none" xmlns="http://www.w3.org/2000/svg">
    <mask id="a" style="mask-type:alpha" maskUnits="userSpaceOnUse" x="0" y="0" width="24" height="24">
        <path fill="#D9D9D9" d="M0 0h24v24H0z"/>
    </mask>
    <g mask="url(#a)">
        <path d="M7.5 21.5v-9.03a3.25 3.25 0 0 1-2.77-3.24V2.5h1v6.73H7.5V2.5h1v6.73h1.77V2.5h1v6.73a3.25 3.25 0 0 1-2.77 3.23v9.04h-1Zm9.23 0v-8h-2.46V7c0-1.11.31-2.1.94-2.96a3.6 3.6 0 0 1 2.52-1.5V21.5h-1Z" fill="#BBD7F7"/>
    </g>
</svg>
