<svg width="25" height="24" viewBox="0 0 25 24" fill="none" xmlns="http://www.w3.org/2000/svg">
    <mask id="a" style="mask-type:alpha" maskUnits="userSpaceOnUse" x="0" y="0" width="25" height="24">
        <path fill="#D9D9D9" d="M.5 0h24v24H.5z"/>
    </mask>
    <g mask="url(#a)">
        <path d="M7 21c-.97 0-1.8-.3-2.48-.9a3.01 3.01 0 0 1-1.02-2.37V12.8a2.45 2.45 0 0 1 1.14-2.1l8.12-5.25.12.11c.24.25.38.54.4.87.04.34-.03.65-.2.93l-1.7 2.84H19c.14 0 .26.05.36.15.1.1.14.21.14.35 0 .14-.05.26-.14.36-.1.1-.22.14-.36.14h-5.5v2.27H21c.14 0 .26.05.36.15.1.1.14.21.14.35 0 .14-.05.26-.14.36-.1.1-.22.14-.36.14h-7.5v2.27H20c.14 0 .26.05.36.14.1.1.14.22.14.36 0 .14-.05.26-.14.36-.1.1-.22.14-.36.14h-6.5V20H18c.14 0 .26.05.36.14.1.1.14.22.14.36 0 .14-.05.26-.14.36-.1.1-.22.14-.36.14H7Zm9.45-13.17c-.35 0-.64-.12-.89-.37a1.2 1.2 0 0 1-.37-.88c0-.34.12-.64.37-.88.24-.25.53-.37.88-.37.34 0 .64.12.88.36.25.25.37.54.37.88 0 .35-.12.64-.36.89a1.2 1.2 0 0 1-.88.37ZM18 4.23a.97.97 0 0 1-.7-.29.96.96 0 0 1-.3-.7c0-.28.1-.52.3-.72.18-.2.42-.29.7-.29.27 0 .51.1.7.3.2.19.3.42.3.7 0 .28-.1.51-.3.7-.18.2-.42.3-.7.3ZM20.52 8c-.42 0-.78-.14-1.07-.43a1.45 1.45 0 0 1-.43-1.07c0-.42.14-.78.43-1.07.3-.29.65-.43 1.07-.43.42 0 .78.14 1.07.43.28.3.43.65.43 1.07 0 .42-.15.78-.43 1.07-.3.29-.65.43-1.07.43Z" fill="#BBD7F7"/>
    </g>
</svg>
