<svg width="57" height="64" viewBox="0 0 57 64" fill="none" xmlns="http://www.w3.org/2000/svg">
  <path d="M17.49 44.52c.32-1.52.8-3 1.44-4.43l1.65-3.65c.9-2 1.37-4.16 1.37-6.34a8.56 8.56 0 1 0-17.13 0c0 2.18.46 4.35 1.36 6.34l1.65 3.65a21.58 21.58 0 0 1 1.9 8.87M5.22 53.15v-1.4a2.7 2.7 0 0 1 2.7-2.69h10.93a2.7 2.7 0 0 1 2.7 2.7v1.4M25.76 63.11H1v-3.44a3.77 3.77 0 0 1 3.77-3.78H22c2.09 0 3.77 1.7 3.77 3.78v3.44Z" stroke="#BBD7F7" stroke-width="1.5" stroke-linecap="round" stroke-linejoin="round"/>
  <path d="M14.83 16.9V1h27.61l13.18 13.18v43.37h-27.5" stroke="#BBD7F7" stroke-width="1.5" stroke-linecap="round" stroke-linejoin="round"/>
  <path d="M42.44 14.18V1l13.18 13.18H42.44ZM28.75 49.4H50.3M48.4 39.57a7.74 7.74 0 1 0-12.76-8.75 7.74 7.74 0 0 0 12.76 8.75Z" stroke="#BBD7F7" stroke-width="1.5" stroke-linecap="round" stroke-linejoin="round"/>
  <path d="m38.68 35.83 2.4 2.6 5-6.44M21.98 6.08h13.26M21.98 12.96h13.26M25.76 21.1h24.39" stroke="#BBD7F7" stroke-width="1.5" stroke-linecap="round" stroke-linejoin="round"/>
</svg>
