<svg width="64" height="64" viewBox="0 0 64 64" fill="none" xmlns="http://www.w3.org/2000/svg">
  <g clip-path="url(#a)" stroke="#BBD7F7" stroke-width="1.5" stroke-linecap="round" stroke-linejoin="round">
    <path d="M37.86 18.75a22.52 22.52 0 0 1 13.6 10.9M11.07 31.49A22.46 22.46 0 0 1 31.7 17.9M54.17 40.36a22.46 22.46 0 0 1-44.8 2.3M14.69 35.77c-.18-.31-.43-.59-.73-.81l-2.9-3.47"/>
    <path d="m26.33 49.08-1.48 3.19a1.72 1.72 0 0 1-3.19-.17l-2.32-6.7a2.8 2.8 0 0 0-.23-.5M25.45 18.78l-1.09 8.78a5.85 5.85 0 0 1-2.18 3.87l-1.77 1.4c-1.18.93-1 2.76.33 3.45l2.92 1.5M37.77 40.83c.35.3.75.55 1.2.73l2.78 1.08.53 6.82a2.28 2.28 0 0 0 3.58 1.7l7.21-3.85M37.2 23.5l-2.8 3.28a2.6 2.6 0 0 0-.62 1.47M62.14 30.06a4 4 0 1 1-6.13-5.13 4 4 0 0 1 6.13 5.13ZM56.51 30.56l-7.55 9.02"/>
    <path d="M62.14 30.06a4 4 0 1 1-6.13-5.13 4 4 0 0 1 6.13 5.13ZM56.51 30.56l-7.55 9.02M33.45 44.1a4 4 0 1 0-7.1-3.66 4 4 0 0 0 7.1 3.66ZM31.12 46.08l3.58 11.2M38.5 4.97a4 4 0 1 1-8-.1 4 4 0 0 1 8 .1ZM34.45 8.92l-.16 11.77M3.02 38.16a4 4 0 1 0 3.8-7.04 4 4 0 0 0-3.8 7.04ZM8.44 36.55l10.34 5.6M36.23 54.27c1.02 0 2.04.2 2.93.7 1.84 1 2.91 2.9 3.78 4.85M26.98 62.32c.53-1.15 1.1-2.27 1.8-3.32a12.7 12.7 0 0 1 2.54-2.85"/>
  </g>
  <defs>
    <clipPath id="a">
      <path fill="#fff" d="M0 0h64v63.74H0z"/>
    </clipPath>
  </defs>
</svg>
