<svg width="64" height="49" viewBox="0 0 64 49" fill="none" xmlns="http://www.w3.org/2000/svg">
  <g clip-path="url(#a)" stroke="#BBD7F7" stroke-width="1.5" stroke-linecap="round" stroke-linejoin="round">
    <path d="m18.57 16.33 2.66.97c2.03.74 4.3.34 5.96-1.05a8.5 8.5 0 0 1 10.1-.58l4.36 2.86c1.36.89 1.6 2.78.5 3.99a4.27 4.27 0 0 1-5.14.91l-3.48-1.82-1.08.74a5.21 5.21 0 0 1-5.58.19M9.97 29.14l2.13 1.43M24.17 26.1l-9.52 5.07a2.89 2.89 0 0 0-1.1 4.07l.05.08M23.77 31.62l-6.22 3.3a2.9 2.9 0 0 0-1.1 4.08l.04.07M27.7 35.17l-7.04 3.7a2.89 2.89 0 0 0-1.1 4.09l.04.06c.26.43.62.76 1.03 1M30.02 40.16l-4.32 2.16a2.9 2.9 0 1 0 2.66 5.14l3.05-1.63M45 31.38c.06-.2.15-.42.28-.61l.67-1.03a2.25 2.25 0 0 1 3.1-.66l3.77 2.42a2.2 2.2 0 0 1 .66 3.07l-.67 1.03M49.07 39.67l.67-1.03c.67-1.03.37-2.4-.67-3.08l-2.65-1.7a2.25 2.25 0 0 0-3.1.66l-.67 1.03a2.21 2.21 0 0 0 .67 3.08"/>
    <path d="m44.46 43.43.67-1.03c.67-1.03.37-2.4-.67-3.08l-2.15-1.38a2.25 2.25 0 0 0-3.1.66l-.67 1.03a2.21 2.21 0 0 0 .67 3.08l2.15 1.38c1.04.67 2.43.37 3.1-.66ZM37.2 42.03c-1.04-.67-2.36-.47-2.96.44l-.6.92c-.6.91-.23 2.2.8 2.86l1.58 1.01c.89.58 1.98.51 2.66-.1M41.63 17.84l3.8-1.65M52.43 30.83l1.16-.94M63.1 3.7l-14.72 8.55a2.33 2.33 0 0 0-.87 3.17l8.4 14.65a2.33 2.33 0 0 0 3.17.86L63 28.68M.9 27.24l3.42 2.23c1.08.7 2.52.4 3.22-.68l9.64-14.76c.7-1.08.4-2.52-.67-3.22L1 .91"/>
  </g>
  <defs>
    <clipPath id="a">
      <path fill="#fff" d="M0 0h64v48.71H0z"/>
    </clipPath>
  </defs>
</svg>
