<svg width="57" height="64" viewBox="0 0 57 64" fill="none" xmlns="http://www.w3.org/2000/svg">
  <g clip-path="url(#a)" stroke="#BBD7F7" stroke-width="1.5" stroke-linecap="round" stroke-linejoin="round">
    <path d="M49.88 12.88h3.1c1.37 0 2.48 1.1 2.48 2.47v31.99c0 1.36-1.1 2.47-2.47 2.47H3.42a2.48 2.48 0 0 1-2.48-2.47V15.35c0-1.36 1.1-2.47 2.48-2.47h2.37M33.95 52.75 36.86 58M19.54 58l2.92-5.25M18.02 58.01h20.37a4.77 4.77 0 0 1 4.76 4.78v.27h-29.9v-.27A4.77 4.77 0 0 1 18.02 58Z"/>
    <path d="M11.22 45.83a6.16 6.16 0 1 0 0-12.33 6.16 6.16 0 0 0 0 12.33Z"/>
    <path d="M11.22 33.5v6.16H5.08M9.98.94v27.83h36.84M15.1 28.77V22.8M22.23 28.77V15.85M29.37 28.77v-8.02M36.5 28.77v-11.9M43.64 28.77V13.19"/>
    <path d="M14.8 19.5a2.45 2.45 0 1 0 0-4.9 2.45 2.45 0 0 0 0 4.9ZM31.66 17a2.76 2.76 0 1 1-4.59-3.1 2.77 2.77 0 1 1 4.6 3.1ZM45.93 5.27a2.76 2.76 0 1 1-4.58-3.1 2.76 2.76 0 1 1 4.58 3.1ZM24.19 6.63a2.78 2.78 0 0 0-3.92-3.92 2.78 2.78 0 0 0 3.92 3.92ZM19.35 9.54l-1.54 3.14M26.31 10.55l-.83-1.45M38.98 7.34l-4.66 4.4M30.06 44.35v-3.41h4.7v5.94M37.77 43.37v-5.84h4.7v9.35M45.48 42.43v-9.98h4.7v14.43"/>
  </g>
  <defs>
    <clipPath id="a">
      <path fill="#fff" d="M0 0h56.41v64H0z"/>
    </clipPath>
  </defs>
</svg>
