<svg width="64" height="58" viewBox="0 0 64 58" fill="none" xmlns="http://www.w3.org/2000/svg">
  <g clip-path="url(#a)" stroke="#BBD7F7" stroke-width="1.5" stroke-linecap="round" stroke-linejoin="round">
    <path d="M16.73 12V2.34h21.68v8.62h-.8a4.02 4.02 0 1 0 0 4.52h.8"/>
    <path d="M38.4 15.5v8.52h-8.57v.8a4.01 4.01 0 0 1-2.26 7.34 4.02 4.02 0 0 1-2.26-7.34v-.8h-7.13M38.77 43.84v-9.18h-8.58v.8a4.02 4.02 0 1 1-4.52 0v-.8h-8.58v8.58h-.8a4.01 4.01 0 1 0 0 4.52h.8v8.58h21.68"/>
    <path d="M48.1 40.37 37.17 48.1a2.57 2.57 0 0 0 2.65 4.4l10.56-5.35a6.59 6.59 0 0 1 5.17-.33c1.95.7 4.12.4 5.8-.81l1.78-1.26M39.17 38l1.64-1.7c.9-.93 1.91-1.77 3.02-2.45 1.07-.67 2.35-1.27 3.39-1.22l15.56.85M14.2 2.85l-8.42-.57c-1.72-.12-3.4-.6-4.9-1.4M9.77 10.6c0 .33.17.63.45.8l8.94 5.52a2.78 2.78 0 0 1-2.7 4.86l-3.04-1.51a5.57 5.57 0 0 0-3.14-.55c-2 .23-3.98-.63-5.17-2.26l-2.82-3.88c-.3-.4-.63-.77-1.01-1.1M9.78 9.52v1.08"/>
  </g>
  <defs>
    <clipPath id="a">
      <path fill="#fff" d="M0 0h64v57.21H0z"/>
    </clipPath>
  </defs>
</svg>
