<svg width="360" height="304" viewBox="0 0 360 304" fill="none" xmlns="http://www.w3.org/2000/svg">
  <g clip-path="url(#clip0_602_26)">
    <path d="M1669.88 111.557H1402.64C1392.77 111.585 1383.04 111.641 1373.55 111.936C1364.04 112.202 1354.96 112.861 1346.58 114.165C1338.19 115.483 1330.76 117.559 1323.74 120.812C1316.73 124.051 1309.89 128.524 1303 133.978C1299.56 136.839 1296.12 139.601 1292.7 142.784L1287.28 147.692C1285.18 149.641 1282.95 151.506 1280.71 153.371C1271.6 160.704 1261.19 167.294 1249.7 171.824C1238.28 176.437 1226.07 179.003 1214.17 179.746C1212.67 179.872 1211.2 179.928 1209.72 179.956C1208.23 179.984 1206.76 180.04 1205.28 180.04L1196.38 179.676C1195.64 179.634 1194.89 179.634 1194.15 179.55L1191.91 179.269L1187.41 178.68C1185.91 178.456 1184.42 178.344 1182.93 178.007L1178.45 177.026C1166.52 174.361 1154.88 169.58 1144.57 163.27C1134.23 156.974 1125.24 149.318 1117.36 141.354C1109.48 133.361 1102.65 125.046 1096.31 116.871C1083.66 100.536 1072.64 84.6069 1060.59 71.7908C1054.6 65.3828 1048.38 59.816 1041.85 55.4412C1035.32 51.0523 1028.51 47.7992 1021.21 45.7941C1013.94 43.803 1006.04 43.0458 998.054 43.186C996.078 43.3122 994.047 43.2841 992.114 43.4804C990.194 43.7469 988.261 43.9993 986.342 44.2376C984.45 44.5882 982.629 45.079 980.752 45.4575C979.799 45.6118 978.916 45.9203 978.02 46.2288L975.33 47.0981C968.213 49.566 961.516 53.2257 955.099 58.0352C948.683 62.8308 942.574 68.7761 936.634 75.4505C924.698 88.8275 913.728 105.037 900.642 121.471C894.086 129.673 886.941 137.96 878.647 145.771C870.381 153.567 860.868 160.9 850.08 166.621C839.335 172.384 827.412 176.381 815.433 178.386L806.453 179.55C803.483 179.746 800.513 179.844 797.557 179.97C794.587 180.181 791.616 179.9 788.66 179.816L784.205 179.606C782.72 179.48 781.207 179.255 779.722 179.073C767.785 177.685 755.653 174.39 744.571 169.075C733.475 163.803 723.542 156.778 714.954 149.136C706.337 141.48 698.94 133.235 692.201 125.032C685.463 116.815 679.368 108.613 673.442 100.732C661.646 85.0135 650.353 70.3606 637.632 60.1385C631.3 55.0065 624.701 51.0102 617.682 48.2199C610.677 45.4295 603.224 43.859 595.35 43.2982L589.382 43.0598L583.414 43.3122C582.923 43.3402 582.405 43.3122 581.929 43.3823L580.485 43.5786L577.599 43.9572C576.647 44.1114 575.652 44.1255 574.727 44.3779L571.939 45.0229C564.514 46.7055 557.551 49.5239 550.938 53.5763C537.671 61.6109 525.832 74.6232 514.232 89.6688C502.534 104.658 491.018 121.611 475.901 137.806C468.335 145.869 459.747 153.721 449.786 160.41C439.867 167.098 428.533 172.525 416.68 175.778C413.71 176.535 410.726 177.166 407.742 177.825C406.243 178.204 404.758 178.358 403.259 178.568L398.762 179.157C395.749 179.634 392.793 179.69 389.837 179.83L385.382 179.998C383.897 180.096 382.412 179.942 380.927 179.914C377.957 179.76 375.001 179.746 372.016 179.423L363.036 178.246C360.052 177.699 357.068 176.97 354.084 176.297C352.585 176.002 351.128 175.525 349.656 175.049L345.271 173.632C333.629 169.622 322.757 163.565 313.328 156.469C303.858 149.36 295.732 141.326 288.503 133.179C274.058 116.843 262.78 100.017 251.068 85.4482C239.44 70.8373 227.391 58.526 213.871 51.4169C207.133 47.8273 200.015 45.4435 192.422 44.1395C190.489 43.9011 188.569 43.6487 186.65 43.3823L180.682 43.1299C178.692 42.9616 176.689 43.1579 174.685 43.1439L171.729 43.3683C170.735 43.4103 169.768 43.5225 168.815 43.6627C153.334 45.4716 139.884 51.9918 127.43 63.1533L122.12 67.9628C120.13 69.7436 118.225 71.5384 116.18 73.2912L109.917 78.5354C107.844 80.2881 105.504 81.9427 103.29 83.6394C94.2679 90.3278 83.9285 96.5957 72.5804 101.027C61.2603 105.514 49.5059 107.953 38.494 109.3C27.3981 110.688 16.9606 111.01 6.67728 111.291C-13.8194 111.683 -33.4614 111.487 -53.3416 111.543H-250V68.5237H-53.2856C-33.4894 68.4816 -13.4411 68.6499 5.73859 68.2853C15.2794 68.0329 24.7082 67.7104 33.3103 66.6027C41.9685 65.537 49.7721 63.8123 56.9172 60.9799C64.0763 58.1755 70.8852 54.1512 77.7921 49.0331C79.5013 47.687 81.2386 46.5092 82.9618 45.0509L88.1175 40.7462C89.8407 39.2739 91.5359 37.6613 93.2451 36.1329L98.9753 30.9448C103.29 27.1308 107.914 23.4711 112.845 20.0778C117.777 16.6985 123.086 13.6557 128.606 11.0196C134.126 8.36944 139.927 6.16799 145.839 4.5134C151.737 2.84479 157.761 1.59683 163.744 0.923779C165.243 0.713449 166.742 0.559207 168.227 0.461054L172.696 0.138548C175.652 0.0964824 178.608 -0.113847 181.578 0.0824604C184.548 0.208658 187.505 0.306812 190.475 0.489098L199.455 1.65292C211.434 3.64404 223.356 7.6403 234.102 13.4033C244.89 19.1383 254.402 26.4578 262.682 34.254C270.976 42.0642 278.121 50.3512 284.678 58.5541C291.249 66.7709 297.231 74.9317 303.101 82.6999C308.971 90.4681 314.729 97.8857 320.67 104.574C326.61 111.263 332.718 117.194 339.135 122.003C345.552 126.813 352.248 130.473 359.365 132.955L362.055 133.824C362.952 134.132 363.835 134.441 364.787 134.595C366.651 134.974 368.486 135.465 370.377 135.815C372.311 136.039 374.23 136.292 376.149 136.558C378.097 136.769 380.114 136.741 382.09 136.867C390.089 137.021 397.991 136.25 405.262 134.273C412.561 132.268 419.37 129.014 425.899 124.64C432.428 120.265 438.634 114.698 444.644 108.29C456.693 95.4739 467.705 79.545 480.356 63.2094C486.702 55.0346 493.511 46.7195 501.399 38.727C509.259 30.7625 518.253 23.1065 528.592 16.7966C538.89 10.4727 550.532 5.69125 562.455 3.02707L566.938 2.03151C568.437 1.68096 569.922 1.58281 571.421 1.34444L575.918 0.755515L578.16 0.475076C578.902 0.390944 579.645 0.390944 580.387 0.334856L589.284 0.0544167C592.254 0.0964826 595.224 0.264746 598.18 0.390944C610.075 1.1902 622.249 3.71415 633.682 8.29933C645.128 12.8425 655.621 19.3486 664.7 26.7102C673.806 34.0857 681.61 42.2325 688.587 50.4213C695.578 58.6242 701.826 66.8831 707.823 74.8756C719.787 90.8326 730.967 105.85 743.464 116.928C749.684 122.466 756.171 126.939 763.022 130.206C769.859 133.473 777.144 135.451 784.892 136.362C785.858 136.474 786.811 136.656 787.792 136.727L790.776 136.839C792.765 136.867 794.755 137.147 796.744 136.951L802.698 136.698C804.618 136.418 806.537 136.166 808.47 135.941C816.05 134.637 823.167 132.254 829.92 128.65C843.439 121.527 855.488 109.215 867.116 94.5905C878.815 80.0077 890.107 63.1813 904.551 46.8597C911.794 38.713 919.92 30.6784 929.391 23.5833C938.834 16.4882 949.705 10.4447 961.348 6.43441L965.733 5.01819C967.19 4.54145 968.661 4.07872 970.16 3.77024C973.144 3.11121 976.128 2.36804 979.112 1.83521L988.093 0.657361C991.077 0.348878 994.033 0.334856 997.003 0.180614C999.973 -0.0297153 1002.94 0.15257 1005.9 0.278768C1008.87 0.404966 1011.83 0.475075 1014.82 0.951822L1019.32 1.54074C1020.82 1.75107 1022.32 1.90532 1023.8 2.28391C1026.79 2.94294 1029.77 3.57393 1032.74 4.34514C1044.61 7.59824 1055.92 13.0247 1065.85 19.7272C1075.81 26.4157 1084.38 34.268 1091.95 42.3307C1107.07 58.526 1118.58 75.4786 1130.28 90.4681C1141.88 105.514 1153.71 118.526 1166.99 126.547C1173.61 130.585 1180.56 133.403 1187.99 135.086L1190.78 135.731C1191.7 135.969 1192.7 135.997 1193.65 136.138L1196.53 136.516L1197.98 136.713C1198.47 136.769 1198.97 136.755 1199.46 136.783L1205.43 137.035C1206.43 137.035 1207.43 136.993 1208.43 136.979C1209.44 136.979 1210.43 136.937 1211.41 136.839C1227.26 135.885 1241.02 130.262 1253.67 119.97C1255.24 118.652 1256.82 117.348 1258.36 115.904L1263.98 110.828C1267.82 107.238 1272.1 103.761 1276.31 100.297C1284.95 93.4407 1294.76 86.8504 1305.77 81.7604C1308.46 80.3863 1311.33 79.3767 1314.16 78.269C1316.98 77.1051 1319.86 76.3199 1322.75 75.4505C1325.64 74.5111 1328.49 73.9362 1331.35 73.2912C1332.78 72.9967 1334.24 72.6041 1335.64 72.3937L1339.86 71.7067C1351.08 69.9679 1361.84 69.2809 1372.15 68.9724C1382.49 68.6499 1392.6 68.5938 1402.58 68.5798H1432.39H1669.92V111.599L1669.88 111.557Z" fill="#0F2643"/>
    <path d="M-250 72.5204H-53.2856C-33.4754 72.4783 -13.4691 72.6466 5.83667 72.282C15.4475 72.0296 24.9743 71.7071 33.8007 70.5713C42.683 69.4776 50.8509 67.6828 58.3742 64.7101C65.9116 61.7655 73.0567 57.5169 80.1598 52.2586C81.9251 50.8845 83.7043 49.6646 85.4556 48.1782L90.7094 43.7894C92.4606 42.289 94.1838 40.6625 95.9211 39.12L101.609 33.974C105.812 30.2582 110.295 26.6966 115.073 23.4295C119.85 20.1483 124.978 17.2317 130.302 14.6797C135.625 12.1278 141.215 9.99638 146.918 8.4119C152.606 6.79937 158.42 5.59348 164.206 4.94847C165.649 4.75217 167.106 4.59792 168.549 4.49977L172.878 4.19129C175.75 4.14922 178.608 3.93889 181.494 4.1352C184.366 4.2614 187.252 4.35955 190.124 4.52781L198.811 5.66359C210.383 7.59862 221.857 11.4407 232.239 16.9934C242.648 22.518 251.881 29.6131 259.95 37.2271C268.048 44.855 275.081 53.0018 281.568 61.1205C294.527 77.372 305.525 93.6375 317.686 107.294C323.738 114.109 330.042 120.251 336.739 125.271C343.436 130.29 350.511 134.175 358.048 136.797L360.893 137.722C361.845 138.045 362.784 138.367 363.779 138.535C365.754 138.942 367.687 139.447 369.677 139.825L375.743 140.611C377.775 140.835 379.89 140.807 381.964 140.933C390.314 141.087 398.594 140.302 406.299 138.199C414.019 136.068 421.248 132.632 428.085 128.033C434.921 123.434 441.366 117.657 447.502 111.108C459.845 97.9843 470.899 81.9572 483.452 65.7478C489.743 57.6431 496.467 49.4262 504.187 41.616C511.879 33.8197 520.621 26.3881 530.624 20.2885C540.585 14.175 551.793 9.57572 563.295 6.99568L567.61 6.04219C569.053 5.70566 570.496 5.60751 571.939 5.38315L576.283 4.82228L578.454 4.55586C579.183 4.47173 579.897 4.47173 580.612 4.42966L589.242 4.06509C592.114 4.10715 595 4.27542 597.872 4.38759C609.388 5.1588 621.143 7.59862 632.155 12.0156C643.194 16.3904 653.324 22.6723 662.15 29.8235C671.004 36.9887 678.64 44.9672 685.519 53.0298C692.412 61.1065 698.604 69.3093 704.6 77.2878C716.551 93.2168 727.843 108.458 740.788 119.928C747.233 125.663 754.042 130.375 761.271 133.824C768.5 137.287 776.233 139.377 784.359 140.33C785.368 140.456 786.377 140.639 787.4 140.723L790.524 140.835C792.597 140.877 794.685 141.143 796.758 140.947L802.993 140.681L809.059 139.882C817.045 138.521 824.61 135.983 831.727 132.183C846.003 124.654 858.402 111.866 870.157 97.1009C881.981 82.3498 893.245 65.5795 907.465 49.5243C914.582 41.5178 922.526 33.6795 931.717 26.7807C940.879 19.8959 951.359 14.0628 962.581 10.2067L966.812 8.84658C968.227 8.38386 969.628 7.93515 971.085 7.64069C973.957 7.0097 976.843 6.29458 979.729 5.76175L988.415 4.62597C991.301 4.33151 994.173 4.31748 997.045 4.16324C1008.51 3.93889 1020.16 5.0326 1031.62 8.17353C1043.05 11.3005 1053.95 16.5447 1063.56 23.0228C1073.2 29.501 1081.57 37.1429 1088.99 45.0513C1103.82 60.9382 1115.29 77.7926 1127.07 92.9083C1138.76 108.052 1150.88 121.485 1164.84 129.94C1171.81 134.189 1179.19 137.189 1187.04 138.956L1189.98 139.629C1190.96 139.867 1191.99 139.91 1192.99 140.064L1196.03 140.456L1197.54 140.667C1198.05 140.723 1198.58 140.709 1199.1 140.737L1205.33 141.003C1206.37 141.003 1207.42 140.961 1208.47 140.933C1209.52 140.933 1210.56 140.891 1211.58 140.793C1219.85 140.26 1227.73 138.577 1235.13 135.591C1242.56 132.674 1249.48 128.341 1256.09 123.041C1257.72 121.667 1259.37 120.321 1260.95 118.835L1266.56 113.773C1270.37 110.225 1274.57 106.818 1278.7 103.396C1287.19 96.6662 1296.72 90.2722 1307.37 85.3645C1317.99 80.4147 1329.48 77.3159 1340.4 75.6192C1351.36 73.9226 1361.96 73.2355 1372.21 72.927C1382.47 72.6045 1392.55 72.5484 1402.51 72.5344H1432.31H1671.84" stroke="#98A2BB" stroke-width="1.6" stroke-miterlimit="10" stroke-dasharray="3.2 3.2"/>
    <path d="M-250 107.575H-53.2856C-33.4194 107.533 -13.7353 107.715 6.63525 107.323C16.8486 107.042 27.1879 106.72 38.0597 105.359C48.8474 104.041 60.2516 101.658 71.1794 97.3244C82.1352 93.0477 92.1524 86.9902 100.979 80.4419C103.136 78.7733 105.42 77.1608 107.465 75.4361L113.63 70.276C115.647 68.5373 117.539 66.7706 119.5 65.0179L124.852 60.1802C137.713 48.6261 152.115 41.6011 168.409 39.7221C169.418 39.5819 170.44 39.4698 171.477 39.4137L174.573 39.1894C176.661 39.1894 178.762 38.9931 180.836 39.1614L187.07 39.4277L193.137 40.227C201.136 41.5872 208.688 44.125 215.805 47.911C230.081 55.4408 242.48 68.2149 254.234 82.9799C266.059 97.731 277.323 114.502 291.529 130.557C298.646 138.563 306.576 146.416 315.766 153.301C324.915 160.185 335.408 166.019 346.63 169.889L350.861 171.249C352.276 171.711 353.677 172.174 355.134 172.455C358.006 173.1 360.893 173.801 363.779 174.334L372.465 175.469C375.351 175.778 378.223 175.792 381.095 175.932C392.555 176.17 404.211 175.077 415.672 171.936C427.104 168.795 438.018 163.579 447.629 157.101C457.267 150.622 465.631 142.98 473.057 135.072C487.893 119.185 499.368 102.331 511.15 87.2147C522.834 72.0569 534.953 58.6378 548.921 50.1685C555.884 45.9199 563.267 42.9052 571.113 41.1385L574.055 40.4654C575.022 40.213 576.072 40.185 577.067 40.0307L580.107 39.6381L581.62 39.4277C582.125 39.3576 582.657 39.3717 583.175 39.3437L589.41 39.0771C591.483 39.1332 593.571 39.2595 595.644 39.3296C603.896 39.9045 611.784 41.559 619.195 44.5177C626.607 47.4623 633.569 51.6969 640.168 57.0393C653.408 67.696 664.84 82.5874 676.664 98.3341C682.591 106.229 688.657 114.39 695.312 122.508C701.966 130.613 709.224 138.704 717.63 146.163C726.008 153.609 735.618 160.396 746.322 165.486C757.012 170.604 768.682 173.787 780.24 175.119C781.683 175.287 783.14 175.525 784.583 175.638L788.898 175.834C791.77 175.904 794.657 176.198 797.529 175.988C800.401 175.862 803.273 175.778 806.159 175.581L814.845 174.446C826.417 172.511 837.892 168.655 848.273 163.102C858.682 157.563 867.915 150.482 875.985 142.854C884.083 135.226 891.102 127.08 897.602 118.961C910.562 102.709 921.559 86.4433 933.72 72.7859C939.772 65.9713 946.077 59.8297 952.774 54.8238C959.47 49.8039 966.56 45.92 974.097 43.3119L976.941 42.3863C977.88 42.0638 978.832 41.7414 979.827 41.5731C981.802 41.1665 983.736 40.6617 985.725 40.2831L991.792 39.4978C993.837 39.2734 995.939 39.3016 998.012 39.1754C1006.36 39.0211 1014.64 39.8203 1022.35 41.9236C1030.07 44.0409 1037.3 47.5044 1044.13 52.1035C1050.97 56.7027 1057.4 62.4799 1063.55 69.0422C1075.89 82.1808 1086.95 98.1938 1099.5 114.404C1105.79 122.508 1112.53 130.725 1120.25 138.535C1127.95 146.332 1136.7 153.763 1146.69 159.849C1156.65 165.948 1167.86 170.548 1179.37 173.128L1183.69 174.081C1185.13 174.418 1186.57 174.516 1188.03 174.74L1192.37 175.301L1194.54 175.567C1195.27 175.652 1195.99 175.652 1196.7 175.694L1205.33 176.044C1206.76 176.044 1208.2 175.988 1209.63 175.96C1211.06 175.932 1212.51 175.89 1213.95 175.764C1225.46 175.035 1237.25 172.567 1248.24 168.108C1259.31 163.747 1269.37 157.381 1278.21 150.258C1280.38 148.449 1282.56 146.626 1284.6 144.733L1290.04 139.811C1293.48 136.586 1297.01 133.754 1300.52 130.837C1307.58 125.243 1314.69 120.573 1322.08 117.166C1329.46 113.745 1337.29 111.571 1345.95 110.211C1354.59 108.865 1363.83 108.206 1373.41 107.94C1382.98 107.645 1392.74 107.575 1402.62 107.561H1432.35H1670.88" stroke="#98A2BB" stroke-width="1.6" stroke-miterlimit="10" stroke-dasharray="3.2 3.2"/>
    <path d="M-249.797 90.0474H-53.2855C-33.4473 90.0053 -13.5951 90.1876 6.2431 89.795C16.1482 89.5286 26.0813 89.2061 35.9303 87.9581C45.7653 86.7522 55.5443 84.663 64.7769 81.0032C74.0235 77.3856 82.5977 72.2395 90.5694 66.3363C92.5308 64.8219 94.5622 63.3916 96.4676 61.7931L102.184 57.0116C105.91 53.7305 109.553 50.3652 113.238 47.042C120.663 40.4657 128.845 34.6887 137.839 30.454C142.308 28.3087 146.96 26.5279 151.751 25.2098C156.529 23.8637 161.39 22.8401 166.322 22.2933C167.554 22.125 168.787 21.9848 170.02 21.9147L173.733 21.6482C176.213 21.6342 178.692 21.4239 181.172 21.6062C183.652 21.7184 186.132 21.7885 188.597 21.9427L195.981 22.9102C205.76 24.5508 215.287 27.7478 224.029 32.4171C232.799 37.0724 240.757 43.1439 247.972 49.9446C255.201 56.7452 261.716 64.275 267.922 72.0152C280.321 87.5234 291.445 104.027 304.628 118.891C311.213 126.308 318.33 133.291 326.274 139.25C334.204 145.21 342.988 150.061 352.361 153.3L355.905 154.436C357.082 154.829 358.259 155.222 359.478 155.446C361.901 155.965 364.311 156.568 366.749 157.03L374.132 157.998C376.598 158.264 379.078 158.25 381.557 158.39C391.463 158.587 401.424 157.647 411.021 155.025C420.603 152.389 429.668 148.056 437.892 142.518C446.13 136.979 453.541 130.276 460.322 123.041C473.911 108.528 485.176 92.0946 497.35 76.4321C503.431 68.5938 509.749 60.9098 516.726 53.8567C523.689 46.8037 531.339 40.3535 539.815 35.1794C548.277 30.0053 557.579 26.1914 567.246 24.018L570.875 23.2047C572.08 22.9102 573.327 22.8401 574.545 22.6578L578.23 22.1811L580.079 21.9427C580.696 21.8726 581.312 21.8726 581.929 21.8446L589.368 21.5361C591.848 21.5781 594.328 21.7324 596.807 21.8165C606.698 22.4896 616.519 24.5368 625.724 28.2245C634.957 31.8843 643.503 37.1425 651.208 43.3823C658.928 49.6221 665.849 56.8013 672.279 64.3592C678.724 71.917 684.72 79.8254 690.674 87.7618C702.597 103.579 714.393 119.746 729.244 132.983C736.655 139.573 744.865 145.322 753.832 149.599C762.784 153.889 772.493 156.526 782.342 157.675C783.575 157.83 784.794 158.026 786.027 158.124L789.739 158.278C792.219 158.334 794.699 158.615 797.179 158.404C799.658 158.292 802.138 158.222 804.604 158.068L811.987 157.1C821.766 155.446 831.293 152.263 840.035 147.58C848.805 142.924 856.763 136.853 863.964 130.052C871.194 123.237 877.708 115.722 883.901 107.981C896.3 92.4732 907.423 75.9693 920.607 61.1061C927.192 53.6884 934.309 46.7055 942.266 40.7602C950.196 34.8009 958.98 29.9493 968.353 26.7242L971.898 25.5884C973.074 25.1958 974.251 24.8032 975.47 24.5788C977.894 24.06 980.304 23.4431 982.741 22.9944L990.125 22.0268C992.59 21.7744 995.07 21.7744 997.55 21.6342C1007.46 21.4379 1017.42 22.3914 1027 25.0135C1036.58 27.6356 1045.65 31.9824 1053.87 37.5211C1062.11 43.0598 1069.51 49.7763 1076.29 56.9976C1089.88 71.5104 1101.13 87.9441 1113.3 103.607C1119.38 111.445 1125.7 119.129 1132.69 126.182C1139.65 133.235 1147.3 139.685 1155.78 144.845C1164.24 150.019 1173.54 153.819 1183.21 155.993C1192.88 158.138 1202.88 158.937 1212.77 158.236C1222.66 157.605 1232.5 155.53 1241.7 151.814C1250.95 148.182 1259.44 142.826 1267.17 136.614C1271.03 133.487 1274.63 130.052 1278.32 126.757C1281.95 123.364 1285.82 120.251 1289.63 117.082C1297.41 110.926 1305.73 105.387 1314.74 101.237C1323.73 97.0444 1333.4 94.4082 1343.19 92.8798C1353 91.3655 1362.92 90.6784 1372.82 90.3979C1382.74 90.0895 1392.66 90.0194 1402.58 90.0053H1432.34H1669.87" stroke="#F63E56" stroke-width="1.6" stroke-miterlimit="10" stroke-linecap="round"/>
    <path d="M360 4H260V304H360V4Z" fill="url(#paint0_linear_602_26)"/>
    <path d="M100 4H0V304H100V4Z" fill="url(#paint1_linear_602_26)"/>
  </g>
  <defs>
    <linearGradient id="paint0_linear_602_26" x1="355.5" y1="154" x2="260" y2="154" gradientUnits="userSpaceOnUse">
      <stop offset="0.25" stop-color="#051A34"/>
      <stop offset="1" stop-color="#051A34" stop-opacity="0"/>
    </linearGradient>
    <linearGradient id="paint1_linear_602_26" x1="95.5" y1="154" x2="0" y2="154" gradientUnits="userSpaceOnUse">
      <stop stop-color="#051A34" stop-opacity="0"/>
      <stop offset="0.75" stop-color="#051A34"/>
    </linearGradient>
    <clipPath id="clip0_602_26">
      <rect width="360" height="304" fill="white"/>
    </clipPath>
  </defs>
</svg>
