<svg width="5039" height="181" viewBox="0 0 5039 181" fill="none" xmlns="http://www.w3.org/2000/svg">
  <path d="M5039 112.502H3211.64C3201.77 112.53 3192.04 112.587 3182.55 112.881C3173.04 113.147 3163.96 113.806 3155.58 115.111C3147.19 116.429 3139.76 118.504 3132.74 121.757C3125.73 124.996 3118.89 129.469 3112 134.924C3108.56 137.784 3105.12 140.546 3101.7 143.729L3096.28 148.637C3094.18 150.586 3091.95 152.451 3089.71 154.316C3080.6 161.649 3070.19 168.24 3058.7 172.769C3047.28 177.382 3035.07 179.948 3023.17 180.691C3021.67 180.817 3020.2 180.874 3018.72 180.902C3017.23 180.93 3015.76 180.986 3014.28 180.986L3005.38 180.621C3004.64 180.579 3003.89 180.579 3003.15 180.495L3000.91 180.214L2996.41 179.626C2994.91 179.401 2993.42 179.289 2991.93 178.953L2987.45 177.971C2975.52 175.307 2963.88 170.525 2953.57 164.215C2943.23 157.92 2934.24 150.264 2926.36 142.299C2918.48 134.307 2911.65 125.992 2905.31 117.817C2892.66 101.481 2881.64 85.5522 2869.59 72.7361C2863.6 66.3281 2857.38 60.7614 2850.85 56.3865C2844.32 51.9976 2837.51 48.7445 2830.21 46.7394C2822.94 44.7483 2815.04 43.9911 2807.05 44.1313C2805.08 44.2575 2803.05 44.2295 2801.11 44.4258C2799.19 44.6922 2797.26 44.9446 2795.34 45.1829C2793.45 45.5335 2791.63 46.0243 2789.75 46.4029C2788.8 46.5571 2787.92 46.8656 2787.02 47.1741L2784.33 48.0434C2777.21 50.5113 2770.52 54.171 2764.1 58.9806C2757.68 63.7761 2751.57 69.7214 2745.63 76.3959C2733.7 89.7728 2722.73 105.982 2709.64 122.416C2703.09 130.619 2695.94 138.906 2687.65 146.716C2679.38 154.512 2669.87 161.846 2659.08 167.567C2648.33 173.33 2636.41 177.326 2624.43 179.331L2615.45 180.495C2612.48 180.691 2609.51 180.789 2606.56 180.916C2603.59 181.126 2600.62 180.845 2597.66 180.761L2593.21 180.551C2591.72 180.425 2590.21 180.2 2588.72 180.018C2576.79 178.63 2564.65 175.335 2553.57 170.021C2542.47 164.748 2532.54 157.723 2523.95 150.081C2515.34 142.425 2507.94 134.18 2501.2 125.978C2494.46 117.761 2488.37 109.558 2482.44 101.677C2470.65 85.9588 2459.35 71.3059 2446.63 61.0839C2440.3 55.9518 2433.7 51.9556 2426.68 49.1652C2419.68 46.3748 2412.22 44.8044 2404.35 44.2435L2398.38 44.0051L2392.41 44.2575C2391.92 44.2855 2391.4 44.2575 2390.93 44.3276L2389.49 44.5239L2386.6 44.9025C2385.65 45.0568 2384.65 45.0708 2383.73 45.3232L2380.94 45.9682C2373.51 47.6508 2366.55 50.4692 2359.94 54.5216C2346.67 62.5562 2334.83 75.5686 2323.23 90.6141C2311.53 105.604 2300.02 122.556 2284.9 138.752C2277.34 146.814 2268.75 154.666 2258.79 161.355C2248.87 168.043 2237.53 173.47 2225.68 176.723C2222.71 177.48 2219.73 178.111 2216.74 178.77C2215.24 179.149 2213.76 179.303 2212.26 179.513L2207.76 180.102C2204.75 180.579 2201.79 180.635 2198.84 180.775L2194.38 180.944C2192.9 181.042 2191.41 180.888 2189.93 180.86C2186.96 180.705 2184 180.691 2181.02 180.369L2172.04 179.191C2169.05 178.644 2166.07 177.915 2163.08 177.242C2161.58 176.947 2160.13 176.471 2158.66 175.994L2154.27 174.578C2142.63 170.567 2131.76 164.51 2122.33 157.415C2112.86 150.306 2104.73 142.271 2097.5 134.124C2083.06 117.789 2071.78 100.962 2060.07 86.3935C2048.44 71.7826 2036.39 59.4713 2022.87 52.3622C2016.13 48.7726 2009.02 46.3888 2001.42 45.0848C1999.49 44.8464 1997.57 44.594 1995.65 44.3276L1989.68 44.0752C1987.69 43.907 1985.69 44.1033 1983.69 44.0892L1980.73 44.3136C1979.73 44.3557 1978.77 44.4678 1977.82 44.6081C1962.33 46.4169 1948.88 52.9371 1936.43 64.0986L1931.12 68.9081C1929.13 70.6889 1927.23 72.4837 1925.18 74.2365L1918.92 79.4807C1916.84 81.2334 1914.5 82.888 1912.29 84.5847C1903.27 91.2732 1892.93 97.541 1881.58 101.972C1870.26 106.459 1858.51 108.899 1847.49 110.245C1836.4 111.633 1825.96 111.956 1815.68 112.236C1795.18 112.629 1775.54 112.432 1755.66 112.488H0V69.469H1755.71C1775.51 69.4269 1795.56 69.5952 1814.74 69.2306C1824.28 68.9782 1833.71 68.6557 1842.31 67.548C1850.97 66.4823 1858.77 64.7576 1865.92 61.9252C1873.08 59.1208 1879.89 55.0965 1886.79 49.9785C1888.5 48.6324 1890.24 47.4545 1891.96 45.9962L1897.12 41.6915C1898.84 40.2192 1900.54 38.6066 1902.25 37.0783L1907.98 31.8901C1912.29 28.0761 1916.91 24.4164 1921.85 21.0231C1926.78 17.6438 1932.09 14.601 1937.61 11.9649C1943.13 9.31476 1948.93 7.11331 1954.84 5.45871C1960.74 3.7901 1966.76 2.54215 1972.74 1.86909C1974.24 1.65876 1975.74 1.50452 1977.23 1.40637L1981.7 1.08386C1984.65 1.04179 1987.61 0.831465 1990.58 1.02777C1993.55 1.15397 1996.5 1.25212 1999.47 1.43441L2008.46 2.59823C2020.43 4.58935 2032.36 8.58561 2043.1 14.3486C2053.89 20.0836 2063.4 27.4031 2071.68 35.1993C2079.98 43.0095 2087.12 51.2965 2093.68 59.4994C2100.25 67.7163 2106.23 75.877 2112.1 83.6452C2117.97 91.4134 2123.73 98.831 2129.67 105.519C2135.61 112.208 2141.72 118.139 2148.14 122.949C2154.55 127.758 2161.25 131.418 2168.37 133.9L2171.06 134.769C2171.95 135.078 2172.83 135.386 2173.79 135.541C2175.65 135.919 2177.49 136.41 2179.38 136.76C2181.31 136.985 2183.23 137.237 2185.15 137.504C2187.1 137.714 2189.11 137.686 2191.09 137.812C2199.09 137.966 2206.99 137.195 2214.26 135.218C2221.56 133.213 2228.37 129.96 2234.9 125.585C2241.43 121.21 2247.63 115.643 2253.64 109.235C2265.69 96.4192 2276.7 80.4903 2289.36 64.1547C2295.7 55.9799 2302.51 47.6648 2310.4 39.6723C2318.26 31.7078 2327.25 24.0518 2337.59 17.742C2347.89 11.418 2359.53 6.63656 2371.45 3.97239L2375.94 2.97683C2377.44 2.62628 2378.92 2.52812 2380.42 2.28975L2384.92 1.70083L2387.16 1.42039C2387.9 1.33626 2388.64 1.33626 2389.39 1.28017L2398.28 0.99973C2401.25 1.0418 2404.22 1.21006 2407.18 1.33626C2419.07 2.13551 2431.25 4.65946 2442.68 9.24465C2454.13 13.7878 2464.62 20.294 2473.7 27.6555C2482.81 35.031 2490.61 43.1778 2497.59 51.3666C2504.58 59.5695 2510.83 67.8284 2516.82 75.8209C2528.79 91.7779 2539.97 106.795 2552.46 117.873C2558.68 123.412 2565.17 127.885 2572.02 131.152C2578.86 134.419 2586.14 136.396 2593.89 137.307C2594.86 137.419 2595.81 137.602 2596.79 137.672L2599.78 137.784C2601.77 137.812 2603.75 138.093 2605.74 137.896L2611.7 137.644C2613.62 137.363 2615.54 137.111 2617.47 136.887C2625.05 135.583 2632.17 133.199 2638.92 129.595C2652.44 122.472 2664.49 110.161 2676.12 95.5358C2687.81 80.953 2699.11 64.1266 2713.55 47.8051C2720.79 39.6583 2728.92 31.6237 2738.39 24.5286C2747.83 17.4335 2758.71 11.39 2770.35 7.37972L2774.73 5.96351C2776.19 5.48676 2777.66 5.02403 2779.16 4.71555C2782.14 4.05652 2785.13 3.31335 2788.11 2.78052L2797.09 1.60267C2800.08 1.29419 2803.03 1.28017 2806 1.12593C2808.97 0.915597 2811.94 1.09788 2814.9 1.22408C2817.87 1.35028 2820.83 1.42039 2823.82 1.89713L2828.32 2.48606C2829.82 2.69639 2831.32 2.85063 2832.8 3.22922C2835.79 3.88825 2838.77 4.51924 2841.74 5.29045C2853.61 8.54355 2864.92 13.97 2874.85 20.6725C2884.81 27.361 2893.38 35.2133 2900.95 43.276C2916.07 59.4713 2927.58 76.4239 2939.28 91.4134C2950.88 106.459 2962.71 119.471 2975.99 127.492C2982.61 131.53 2989.56 134.349 2996.99 136.031L2999.78 136.676C3000.7 136.915 3001.7 136.943 3002.65 137.083L3005.53 137.462L3006.98 137.658C3007.47 137.714 3007.97 137.7 3008.46 137.728L3014.43 137.98C3015.42 137.98 3016.43 137.938 3017.43 137.924C3018.44 137.924 3019.43 137.882 3020.41 137.784C3036.26 136.831 3050.02 131.208 3062.67 120.916C3064.24 119.598 3065.82 118.293 3067.36 116.849L3072.98 111.773C3076.82 108.184 3081.1 104.706 3085.31 101.243C3093.95 94.386 3103.76 87.7957 3114.77 82.7057C3117.46 81.3316 3120.33 80.322 3123.16 79.2143C3125.98 78.0504 3128.86 77.2652 3131.75 76.3959C3134.64 75.4564 3137.49 74.8815 3140.35 74.2365C3141.78 73.942 3143.24 73.5494 3144.64 73.3391L3148.86 72.652C3160.08 70.9133 3170.84 70.2262 3181.15 69.9177C3191.49 69.5952 3201.6 69.5391 3211.58 69.5251H3241.39H5039.04V112.544L5039 112.502Z" fill="#0F2643"/>
  <path d="M0 73.4652H1755.71C1775.52 73.4231 1795.53 73.5914 1814.84 73.2268C1824.45 72.9744 1833.97 72.6519 1842.8 71.5161C1851.68 70.4224 1859.85 68.6276 1867.37 65.6549C1874.91 62.7103 1882.06 58.4617 1889.16 53.2034C1890.93 51.8293 1892.7 50.6093 1894.46 49.123L1899.71 44.7341C1901.46 43.2338 1903.18 41.6072 1904.92 40.0648L1910.61 34.9188C1914.81 31.2029 1919.3 27.6414 1924.07 24.3742C1928.85 21.0931 1933.98 18.1765 1939.3 15.6245C1944.63 13.0725 1950.22 10.9412 1955.92 9.35672C1961.61 7.74419 1967.42 6.5383 1973.21 5.89329C1974.65 5.69699 1976.11 5.54274 1977.55 5.44459L1981.88 5.13611C1984.75 5.09404 1987.61 4.88371 1990.49 5.08002C1993.37 5.20622 1996.25 5.30437 1999.12 5.47263L2007.81 6.60841C2019.38 8.54345 2030.86 12.3855 2041.24 17.9382C2051.65 23.4628 2060.88 30.5579 2068.95 38.1719C2077.05 45.7998 2084.08 53.9466 2090.57 62.0653C2103.53 78.3168 2114.52 94.5823 2126.69 108.24C2132.74 115.054 2139.04 121.196 2145.74 126.216C2152.44 131.236 2159.51 135.12 2167.05 137.742L2169.89 138.667C2170.85 138.99 2171.78 139.312 2172.78 139.481C2174.75 139.887 2176.69 140.392 2178.68 140.771L2184.74 141.556C2186.77 141.78 2188.89 141.752 2190.96 141.878C2199.31 142.033 2207.59 141.247 2215.3 139.144C2223.02 137.013 2230.25 133.577 2237.08 128.978C2243.92 124.379 2250.37 118.602 2256.5 112.054C2268.85 98.9291 2279.9 82.9019 2292.45 66.6925C2298.74 58.5878 2305.47 50.371 2313.19 42.5607C2320.88 34.7645 2329.62 27.3329 2339.62 21.2333C2349.59 15.1197 2360.79 10.5205 2372.3 7.9405L2376.61 6.98701C2378.05 6.65048 2379.5 6.55233 2380.94 6.32797L2385.28 5.7671L2387.45 5.50068C2388.18 5.41655 2388.9 5.41655 2389.61 5.37448L2398.24 5.00991C2401.11 5.05197 2404 5.22024 2406.87 5.33241C2418.39 6.10362 2430.14 8.54345 2441.15 12.9604C2452.19 17.3352 2462.32 23.6171 2471.15 30.7683C2480 37.9335 2487.64 45.912 2494.52 53.9746C2501.41 62.0513 2507.6 70.2541 2513.6 78.2326C2525.55 94.1616 2536.84 109.403 2549.79 120.873C2556.23 126.608 2563.04 131.32 2570.27 134.769C2577.5 138.233 2585.23 140.322 2593.36 141.275C2594.37 141.402 2595.38 141.584 2596.4 141.668L2599.52 141.78C2601.6 141.822 2603.68 142.089 2605.76 141.892L2611.99 141.626L2618.06 140.827C2626.04 139.467 2633.61 136.929 2640.73 133.129C2655 125.599 2667.4 112.811 2679.16 98.0457C2690.98 83.2946 2702.25 66.5243 2716.47 50.4691C2723.58 42.4626 2731.53 34.6243 2740.72 27.7255C2749.88 20.8407 2760.36 15.0076 2771.58 11.1515L2775.81 9.7914C2777.23 9.32868 2778.63 8.87997 2780.08 8.58551C2782.96 7.95452 2785.84 7.2394 2788.73 6.70657L2797.42 5.57079C2800.3 5.27633 2803.17 5.2623 2806.05 5.10806C2817.51 4.88371 2829.16 5.97742 2840.62 9.11835C2852.05 12.2452 2862.95 17.4895 2872.56 23.9676C2882.2 30.4458 2890.57 38.0877 2897.99 45.9961C2912.82 61.883 2924.29 78.7374 2936.07 93.8531C2947.76 108.997 2959.88 122.43 2973.84 130.885C2980.81 135.134 2988.19 138.134 2996.04 139.901L2998.98 140.574C2999.96 140.813 3000.99 140.855 3001.99 141.009L3005.03 141.402L3006.54 141.612C3007.05 141.668 3007.58 141.654 3008.1 141.682L3014.33 141.948C3015.37 141.948 3016.42 141.906 3017.47 141.878C3018.52 141.878 3019.56 141.836 3020.58 141.738C3028.85 141.205 3036.73 139.523 3044.13 136.536C3051.56 133.619 3058.48 129.287 3065.09 123.986C3066.72 122.612 3068.37 121.266 3069.95 119.78L3075.56 114.718C3079.37 111.17 3083.57 107.763 3087.7 104.342C3096.19 97.611 3105.72 91.217 3116.37 86.3093C3126.99 81.3595 3138.48 78.2607 3149.4 76.564C3160.36 74.8674 3170.96 74.1803 3181.21 73.8718C3191.47 73.5493 3201.55 73.4932 3211.51 73.4792H3241.31H5039.84" stroke="#98A2BB" stroke-width="1.6" stroke-miterlimit="10" stroke-dasharray="3.2 3.2"/>
  <path d="M0 108.52H1755.71C1775.58 108.478 1795.26 108.66 1815.64 108.268C1825.85 107.987 1836.19 107.665 1847.06 106.305C1857.85 104.987 1869.25 102.603 1880.18 98.2702C1891.14 93.9935 1901.15 87.936 1909.98 81.3878C1912.14 79.7191 1914.42 78.1066 1916.47 76.3819L1922.63 71.2218C1924.65 69.4831 1926.54 67.7163 1928.5 65.9636L1933.85 61.126C1946.71 49.5719 1961.12 42.5469 1977.41 40.668C1978.42 40.5277 1979.44 40.4156 1980.48 40.3595L1983.57 40.1351C1985.66 40.1351 1987.76 39.9388 1989.84 40.1071L1996.07 40.3735L2002.14 41.1728C2010.14 42.5329 2017.69 45.0709 2024.8 48.8568C2039.08 56.3866 2051.48 69.1606 2063.23 83.9257C2075.06 98.6768 2086.32 115.447 2100.53 131.502C2107.65 139.509 2115.58 147.361 2124.77 154.246C2133.91 161.131 2144.41 166.964 2155.63 170.834L2159.86 172.194C2161.28 172.657 2162.68 173.119 2164.13 173.4C2167.01 174.045 2169.89 174.746 2172.78 175.279L2181.46 176.415C2184.35 176.723 2187.22 176.737 2190.09 176.877C2201.56 177.116 2213.21 176.022 2224.67 172.881C2236.1 169.74 2247.02 164.524 2256.63 158.046C2266.27 151.568 2274.63 143.926 2282.06 136.017C2296.89 120.13 2308.37 103.276 2320.15 88.1604C2331.83 73.0026 2343.95 59.5836 2357.92 51.1143C2364.88 46.8657 2372.27 43.8509 2380.11 42.0842L2383.05 41.4111C2384.02 41.1587 2385.07 41.1307 2386.07 40.9764L2389.11 40.5838L2390.62 40.3735C2391.12 40.3034 2391.66 40.3174 2392.18 40.2894L2398.41 40.0229C2400.48 40.079 2402.57 40.2052 2404.64 40.2753C2412.9 40.8502 2420.78 42.5048 2428.2 45.4635C2435.61 48.4081 2442.57 52.6427 2449.17 57.9851C2462.41 68.6418 2473.84 83.5331 2485.66 99.2798C2491.59 107.174 2497.66 115.335 2504.31 123.454C2510.97 131.558 2518.22 139.649 2526.63 147.109C2535.01 154.554 2544.62 161.341 2555.32 166.431C2566.01 171.549 2577.68 174.732 2589.24 176.064C2590.68 176.232 2592.14 176.471 2593.58 176.583L2597.9 176.779C2600.77 176.849 2603.66 177.144 2606.53 176.933C2609.4 176.807 2612.27 176.723 2615.16 176.527L2623.85 175.391C2635.42 173.456 2646.89 169.6 2657.27 164.047C2667.68 158.509 2676.92 151.427 2684.98 143.8C2693.08 136.172 2700.1 128.025 2706.6 119.906C2719.56 103.655 2730.56 87.3892 2742.72 73.7318C2748.77 66.9171 2755.08 60.7755 2761.77 55.7696C2768.47 50.7498 2775.56 46.8657 2783.1 44.2576L2785.94 43.3321C2786.88 43.0096 2787.83 42.6871 2788.83 42.5189C2790.8 42.1122 2792.74 41.6074 2794.73 41.2288L2800.79 40.4436C2802.84 40.2193 2804.94 40.2473 2807.01 40.1211C2815.36 39.9669 2823.64 40.7661 2831.35 42.8694C2839.07 44.9867 2846.3 48.4502 2853.13 53.0494C2859.97 57.6486 2866.4 63.4256 2872.55 69.9879C2884.89 83.1265 2895.95 99.1396 2908.5 115.349C2914.79 123.454 2921.53 131.671 2929.25 139.481C2936.96 147.277 2945.7 154.709 2955.69 160.794C2965.65 166.894 2976.86 171.493 2988.37 174.073L2992.69 175.026C2994.13 175.363 2995.57 175.461 2997.03 175.685L3001.37 176.246L3003.54 176.513C3004.27 176.597 3004.99 176.597 3005.7 176.639L3014.33 176.99C3015.76 176.99 3017.2 176.933 3018.63 176.905C3020.06 176.877 3021.51 176.835 3022.95 176.709C3034.46 175.98 3046.25 173.512 3057.25 169.053C3068.31 164.692 3078.37 158.326 3087.21 151.203C3089.38 149.394 3091.56 147.571 3093.6 145.678L3099.04 140.757C3102.48 137.532 3106.01 134.699 3109.52 131.783C3116.58 126.188 3123.69 121.519 3131.08 118.111C3138.46 114.69 3146.29 112.517 3154.95 111.156C3163.59 109.81 3172.83 109.151 3182.41 108.885C3191.98 108.59 3201.74 108.52 3211.62 108.506H3241.35H5038.88" stroke="#98A2BB" stroke-width="1.6" stroke-miterlimit="10" stroke-dasharray="3.2 3.2"/>
  <path d="M-0.00012207 90.9927H1755.71C1775.55 90.9506 1795.4 91.1329 1815.24 90.7403C1825.15 90.4739 1835.08 90.1514 1844.93 88.9034C1854.77 87.6976 1864.54 85.6083 1873.78 81.9485C1883.02 78.3309 1891.6 73.1848 1899.57 67.2816C1901.53 65.7672 1903.56 64.337 1905.47 62.7384L1911.18 57.957C1914.91 54.6758 1918.55 51.3105 1922.24 47.9873C1929.66 41.411 1937.84 35.634 1946.84 31.3994C1951.31 29.254 1955.96 27.4732 1960.75 26.1551C1965.53 24.809 1970.39 23.7854 1975.32 23.2386C1976.55 23.0703 1977.79 22.9301 1979.02 22.86L1982.73 22.5936C1985.21 22.5795 1987.69 22.3692 1990.17 22.5515C1992.65 22.6637 1995.13 22.7338 1997.6 22.888L2004.98 23.8555C2014.76 25.4961 2024.29 28.6931 2033.03 33.3624C2041.8 38.0177 2049.76 44.0892 2056.97 50.8899C2064.2 57.6905 2070.72 65.2203 2076.92 72.9605C2089.32 88.4688 2100.44 104.973 2113.63 119.836C2120.21 127.254 2127.33 134.236 2135.27 140.196C2143.2 146.155 2151.99 151.007 2161.36 154.246L2164.9 155.382C2166.08 155.774 2167.26 156.167 2168.48 156.391C2170.9 156.91 2173.31 157.513 2175.75 157.976L2183.13 158.943C2185.6 159.21 2188.08 159.196 2190.56 159.336C2200.46 159.532 2210.42 158.593 2220.02 155.971C2229.6 153.334 2238.67 149.002 2246.89 143.463C2255.13 137.924 2262.54 131.222 2269.32 123.986C2282.91 109.474 2294.18 93.0399 2306.35 77.3774C2312.43 69.5391 2318.75 61.8551 2325.73 54.802C2332.69 47.749 2340.34 41.2989 2348.81 36.1248C2357.28 30.9506 2366.58 27.1367 2376.25 24.9633L2379.87 24.15C2381.08 23.8555 2382.33 23.7854 2383.55 23.6031L2387.23 23.1264L2389.08 22.888C2389.7 22.8179 2390.31 22.8179 2390.93 22.7899L2398.37 22.4814C2400.85 22.5234 2403.33 22.6777 2405.81 22.7618C2415.7 23.4349 2425.52 25.4821 2434.72 29.1699C2443.96 32.8296 2452.5 38.0878 2460.21 44.3276C2467.93 50.5674 2474.85 57.7466 2481.28 65.3045C2487.72 72.8623 2493.72 80.7707 2499.67 88.7071C2511.6 104.524 2523.39 120.691 2538.24 133.928C2545.66 140.518 2553.87 146.267 2562.83 150.544C2571.78 154.835 2581.49 157.471 2591.34 158.621C2592.57 158.775 2593.79 158.971 2595.03 159.069L2598.74 159.224C2601.22 159.28 2603.7 159.56 2606.18 159.35C2608.66 159.238 2611.14 159.168 2613.6 159.013L2620.99 158.046C2630.77 156.391 2640.29 153.208 2649.04 148.525C2657.81 143.87 2665.76 137.798 2672.96 130.997C2680.19 124.183 2686.71 116.667 2692.9 108.927C2705.3 93.4185 2716.42 76.9147 2729.61 62.0514C2736.19 54.6338 2743.31 47.6508 2751.27 41.7055C2759.2 35.7462 2767.98 30.8946 2777.35 27.6695L2780.9 26.5337C2782.07 26.1411 2783.25 25.7485 2784.47 25.5241C2786.89 25.0053 2789.3 24.3884 2791.74 23.9397L2799.12 22.9722C2801.59 22.7198 2804.07 22.7198 2806.55 22.5795C2816.45 22.3832 2826.42 23.3367 2836 25.9588C2845.58 28.5809 2854.65 32.9277 2862.87 38.4664C2871.11 44.0051 2878.51 50.7216 2885.29 57.9429C2898.88 72.4557 2910.13 88.8894 2922.3 104.552C2928.38 112.39 2934.7 120.074 2941.69 127.127C2948.65 134.18 2956.3 140.63 2964.78 145.791C2973.24 150.965 2982.54 154.765 2992.21 156.938C3001.88 159.083 3011.88 159.883 3021.77 159.182C3031.66 158.551 3041.5 156.475 3050.7 152.759C3059.95 149.128 3068.44 143.771 3076.17 137.56C3080.03 134.433 3083.63 130.997 3087.32 127.702C3090.95 124.309 3094.82 121.196 3098.63 118.027C3106.41 111.871 3114.73 106.333 3123.74 102.182C3132.73 97.9897 3142.4 95.3535 3152.19 93.8251C3162 92.3108 3171.92 91.6237 3181.82 91.3433C3191.74 91.0348 3201.66 90.9647 3211.58 90.9507H3241.34H5038.87" stroke="#F63E56" stroke-width="1.6" stroke-miterlimit="10" stroke-linecap="round"/>
</svg>
